max v2;#N vpatcher 21 44 983 712;#P origin 131 20;#P window setfont "Sans Serif" 9.;#P window linecount 1;#P message 50 58 35 196617 write;#P message 53 77 29 196617 stop;#P newex 734 496 63 196617 s videoOut4;#P user jit.fpsgui 1496 593 60 196617 0;#P newex 651 368 63 196617 r videoOut4;#P newex 775 371 63 196617 r videoOut3;#P newex 1415 620 63 196617 s videoOut3;#P newex 716 373 63 196617 r videoOut2;#P user jit.fpsgui 1255 581 60 196617 0;#P user jit.fpsgui 1008 573 60 196617 0;#P newex 1175 613 63 196617 s videoOut2;#P newex -15 56 38 196617 r final;#P user jit.pwindow -11 -46 113 87 0 1 0 0 1 0;#P newex 592 366 63 196617 r videoOut1;#P newex 916 601 63 196617 s videoOut1;#P newex 617 550 38 196617 s final;#P newex -17 75 82 196617 jit.vcr 640 480;#P newex 1419 502 57 196617 qmetro 30;#P newex 1177 511 57 196617 qmetro 30;#P newex 967 300 35 196617 * 15.;#P flonum 966 317 35 9 0 0 0 3 0 0 0 221 221 221 222 222 222 0 0 0;#P user jit.fpsgui 729 468 60 196617 0;#P user jit.pwindow 722 413 72 53 0 1 0 0 1 0;#P flonum 761 335 35 9 0 0 0 3 0 0 0 221 221 221 222 222 222 0 0 0;#P newex 719 335 40 196617 / 100.;#P number 778 316 35 9 0 0 0 3 0 0 0 221 221 221 222 222 222 0 0 0;#P button 790 300 15 0;#P newex 717 318 58 196617 random 25;#P newex 719 299 60 196617 r bangeight;#P message 722 353 45 196617 xfade \$1;#P newex 718 394 77 196617 jit.xfade;#P number 1471 445 35 9 0 0 0 3 0 0 0 221 221 221 222 222 222 0 0 0;#P user gswitch 1455 375 41 32 1 0;#P user gswitch 1411 377 41 32 1 0;#P toggle 1499 373 54 0;#P newex 1410 354 44 196617 r bang0;#P button 1479 502 17 0;#P newex 1412 409 60 196617 r bangeight;#P newex 1457 354 44 196617 r bang1;#P number 1537 446 35 9 0 0 0 3 0 0 0 221 221 221 222 222 222 0 0 0;#P message 1571 446 44 196617 rate \$1;#P newex 1507 445 30 196617 - 15;#P newex 1412 446 58 196617 random 30;#P newex 1482 519 63 196617 print ameba;#P button 1553 374 53 0;#P number 1488 482 35 9 0 0 0 3 0 0 0 221 221 221 222 222 222 0 0 0;#P newex 1513 466 88 196617 route framecount;#P message 1414 483 75 196617 getframecount;#P number 1470 428 35 9 0 0 0 3 0 0 0 221 221 221 222 222 222 0 0 0;#P newex 1412 427 58 196617 random 14;#P user jit.pwindow 1486 535 76 58 0 1 0 0 1 0;#P message 1505 429 67 196617 read \$1.mov;#P user jit.fpsgui 1415 591 60 196617 0;#P number 1478 466 32 9 0 0 0 3 0 0 0 221 221 221 222 222 222 0 0 0;#P newex 1413 465 64 196617 random 100;#P message 1524 483 57 196617 frame \$1;#P user jit.pwindow 1413 537 72 53 0 1 0 0 1 0;#P newex 1416 520 66 196617 jit.qt.movie;#P number 205 39 35 9 0 0 0 3 0 0 0 221 221 221 222 222 222 0 0 0;#P newex 170 39 27 196617 / 8;#P button 341 89 15 0;#P newex 281 88 60 196617 s bangeight;#P newex 281 72 63 196617 qmetro 250;#P newex 1023 297 27 196617 / 5.;#P newex 922 298 35 196617 * 15.;#P newex 1323 303 35 196617 * 3.5;#P flonum 1356 303 35 9 0 0 0 3 0 0 0 221 221 221 222 222 222 0 0 0;#P newex 1248 304 29 196617 * 5.;#P flonum 1282 306 35 9 0 0 0 3 0 0 0 221 221 221 222 222 222 0 0 0;#P flonum 1182 304 35 9 0 0 0 3 0 0 0 221 221 221 222 222 222 0 0 0;#P flonum 103 1187 35 9 0 0 0 3 0 0 0 221 221 221 222 222 222 0 0 0;#P newex 71 1187 31 196617 bline;#P newex 95 1203 45 196617 s bright;#P flonum 35 1186 35 9 0 0 0 3 0 0 0 221 221 221 222 222 222 0 0 0;#P newex 2 1185 31 196617 bline;#P newex 50 1204 40 196617 s pitch;#P flonum -34 1186 35 9 0 0 0 3 0 0 0 221 221 221 222 222 222 0 0 0;#P newex -65 1184 31 196617 bline;#P button -8 1204 15 0;#P newex -55 1206 44 196617 r bang1;#P flonum -33 1168 35 9 0 0 0 3 0 0 0 221 221 221 222 222 222 0 0 0;#P flonum 94 1169 35 9 0 0 0 3 0 0 0 221 221 221 222 222 222 0 0 0;#P flonum 32 1169 35 9 0 0 0 3 0 0 0 221 221 221 222 222 222 0 0 0;#P newex 3 1168 27 196617 / 3.;#P flonum -52 1151 35 9 0 0 0 3 0 0 0 221 221 221 222 222 222 0 0 0;#P newex -79 1151 27 196617 + 0.;#P flonum -53 1061 35 9 0 0 0 3 0 0 0 221 221 221 222 222 222 0 0 0;#P newex -80 1060 27 196617 + 0.;#P newex -60 1167 27 196617 / 3.;#P flonum 49 1149 35 9 0 0 0 3 0 0 0 221 221 221 222 222 222 0 0 0;#P newex 20 1148 27 196617 + 0.;#P flonum 46 1061 35 9 0 0 0 3 0 0 0 221 221 221 222 222 222 0 0 0;#P newex 18 1061 27 196617 + 0.;#P newex 67 1168 27 196617 / 3.;#P flonum 145 1149 35 9 0 0 0 3 0 0 0 221 221 221 222 222 222 0 0 0;#P newex 118 1148 27 196617 + 0.;#P flonum 147 1061 35 9 0 0 0 3 0 0 0 221 221 221 222 222 222 0 0 0;#P newex 119 1061 27 196617 + 0.;#P flonum 84 1149 35 9 0 0 0 3 0 0 0 221 221 221 222 222 222 0 0 0;#P newex 126 1132 34 196617 / 10.;#P flonum 90 1132 35 9 0 0 0 3 0 0 0 221 221 221 222 222 222 0 0 0;#P newex 113 1115 40 196617 / 500.;#P number 78 1115 35 9 0 0 0 3 0 0 0 221 221 221 222 222 222 0 0 0;#P flonum -17 1150 35 9 0 0 0 3 0 0 0 221 221 221 222 222 222 0 0 0;#P newex 49 1131 40 196617 / 200.;#P newex -55 1134 34 196617 / 10.;#P flonum -114 1150 35 9 0 0 0 3 0 0 0 221 221 221 222 222 222 0 0 0;#P newex -89 1132 37 196617 abs 1.;#P flonum 15 1133 35 9 0 0 0 3 0 0 0 221 221 221 222 222 222 0 0 0;#P newex 50 1115 27 196617 +;#P number -20 1133 35 9 0 0 0 3 0 0 0 221 221 221 222 222 222 0 0 0;#P newex -21 1115 70 196617 unpack 0 0 0;#P flonum 32 1100 35 9 0 0 0 3 0 0 0 221 221 221 222 222 222 0 0 0;#P flonum -73 1118 52 9 0 0 0 3 0 0 0 221 221 221 222 222 222 0 0 0;#P newex 68 1098 63 196617 brightness~;#P newex -76 1099 54 196617 loudness~;#P newex -21 1098 53 196617 pitch~;#P newex -20 1079 91 196617 receive~ synthsig;#P comment -24 865 70 196617 analyze audio;#P flonum 82 1061 35 9 0 0 0 3 0 0 0 221 221 221 222 222 222 0 0 0;#P newex 103 1044 34 196617 / 10.;#P flonum 67 1044 35 9 0 0 0 3 0 0 0 221 221 221 222 222 222 0 0 0;#P newex 103 1027 40 196617 / 500.;#P number 67 1026 35 9 0 0 0 3 0 0 0 221 221 221 222 222 222 0 0 0;#P flonum -18 1060 35 9 0 0 0 3 0 0 0 221 221 221 222 222 222 0 0 0;#P newex 31 1042 40 196617 / 200.;#P newex -74 1041 34 196617 / 10.;#P flonum -117 1062 35 9 0 0 0 3 0 0 0 221 221 221 222 222 222 0 0 0;#P newex -111 1043 37 196617 abs 1.;#P flonum -4 1043 35 9 0 0 0 3 0 0 0 221 221 221 222 222 222 0 0 0;#P newex 32 1025 27 196617 +;#P newex 8 1204 36 196617 s loud;#P number -37 1043 35 9 0 0 0 3 0 0 0 221 221 221 222 222 222 0 0 0;#P newex -39 1025 70 196617 unpack 0 0 0;#P flonum 29 1008 35 9 0 0 0 3 0 0 0 221 221 221 222 222 222 0 0 0;#P flonum -90 1026 52 9 0 0 0 3 0 0 0 221 221 221 222 222 222 0 0 0;#P newex 66 1009 63 196617 brightness~;#P newex -93 1009 54 196617 loudness~;#P newex -38 1008 65 196617 pitch~;#P newex -37 991 101 196617 receive~ drumkitsig;#P flonum 84 975 35 9 0 0 0 3 0 0 0 221 221 221 222 222 222 0 0 0;#P newex 104 959 34 196617 / 10.;#P flonum 68 958 35 9 0 0 0 3 0 0 0 221 221 221 222 222 222 0 0 0;#P newex 104 941 40 196617 / 500.;#P number 68 940 35 9 0 0 0 3 0 0 0 221 221 221 222 222 222 0 0 0;#P flonum -93 973 35 9 0 0 0 3 0 0 0 221 221 221 222 222 222 0 0 0;#P flonum 1285 277 35 9 0 0 0 3 0 0 0 221 221 221 222 222 222 0 0 0;#P flonum 1242 278 35 9 0 0 0 3 0 0 0 221 221 221 222 222 222 0 0 0;#P newex 918 496 57 196617 qmetro 30;#P flonum -19 974 35 9 0 0 0 3 0 0 0 221 221 221 222 222 222 0 0 0;#P newex 31 956 40 196617 / 200.;#P flonum 640 335 35 9 0 0 0 3 0 0 0 221 221 221 222 222 222 0 0 0;#P newex 601 334 40 196617 / 100.;#P number 657 317 35 9 0 0 0 3 0 0 0 221 221 221 222 222 222 0 0 0;#P button 669 301 15 0;#P newex 596 319 64 196617 random 120;#P newex 598 300 60 196617 r bangeight;#P flonum 1562 341 35 9 0 0 0 3 0 0 0 221 221 221 222 222 222 0 0 0;#P newex -112 953 34 196617 / 10.;#P newex -75 954 37 196617 abs 1.;#P flonum -3 957 35 9 0 0 0 3 0 0 0 221 221 221 222 222 222 0 0 0;#P number 1233 440 35 9 0 0 0 3 0 0 0 221 221 221 222 222 222 0 0 0;#P user gswitch 1217 370 41 32 1 0;#P user gswitch 1173 372 41 32 1 0;#P toggle 1261 368 54 0;#P newex 1172 349 44 196617 r bang0;#P button 1236 511 15 0;#P newex 1174 404 60 196617 r bangeight;#P newex 1219 349 44 196617 r bang1;#P number 1299 441 35 9 0 0 0 3 0 0 0 221 221 221 222 222 222 0 0 0;#P message 1333 441 44 196617 rate \$1;#P newex 1269 440 30 196617 - 15;#P newex 1174 441 58 196617 random 30;#P newex 1243 493 63 196617 print ameba;#P button 1315 369 53 0;#P number 1250 477 35 9 0 0 0 3 0 0 0 221 221 221 222 222 222 0 0 0;#P newex 1275 461 88 196617 route framecount;#P message 1176 478 75 196617 getframecount;#P number 1232 423 35 9 0 0 0 3 0 0 0 221 221 221 222 222 222 0 0 0;#P newex 1174 422 58 196617 random 11;#P user jit.pwindow 1248 527 72 50 0 1 0 0 1 0;#P message 1267 424 67 196617 read \$1.mov;#P user jit.fpsgui 1176 583 60 196617 0;#P newex 1268 346 54 196617 jit.brcosa;#P number 1240 461 32 9 0 0 0 3 0 0 0 221 221 221 222 222 222 0 0 0;#P newex 1175 460 64 196617 random 100;#P message 1286 478 57 196617 frame \$1;#P user jit.pwindow 1176 527 72 53 0 1 0 0 1 0;#P newex 1176 493 66 196617 jit.qt.movie;#P number 977 441 35 9 0 0 0 3 0 0 0 221 221 221 222 222 222 0 0 0;#P user gswitch 961 371 41 32 1 0;#P user gswitch 917 373 41 32 1 0;#P toggle 1005 369 54 0;#P newex 916 350 44 196617 r bang0;#P newex -82 77 44 196617 r bang0;#P newex 210 448 35 196617 gate~;#P button 328 684 15 0;#P newex 272 684 55 196617 r banghalf;#P newex 270 757 132 196617 if $i1==0 then $i2 else $i3;#P number 311 702 35 9 0 0 0 3 0 0 0 221 221 221 222 222 222 0 0 0;#P number 315 722 55 9 0 0 0 3 0 0 0 221 221 221 222 222 222 0 0 0;#P newex 273 720 41 196617 sel 0 1;#P newex 272 702 38 196617 decide;#P newex 325 306 44 196617 r bang0;#P toggle 274 305 51 0;#P newex 193 304 44 196617 r bang0;#P toggle 142 304 51 0;#P number 313 741 52 9 0 0 0 3 0 0 0 221 221 221 222 222 222 0 0 0;#P newex 270 739 42 196617 - 3000;#P newex 273 610 56 196617 freqshift~;#P newex 334 442 35 196617 gate~;#P newex 468 441 35 196617 gate~;#P newex 456 303 44 196617 r bang0;#P toggle 405 302 51 0;#P flonum 1220 172 35 9 0 0 0 3 0 0 0 221 221 221 222 222 222 0 0 0;#P newex 1179 170 40 196617 / 100.;#P newex 1576 -63 44 196617 r bang0;#P toggle 1569 -44 51 0;#P user gswitch 1620 -24 41 32 1 0;#P button 1568 61 39 0;#P button 1606 61 39 0;#P newex 1567 44 55 196617 select 0 1;#P newex 1624 44 38 196617 decide;#P number 1624 9 35 9 0 0 0 3 0 0 0 221 221 221 222 222 222 0 0 0;#P newex 1567 26 103 196617 if $i1>100 then bang;#P newex 1567 7 59 196617 r bluemean;#P button 1620 -65 39 0;#P newex 1434 -62 44 196617 r bang0;#P toggle 1427 -43 51 0;#P user gswitch 1478 -23 41 32 1 0;#P button 1426 62 39 0;#P button 1464 62 39 0;#P newex 1425 45 55 196617 select 0 1;#P newex 1482 45 38 196617 decide;#P number 1482 10 35 9 0 0 0 3 0 0 0 221 221 221 222 222 222 0 0 0;#P newex 1425 27 103 196617 if $i1>100 then bang;#P newex 1425 8 66 196617 r greenmean;#P button 1478 -64 39 0;#P newex 1304 -61 44 196617 r bang0;#P toggle 1297 -42 51 0;#P user gswitch 1348 -22 41 32 1 0;#P flonum 1223 30 35 9 0 0 0 3 0 0 0 221 221 221 222 222 222 0 0 0;#P newex 1129 -58 44 196617 r bang0;#P toggle 1187 -42 51 0;#P user gswitch 1147 -40 41 32 1 0;#P message 457 338 31 196617 0.85;#P newex 457 319 48 196617 loadbang;#P newex 326 323 48 196617 loadbang;#P newex 194 321 48 196617 loadbang;#P message 326 341 31 196617 0.75;#P message 194 339 31 196617 0.35;#P toggle -39 77 15 0;#P newex 167 150 48 196617 loadbang;#P message 216 151 26 196617 120;#P flonum 921 316 35 9 0 0 0 3 0 0 0 221 221 221 222 222 222 0 0 0;#P flonum 1018 316 35 9 0 0 0 3 0 0 0 221 221 221 222 222 222 0 0 0;#P flonum 1202 278 35 9 0 0 0 3 0 0 0 221 221 221 222 222 222 0 0 0;#P button 347 -12 15 0;#P button 338 23 15 0;#P button 353 57 15 0;#P button 353 123 15 0;#P button 328 198 15 0;#P button 328 182 15 0;#P button 977 497 15 0;#P newex -125 58 85 196617 receive~ master;#P newex -118 470 85 196617 receive~ master;#P newex -117 322 71 196617 send~ master;#P newex -117 304 100 196617 receive~ submaster;#P newex 16 393 86 196617 send~ submaster;#P newex 485 911 38 196617 r 3m3;#P newex 370 895 38 196617 r 3m2;#P newex 669 533 38 196617 s 3m3;#P newex 670 517 38 196617 s 3m2;#P newex 670 499 38 196617 s 3m1;#P message 1015 335 43 196617 gain \$1;#P message 967 333 31 196617 y \$1;#P message 923 333 31 196617 x \$1;#P message 1313 323 71 196617 saturation \$1;#P message 1248 324 63 196617 contrast \$1;#P message 1173 323 72 196617 brightness \$1;#P window linecount 2;#P message 725 619 95 196617 \; max hidemenubar;#P window linecount 1;#P newex 790 566 41 196617 sel 0 1;#P newex 1282 259 40 196617 r pitch;#P newex 1235 260 45 196617 r bright;#P newex 1198 260 36 196617 r loud;#P newex 918 405 72 196617 r bangquarter;#P newex 282 197 44 196617 s bang2;#P newex 963 350 44 196617 r bang1;#P newex 282 180 44 196617 s bang1;#P newex 608 531 53 196617 jit.3m;#P number 1043 442 35 9 0 0 0 3 0 0 0 221 221 221 222 222 222 0 0 0;#P user jit.fpsgui 604 498 60 196617 0;#P number 311 160 35 9 0 0 0 3 0 0 0 221 221 221 222 222 222 0 0 0;#P message 1552 355 54 196617 thresh \$1;#P newex 1503 354 47 196617 jit.sobel;#B color 5;#P message 1077 442 44 196617 rate \$1;#P newex 1013 441 30 196617 - 15;#P newex 918 442 58 196617 random 30;#P newex 1075 497 63 196617 print ameba;#P button 1060 369 53 0;#P number 994 478 35 9 0 0 0 3 0 0 0 221 221 221 222 222 222 0 0 0;#P newex 1019 462 88 196617 route framecount;#P message 918 478 75 196617 getframecount;#P window linecount 2;#P message 723 589 100 196617 \; max showmenubar;#P number 976 424 35 9 0 0 0 3 0 0 0 221 221 221 222 222 222 0 0 0;#P window linecount 1;#P newex 918 423 58 196617 random 11;#P newex 347 159 28 196617 sel 2;#P message 601 352 45 196617 xfade \$1;#P user jit.pwindow 600 411 113 87 0 1 0 0 1 0;#P newex 602 387 77 196617 jit.xfade;#P user jit.pwindow 999 513 77 58 0 1 0 0 1 0;#P message 1011 425 67 196617 read \$1.mov;#P user jit.fpsgui 915 571 60 196617 0;#P newex 1008 349 58 196617 jit.ameba;#P number 984 462 32 9 0 0 0 3 0 0 0 221 221 221 222 222 222 0 0 0;#P newex 919 461 64 196617 random 100;#P message 1030 479 57 196617 frame \$1;#P user jit.pwindow 915 514 84 55 0 1 0 0 1 0;#P newex 1011 497 66 196617 jit.qt.movie;#P message 720 566 68 196617 fullscreen \$1;#P toggle 760 529 33 0;#P newex 723 529 35 196617 sel 27;#P newex 723 546 30 196617 key;#P newex 726 649 94 196617 jit.window whodat;#P newex 282 160 28 196617 sel 1;#P number 1149 -6 35 9 0 0 0 3 0 0 0 221 221 221 222 222 222 0 0 0;#P newex 1174 -59 64 196617 r bangwhole;#P newex 1101 205 92 196617 send~ subsynthsig;#P newex 1163 29 56 196617 r rgbmean;#P newex 1104 -7 44 196617 r whole;#P flonum 1175 135 35 9 0 0 0 3 0 0 0 221 221 221 222 222 222 0 0 0;#P newex 1101 117 93 196617 if $i1==1 then $i2;#P user number~ 1172 189 1211 204 9 3 3 2 0. 0. 0 0. 250 1318926976. 0 0 0 221 221 221 222 222 222 0 0 0;#P user number~ 1194 205 1233 220 9 3 3 2 0. 0. 0 0. 250 1318926976. 0 0 0 221 221 221 222 222 222 0 0 0;#P user number~ 1100 172 1139 187 9 3 3 2 0. 0. 0 0. 250 0. 0 0 0 221 221 221 222 222 222 0 0 0;#P newex 1101 155 40 196617 cycle~;#P flonum 1170 11 37 9 0 0 0 3 0 0 0 221 221 221 222 222 222 0 0 0;#P newex 1208 10 30 196617 * 1.5;#P flonum 1193 66 35 9 0 0 0 3 0 0 0 221 221 221 222 222 222 0 0 0;#P newex 1099 49 134 196617 if $i1 < 80 then 80 else $i1;#P newex 1100 98 62 196617 prepend set;#P message 1100 136 75 196617 80 \, 80 0;#P flonum 1099 83 35 9 0 0 0 3 0 0 0 221 221 221 222 222 222 0 0 0;#P newex 1162 99 32 196617 sel 1;#P button 1174 150 21 0;#P newex 1134 82 96 196617 sprintf %i\\\, 80 %i;#P newex 1098 65 93 196617 if $i1==1 then $i2;#P user number~ 1141 171 1179 186 9 3 3 2 0. 0. 0 0. 250 0. 0 0 0 221 221 221 222 222 222 0 0 0;#P newex 1140 154 32 196617 line~;#P newex 1103 30 27 196617 + 1;#P number 1133 30 27 9 0 0 0 3 0 0 0 221 221 221 222 222 222 0 0 0;#P newex 1129 187 41 196617 phasor~;#N counter 1;#X flags 0 0;#P newobj 1104 10 66 196617 counter 1;#P button 1116 -40 32 0;#P comment 1130 -81 37 196617 synth;#P newex 1103 187 27 196617 *~;#P newex 546 980 27 196617 + 3;#P newex 519 996 68 196617 s rgbmaxavg;#P number 484 996 35 9 0 0 0 3 0 0 0 221 221 221 222 222 222 0 0 0;#P newex 518 980 27 196617 / 3;#P number 483 979 35 9 0 0 0 3 0 0 0 221 221 221 222 222 222 0 0 0;#P newex 546 962 27 196617 +;#P number 511 963 35 9 0 0 0 3 0 0 0 221 221 221 222 222 222 0 0 0;#P newex 484 962 27 196617 +;#P newex 314 981 27 196617 + 3;#P number 429 948 35 9 0 0 0 3 0 0 0 221 221 221 222 222 222 0 0 0;#P number 555 945 35 9 0 0 0 3 0 0 0 221 221 221 222 222 222 0 0 0;#P flonum 319 948 35 9 0 0 0 3 0 0 0 221 221 221 222 222 222 0 0 0;#P number 434 979 35 9 0 0 0 3 0 0 0 221 221 221 222 222 222 0 0 0;#P number 426 963 35 9 0 0 0 3 0 0 0 221 221 221 222 222 222 0 0 0;#P newex 370 947 59 196617 s bluemean;#P newex 369 978 66 196617 s greenmean;#P newex 370 962 56 196617 s redmean;#P number 518 946 35 9 0 0 0 3 0 0 0 221 221 221 222 222 222 0 0 0;#P number 483 946 35 9 0 0 0 3 0 0 0 221 221 221 222 222 222 0 0 0;#P newex 250 998 56 196617 s rgbmean;#P number 306 997 35 9 0 0 0 3 0 0 0 221 221 221 222 222 222 0 0 0;#P newex 286 980 27 196617 / 3;#P number 251 982 35 9 0 0 0 3 0 0 0 221 221 221 222 222 222 0 0 0;#P newex 314 963 27 196617 +;#P number 278 964 35 9 0 0 0 3 0 0 0 221 221 221 222 222 222 0 0 0;#P newex 251 964 27 196617 +;#P flonum 285 948 35 9 0 0 0 3 0 0 0 221 221 221 222 222 222 0 0 0;#P flonum 250 948 35 9 0 0 0 3 0 0 0 221 221 221 222 222 222 0 0 0;#P newex 484 928 88 196617 unpack 0. 0. 0. 0.;#P newex 369 912 76 196617 unpack 0 0 0 0;#P newex 330 140 27 196617 + 1;#P comment 680 269 39 196617 video;#P button 1296 61 39 0;#P button 1334 61 39 0;#P newex 1295 44 55 196617 select 0 1;#P newex 1352 44 38 196617 decide;#P number 1352 11 35 9 0 0 0 3 0 0 0 221 221 221 222 222 222 0 0 0;#P user number~ 1598 117 1637 132 9 3 3 2 0. 0. 0 0. 250 0. 0 0 0 221 221 221 222 222 222 0 0 0;#P newex 1568 150 64 196617 send~ snare;#P message 1569 100 81 196617 0 \, 1000 1000;#P newex 1568 117 27 196617 line~;#P newex 1569 133 81 196617 play~ snare001;#P user number~ 1453 118 1492 133 9 3 3 2 0. 0. 0 0. 250 0. 0 0 0 221 221 221 222 222 222 0 0 0;#P newex 1423 151 57 196617 send~ kick;#P message 1424 101 81 196617 0 \, 1000 1000;#P newex 1424 134 74 196617 play~ kick001;#P user number~ 1326 118 1365 133 9 3 3 2 0. 0. 0 0. 250 0. 0 0 0 221 221 221 222 222 222 0 0 0;#P newex 1296 151 49 196617 send~ hh;#P newex 1295 26 103 196617 if $i1>100 then bang;#P newex 1295 9 56 196617 r redmean;#P comment 1584 -94 54 196617 snare;#P comment 1446 -93 54 196617 kick;#P message 1299 102 81 196617 0 \, 1000 1000;#P newex 1297 117 27 196617 line~;#P newex 1297 134 73 196617 play~ hh001;#P comment 1301 -95 54 196617 highhat;#P newex 1425 118 27 196617 line~;#P comment 1418 -119 51 196617 drum kit;#P newex 395 -40 44 196617 r bang0;#P newex 454 140 76 196617 send~ sample1;#P newex 460 91 27 196617 * 8;#P newex 487 90 44 196617 r whole;#P newex 452 -54 73 196617 r samplecount;#P user number~ 406 133 445 148 9 3 3 2 0. 0. 0 0. 250 0. 0 0 0 221 221 221 222 222 222 0 0 0;#P toggle 480 -36 51 0;#P user gswitch 440 -36 41 32 1 0;#P button 404 -21 33 0;#P newex 442 -3 32 196617 sel 1;#P flonum 479 108 51 9 0 0 0 3 0 0 0 221 221 221 222 222 222 0 0 0;#P flonum 479 74 51 9 0 0 0 3 0 0 0 221 221 221 222 222 222 0 0 0;#P flonum 406 101 35 9 0 0 0 3 0 0 0 221 221 221 222 222 222 0 0 0;#P newex 405 83 27 196617 - 1.;#P flonum 406 67 35 9 0 0 0 3 0 0 0 221 221 221 222 222 222 0 0 0;#P newex 405 51 46 196617 / 100.;#P flonum 406 35 35 9 0 0 0 3 0 0 0 221 221 221 222 222 222 0 0 0;#P newex 406 16 64 196617 random 200;#P newex 406 117 25 196617 sig~;#P newex 460 124 70 196617 groove~ 5buf;#P newex 460 108 18 196617 +;#P newex 458 58 72 196617 random 50000;#P message 483 45 48 196617 set \$1buf;#P number 496 30 35 9 0 0 0 3 0 0 0 221 221 221 222 222 222 0 0 0;#P newex 478 15 53 196617 random 12;#P comment 406 -52 45 196617 sample1;#P newex 928 -41 44 196617 r bang0;#P newex 576 -39 44 196617 r bang0;#P newex 757 -41 44 196617 r bang0;#P newex 816 138 76 196617 send~ sample3;#P newex 821 90 27 196617 * 8;#P newex 848 89 44 196617 r whole;#P newex 818 -57 73 196617 r samplecount;#P user number~ 768 131 807 146 9 3 3 2 0. 0. 0 0. 250 0. 0 0 0 221 221 221 222 222 222 0 0 0;#P toggle 842 -38 51 0;#P user gswitch 802 -38 41 32 1 0;#P button 766 -23 33 0;#P newex 804 -5 32 196617 sel 3;#P flonum 841 106 51 9 0 0 0 3 0 0 0 221 221 221 222 222 222 0 0 0;#P flonum 841 72 51 9 0 0 0 3 0 0 0 221 221 221 222 222 222 0 0 0;#P flonum 768 99 35 9 0 0 0 3 0 0 0 221 221 221 222 222 222 0 0 0;#P newex 767 81 27 196617 - 1.;#P flonum 768 65 35 9 0 0 0 3 0 0 0 221 221 221 222 222 222 0 0 0;#P newex 767 49 46 196617 / 100.;#P flonum 768 33 35 9 0 0 0 3 0 0 0 221 221 221 222 222 222 0 0 0;#P newex 768 14 64 196617 random 200;#P newex 768 115 25 196617 sig~;#P newex 822 122 70 196617 groove~ 7buf;#P newex 822 106 18 196617 +;#P newex 820 56 72 196617 random 50000;#P message 844 43 48 196617 set \$1buf;#P number 858 28 35 9 0 0 0 3 0 0 0 221 221 221 222 222 222 0 0 0;#P newex 840 13 53 196617 random 12;#P comment 761 -52 45 196617 sample3;#P newex 635 139 76 196617 send~ sample2;#P newex 638 90 27 196617 * 8;#P newex 666 88 44 196617 r whole;#P newex 636 -57 73 196617 r samplecount;#P user number~ 586 131 625 146 9 3 3 2 0. 0. 0 0. 250 0. 0 0 0 221 221 221 222 222 222 0 0 0;#P toggle 660 -38 51 0;#P user gswitch 620 -38 41 32 1 0;#P button 584 -23 33 0;#P newex 622 -5 32 196617 sel 2;#P flonum 659 106 51 9 0 0 0 3 0 0 0 221 221 221 222 222 222 0 0 0;#P flonum 659 72 51 9 0 0 0 3 0 0 0 221 221 221 222 222 222 0 0 0;#P flonum 586 99 35 9 0 0 0 3 0 0 0 221 221 221 222 222 222 0 0 0;#P newex 585 81 27 196617 - 1.;#P flonum 586 65 35 9 0 0 0 3 0 0 0 221 221 221 222 222 222 0 0 0;#P newex 585 49 46 196617 / 100.;#P flonum 586 33 35 9 0 0 0 3 0 0 0 221 221 221 222 222 222 0 0 0;#P newex 586 14 64 196617 random 200;#P newex 586 115 25 196617 sig~;#P newex 640 122 70 196617 groove~ 6buf;#P newex 640 107 18 196617 +;#P newex 638 56 72 196617 random 50000;#P message 662 41 48 196617 set \$1buf;#P number 676 28 35 9 0 0 0 3 0 0 0 221 221 221 222 222 222 0 0 0;#P newex 658 13 53 196617 random 12;#P comment 579 -52 45 196617 sample2;#P newex 983 137 76 196617 send~ sample4;#P newex 987 85 27 196617 * 2;#P newex 1015 85 44 196617 r whole;#P newex 985 -59 73 196617 r samplecount;#P user number~ 935 130 974 145 9 3 3 2 0. 0. 0 0. 250 0. 0 0 0 221 221 221 222 222 222 0 0 0;#P toggle 1010 -41 51 0;#P user gswitch 970 -41 41 32 1 0;#P button 937 -24 33 0;#P newex 971 -6 32 196617 sel 4;#P flonum 1007 102 51 9 0 0 0 3 0 0 0 221 221 221 222 222 222 0 0 0;#P flonum 1008 71 51 9 0 0 0 3 0 0 0 221 221 221 222 222 222 0 0 0;#P flonum 935 98 35 9 0 0 0 3 0 0 0 221 221 221 222 222 222 0 0 0;#P newex 934 80 27 196617 - 1.;#P flonum 935 64 35 9 0 0 0 3 0 0 0 221 221 221 222 222 222 0 0 0;#P newex 934 48 46 196617 / 100.;#P flonum 935 32 35 9 0 0 0 3 0 0 0 221 221 221 222 222 222 0 0 0;#P newex 935 13 64 196617 random 200;#P newex 935 114 25 196617 sig~;#P newex 989 121 70 196617 groove~ 8buf;#P newex 988 104 18 196617 +;#P newex 987 55 72 196617 random 50000;#P message 1011 41 48 196617 set \$1buf;#P number 1025 27 24 9 0 0 0 3 0 0 0 221 221 221 222 222 222 0 0 0;#P newex 1006 11 53 196617 random 12;#P comment 928 -53 45 196617 sample4;#P comment 714 -91 52 196617 samples;#P newex 35 939 27 196617 +;#P number -38 957 35 9 0 0 0 3 0 0 0 221 221 221 222 222 222 0 0 0;#P newex -36 939 70 196617 unpack 0 0 0;#P flonum 31 922 35 9 0 0 0 3 0 0 0 221 221 221 222 222 222 0 0 0;#P flonum -91 937 52 9 0 0 0 3 0 0 0 221 221 221 222 222 222 0 0 0;#P newex 67 923 63 196617 brightness~;#P newex -91 920 54 196617 loudness~;#P newex -35 921 65 196617 pitch~;#P newex -36 903 101 196617 receive~ drumkitsig;#P button -28 486 15 0;#P newex -117 486 55 196617 r banghalf;#P newex 15 306 97 196617 receive~ samplesig;#P newex 15 322 101 196617 receive~ drumkitsig;#P newex 16 338 91 196617 receive~ synthsig;#P newex 139 498 106 196617 receive~ subsynthsig;#P newex 139 533 56 196617 freqshift~;#P number 208 516 35 9 0 0 0 3 0 0 0 221 221 221 222 222 222 0 0 0;#P number 184 570 43 9 0 0 0 3 0 0 0 221 221 221 222 222 222 0 0 0;#P newex 139 570 44 196617 r whole;#P newex 138 605 44 196617 tapout~;#P number 172 552 35 9 0 0 0 3 0 0 0 221 221 221 222 222 222 0 0 0;#P newex 139 551 32 196617 * 10;#P newex 142 587 65 196617 tapin~ 5000;#P newex 140 515 68 196617 r rgbmaxavg;#P number 330 595 35 9 0 0 0 3 0 0 0 221 221 221 222 222 222 0 0 0;#P number 316 578 35 9 0 0 0 3 0 0 0 221 221 221 222 222 222 0 0 0;#P newex 273 578 44 196617 r whole;#P newex 273 665 44 196617 tapout~;#P number 305 647 41 9 0 0 0 3 0 0 0 221 221 221 222 222 222 0 0 0;#P newex 273 647 32 196617 * 10;#P newex 273 629 65 196617 tapin~ 5000;#P newex 273 593 56 196617 r rgbmean;#P number 404 645 35 9 0 0 0 3 0 0 0 221 221 221 222 222 222 0 0 0;#P newex 401 697 56 196617 freqshift~;#P newex 408 476 83 196617 send~ samplesig;#P newex 274 475 87 196617 send~ drumkitsig;#P newex 140 481 77 196617 send~ synthsig;#P number 448 613 35 9 0 0 0 3 0 0 0 221 221 221 222 222 222 0 0 0;#P newex 404 613 44 196617 r whole;#P newex 402 680 44 196617 tapout~;#P number 446 682 35 9 0 0 0 3 0 0 0 221 221 221 222 222 222 0 0 0;#P newex 435 643 32 196617 * 20;#P newex 402 664 65 196617 tapin~ 5000;#P newex 404 628 56 196617 r rgbmean;#P user number~ -86 360 -47 375 9 3 3 2 0. 0. 0 0. 250 0. 0 0 0 221 221 221 222 222 222 0 0 0;#P user multiSlider -85 376 47 85 0. 1. 1 2681 15 0 0 2 0 0 0;#M frgb 0 0 0;#M brgb 255 255 255;#M rgb2 127 127 127;#M rgb3 0 0 0;#M rgb4 37 52 91;#M rgb5 74 105 182;#M rgb6 112 158 18;#M rgb7 149 211 110;#M rgb8 187 9 201;#M rgb9 224 62 37;#M rgb10 7 114 128;#P newex -85 342 27 196617 *~;#P flonum -119 445 35 9 0 0 0 3 0 0 0 221 221 221 222 222 222 0 0 0;#P newex -117 503 52 196617 s avgamp;#P flonum -65 504 35 9 0 0 0 3 0 0 0 221 221 221 222 222 222 0 0 0;#P user meter~ -117 340 -87 445 50 0 168 0 103 103 103 255 153 0 255 0 0 217 217 0 153 186 0 12 3 3 3 3;#P user number~ 42 376 81 391 9 3 3 2 0. 0. 0 0. 250 0. 0 0 0 221 221 221 222 222 222 0 0 0;#P user number~ 40 357 79 372 9 3 3 2 0. 0. 0 0. 250 0. 0 0 0 221 221 221 222 222 222 0 0 0;#P newex 15 375 27 196617 +~;#P newex 15 356 27 196617 +~;#P newex -61 486 32 196617 avg~;#P newex 273 493 63 196617 receive~ hh;#P newex 273 509 71 196617 receive~ kick;#P newex 274 546 27 196617 +~;#P user number~ 301 547 340 562 9 3 3 2 0. 0. 0 0. 250 0. 0 0 0 221 221 221 222 222 222 0 0 0;#P newex 273 527 78 196617 receive~ snare;#P user number~ 308 460 347 475 9 3 3 2 0. 0. 0 0. 250 0. 0 0 0 221 221 221 222 222 222 0 0 0;#P flonum 273 460 35 9 0 0 0 3 0 0 0 221 221 221 222 222 222 0 0 0;#P user multiSlider 305 356 47 85 0. 5. 1 2681 15 0 0 2 0 0 0;#M frgb 0 0 0;#M brgb 255 255 255;#M rgb2 127 127 127;#M rgb3 0 0 0;#M rgb4 37 52 91;#M rgb5 74 105 182;#M rgb6 112 158 18;#M rgb7 149 211 110;#M rgb8 187 9 201;#M rgb9 224 62 37;#M rgb10 7 114 128;#P newex 306 441 27 196617 *~;#P user number~ 299 563 338 578 9 3 3 2 0. 0. 0 0. 250 0. 0 0 0 221 221 221 222 222 222 0 0 0;#P newex 273 562 27 196617 +~;#P user meter~ 274 356 304 461 50 0 168 0 103 103 103 255 153 0 255 0 0 217 217 0 153 186 0 12 3 3 3 3;#P newex 407 493 90 196617 receive~ sample3;#P newex 407 510 90 196617 receive~ sample4;#P newex 405 578 27 196617 +~;#P user number~ 432 577 471 592 9 3 3 2 0. 0. 0 0. 250 0. 0 0 0 221 221 221 222 222 222 0 0 0;#P newex 407 525 90 196617 receive~ sample1;#P newex 407 543 90 196617 receive~ sample2;#P newex 406 561 27 196617 +~;#P user number~ 432 560 471 575 9 3 3 2 0. 0. 0 0. 250 0. 0 0 0 221 221 221 222 222 222 0 0 0;#P user number~ 182 464 221 479 9 3 3 2 0. 0. 0 0. 250 0. 0 0 0 221 221 221 222 222 222 0 0 0;#P flonum 140 464 41 9 0 0 0 3 0 0 0 221 221 221 222 222 222 0 0 0;#P user multiSlider 184 356 48 92 0. 1. 1 2681 15 0 0 2 0 0 0;#M frgb 0 0 0;#M brgb 255 255 255;#M rgb2 127 127 127;#M rgb3 0 0 0;#M rgb4 37 52 91;#M rgb5 74 105 182;#M rgb6 112 158 18;#M rgb7 149 211 110;#M rgb8 187 9 201;#M rgb9 224 62 37;#M rgb10 7 114 128;#P newex 182 449 27 196617 *~;#P user number~ 444 459 483 474 9 3 3 2 0. 0. 0 0. 250 0. 0 0 0 221 221 221 222 222 222 0 0 0;#P flonum 408 460 35 9 0 0 0 3 0 0 0 221 221 221 222 222 222 0 0 0;#P user multiSlider 440 355 47 85 0. 2. 1 2681 15 0 0 2 0 0 0;#M frgb 0 0 0;#M brgb 255 255 255;#M rgb2 127 127 127;#M rgb3 0 0 0;#M rgb4 37 52 91;#M rgb5 74 105 182;#M rgb6 112 158 18;#M rgb7 149 211 110;#M rgb8 187 9 201;#M rgb9 224 62 37;#M rgb10 7 114 128;#P newex 441 442 27 196617 *~;#P user number~ 432 596 471 611 9 3 3 2 0. 0. 0 0. 250 0. 0 0 0 221 221 221 222 222 222 0 0 0;#P newex 406 596 27 196617 +~;#P user meter~ 142 355 182 460 50 0 168 0 103 103 103 255 153 0 255 0 0 217 217 0 153 186 0 12 3 3 3 3;#P user meter~ 410 355 440 460 50 0 168 0 103 103 103 255 153 0 255 0 0 217 217 0 153 186 0 12 3 3 3 3;#P comment -94 279 41 196617 master;#P comment 167 271 34 196617 synth;#P comment 290 266 46 196617 drumkit;#P comment 427 268 48 196617 samples;#P comment 16 277 61 196617 submaster;#P newex 281 56 72 196617 s bangquarter;#P newex 281 39 63 196617 qmetro 500;#P newex 281 123 71 196617 s bangsixteen;#P newex 281 104 63 196617 qmetro 125;#P number 204 57 35 9 0 0 0 3 0 0 0 221 221 221 222 222 222 0 0 0;#P newex 169 57 31 196617 / 16;#P newex 281 -13 64 196617 s bangwhole;#P newex 283 -30 69 196617 qmetro 2000;#P newex 281 21 55 196617 s banghalf;#P newex 168 -41 44 196617 r bang0;#P number 170 119 35 9 0 0 0 3 0 0 0 221 221 221 222 222 222 0 0 0;#P newex 205 104 27 196617 + 1;#P newex 171 72 44 196617 s whole;#P newex 170 134 73 196617 s samplecount;#P flonum 203 22 43 9 0 0 0 3 0 0 0 221 221 221 222 222 222 0 0 0;#P newex 168 23 27 196617 / 2;#P number 170 105 35 9 0 0 0 3 0 0 0 221 221 221 222 222 222 0 0 0;#N counter 3;#X flags 0 0;#P newobj 170 88 66 196617 counter 3;#P flonum 204 7 39 9 0 0 0 3 0 0 0 221 221 221 222 222 222 0 0 0;#P newex 282 4 69 196617 qmetro 1000;#P newex 168 7 27 196617 * 4.;#P slider 113 -42 47 256 50 1;#P message 167 -24 36 196617 60000;#P flonum 203 -9 35 9 0 0 0 3 0 0 0 221 221 221 222 222 222 0 0 0;#P newex 168 -9 27 196617 / 1.;#P window setfont "Arial Black" 36.;#P number 168 167 98 36 0 0 0 12077 0 0 0 221 221 221 222 222 222 0 0 0;#P window setfont "Sans Serif" 9.;#P comment 116 -60 38 196617 BPM;#P newex 261 1138 48 196617 loadbang;#P button 261 1155 41 0;#P newex 323 1170 108 196617 buffer~ 6buf 60000;#P message 323 1155 68 196617 read 6.wav;#P newex 440 1170 108 196617 buffer~ 7buf 60000;#P message 440 1156 68 196617 read 7.wav;#P newex 559 1171 108 196617 buffer~ 8buf 60000;#P message 560 1154 68 196617 read 8.wav;#P newex 670 1173 108 196617 buffer~ 9buf 60000;#P message 669 1157 68 196617 read 9.wav;#P newex 783 1170 113 196617 buffer~ 10buf 60000;#P message 783 1155 73 196617 read 10.wav;#P newex 897 1170 113 196617 buffer~ 11buf 60000;#P message 898 1154 73 196617 read 11.wav;#P newex 324 1138 100 196617 buffer~ 0buf 60000;#P message 324 1123 68 196617 read 0.wav;#P newex 440 1140 100 196617 buffer~ 1buf 60000;#P message 441 1123 68 196617 read 1.wav;#P newex 559 1137 100 196617 buffer~ 2buf 60000;#P message 561 1122 68 196617 read 2.wav;#P newex 669 1137 108 196617 buffer~ 3buf 60000;#P message 670 1120 68 196617 read 3.wav;#P newex 782 1136 108 196617 buffer~ 4buf 60000;#P message 785 1119 68 196617 read 4.wav;#P newex 897 1138 108 196617 buffer~ 5buf 60000;#P message 898 1122 68 196617 read 5.wav;#P newex 324 1203 81 196617 buffer~ hh001;#P message 323 1187 91 196617 read hh.001.wav;#P newex 558 1203 94 196617 buffer~ snare001;#P message 559 1188 109 196617 read snare.001.wav;#P newex 441 1203 88 196617 buffer~ kick001;#P message 441 1188 98 196617 read kick.001.wav;#P newex -96 18 44 196617 s bang0;#P button -102 -36 55 0;#P user scope~ -125 97 104 220 256 3 128 -1. 1. 0 0. 0 0. 102 255 51 135 135 135 0;#P newex -126 77 43 196617 dac~;#P comment -178 -119 25 196617 fjp;#P comment 368 871 100 196617 analyze video;#P comment 293 -67 39 196617 sync;#P comment -127 -48 109 196617 hit me (twice 2 reload);#P button 1348 -63 39 0;#N counter 1;#X flags 0 0;#P newobj 279 141 51 196617 counter 1;#P window linecount 2;#P comment -151 -119 160 196617 * PERPETUAL MACHINE * BitForms - Columbia GSAPP 2006;#P connect 417 0 7 0;#P connect 430 0 7 0;#P connect 417 0 8 0;#P connect 117 0 115 0;#P fasten 116 0 415 0 -80 338 -112 338;#P fasten 116 0 112 0 -80 338 -112 338;#P connect 113 0 114 0;#P connect 555 0 554 0;#P connect 576 0 575 0;#P connect 522 0 523 0;#P connect 546 0 553 0;#P connect 9 0 10 0;#P fasten 417 0 7 1 -120 76 -88 76;#P connect 523 0 536 0;#P connect 542 0 544 0;#P connect 154 0 156 0;#P connect 156 0 158 0;#P connect 544 0 546 0;#P connect 568 0 574 0;#P fasten 116 0 118 0 -80 356 -81 356;#P fasten 414 0 116 0 -112 338 -80 338;#P connect 116 0 117 0;#P connect 536 0 594 0;#P connect 595 0 596 0;#P connect 564 0 566 0;#P connect 158 0 522 0;#P connect 553 0 555 0;#P connect 566 0 568 0;#P fasten 115 0 116 1 -114 342 -63 342;#P connect 107 0 113 0;#P connect 603 0 604 0;#P connect 601 0 604 0;#P connect 554 0 594 1;#P connect 575 0 596 1;#P connect 152 0 107 0;#P connect 416 0 107 0;#P connect 597 0 593 0;#P connect 574 0 576 0;#P connect 594 0 595 0;#P connect 596 0 597 0;#P connect 487 0 430 0;#P connect 543 1 548 0;#P connect 160 0 161 0;#P connect 542 0 543 0;#P connect 548 0 549 0;#P connect 155 1 160 0;#P connect 154 0 155 0;#P connect 604 0 605 0;#P connect 593 0 601 0;#P connect 152 0 153 0;#P connect 564 0 565 0;#P connect 565 1 570 0;#P connect 570 0 571 0;#P connect 531 0 532 0;#P connect 556 0 557 0;#P connect 417 0 665 0;#P connect 681 0 665 0;#P connect 680 0 665 0;#P connect 577 0 578 0;#P connect 670 0 669 0;#P connect 602 0 603 0;#P connect 551 0 552 0;#P connect 162 0 521 0;#P connect 603 0 607 0;#P connect 599 0 607 0;#P connect 592 0 598 0;#P connect 605 0 550 0;#P connect 149 0 108 0;#P connect 108 0 109 0;#P connect 572 0 573 0;#P connect 109 0 413 0;#P connect 532 0 589 0;#P connect 417 0 665 1;#P connect 590 0 591 0;#P connect 543 3 547 0;#P connect 155 3 159 0;#P connect 521 0 531 0;#P connect 552 0 556 0;#P fasten 150 0 108 1 20 354 37 354;#P fasten 151 0 109 1 20 374 37 374;#P connect 549 0 551 0;#P connect 565 3 569 0;#P connect 598 0 599 0;#P connect 161 0 162 0;#P connect 557 0 589 1;#P connect 607 0 608 0;#P connect 578 0 591 1;#P fasten 108 0 110 0 20 354 45 354;#P connect 109 0 111 0;#P connect 589 0 590 0;#P connect 547 0 551 1;#P connect 573 0 577 0;#P connect 591 0 592 0;#P connect 571 0 572 0;#P connect 608 0 606 0;#P connect 159 0 162 1;#P connect 670 0 665 2;#P connect 542 0 545 0;#P connect 154 0 157 0;#P connect 545 0 558 0;#P connect 559 0 560 0;#P connect 569 0 572 1;#P connect 586 0 588 0;#P connect 157 0 537 0;#P connect 538 0 539 0;#P connect 564 0 567 0;#P connect 600 0 610 0;#P connect 603 0 610 0;#P connect 567 0 579 0;#P connect 561 0 562 0;#P connect 540 0 541 0;#P connect 582 0 583 0;#P connect 580 0 581 0;#P connect 588 0 600 0;#P connect 611 0 609 0;#P connect 558 0 559 0;#P connect 560 0 561 0;#P connect 610 0 611 0;#P connect 537 0 538 0;#P connect 539 0 540 0;#P connect 579 0 580 0;#P connect 584 0 586 0;#P connect 541 0 584 0;#P connect 581 0 582 0;#P connect 583 0 586 1;#P connect 562 0 584 1;#P connect 140 0 143 0;#P fasten 142 0 143 0 177 569 143 569;#P connect 148 0 147 0;#P connect 146 0 141 0;#P connect 84 0 85 0;#P fasten 486 0 126 0 215 480 145 480;#P fasten 476 0 475 0 198 353 147 353;#P fasten 486 0 76 0 215 354 147 354;#P fasten 147 1 140 0 190 569 147 569;#P connect 145 0 140 0;#P connect 586 0 587 0;#P connect 584 0 585 0;#P connect 60 0 47 0;#P fasten 47 0 45 0 172 -10 173 -10;#P connect 46 0 49 0;#P fasten 51 0 54 0 209 34 173 34;#P connect 428 0 44 0;#P fasten 48 0 44 0 118 218 173 218;#P connect 51 0 64 0;#P connect 51 0 622 0;#P fasten 50 0 52 0 287 67 175 67;#P connect 52 0 53 0;#P connect 58 0 59 0;#P connect 59 0 56 0;#P connect 51 0 57 0;#P connect 141 0 142 0;#P fasten 143 0 83 0 143 463 187 463;#P fasten 486 0 86 0 215 448 187 448;#P connect 431 0 84 0;#P connect 144 0 145 0;#P fasten 44 0 45 1 173 -12 190 -12;#P connect 146 0 147 1;#P connect 433 0 431 0;#P fasten 85 0 83 1 145 475 204 475;#P fasten 45 0 46 0 173 3 208 3;#P connect 54 0 55 0;#P connect 49 0 51 0;#P connect 64 0 65 0;#P connect 622 0 623 0;#P connect 53 0 58 0;#P connect 139 0 146 0;#P fasten 475 0 486 0 147 354 215 354;#P connect 429 0 428 0;#P fasten 83 0 486 1 187 448 240 448;#P connect 296 1 298 0;#P connect 305 0 306 0;#P connect 298 0 300 0;#P connect 302 0 303 0;#P connect 42 0 41 0;#P connect 299 0 300 1;#P connect 138 0 473 0;#P connect 482 0 483 0;#P connect 485 0 479 0;#P connect 99 0 100 0;#P connect 102 0 96 0;#P connect 96 0 472 0;#P connect 472 0 132 0;#P connect 137 0 132 0;#P connect 138 0 133 0;#P connect 132 0 135 0;#P fasten 134 0 135 0 310 672 278 672;#P connect 479 0 480 0;#P connect 482 0 480 0;#P fasten 478 0 477 0 330 304 279 304;#P fasten 98 0 95 0 311 458 279 458;#P connect 471 0 127 0;#P connect 106 0 104 0;#P connect 300 0 301 0;#P connect 62 0 1 0;#P connect 62 0 63 0;#P connect 50 0 61 0;#P fasten 60 0 68 0 173 -44 286 -44;#P connect 68 0 69 0;#P fasten 60 0 619 0 173 -44 286 -44;#P connect 619 0 620 0;#P fasten 60 0 66 0 173 -44 286 -44;#P connect 66 0 67 0;#P fasten 60 0 50 0 173 -44 287 -44;#P connect 389 0 357 0;#P connect 357 0 393 0;#P connect 375 0 395 0;#P fasten 60 0 62 0 173 -45 288 -45;#P connect 296 2 299 0;#P connect 303 0 304 0;#P connect 104 0 96 1;#P fasten 105 0 104 1 278 545 296 545;#P fasten 96 0 97 0 278 563 304 563;#P connect 104 0 103 0;#P connect 432 0 99 0;#P fasten 133 0 134 0 278 647 310 647;#P fasten 135 0 98 0 278 460 311 460;#P connect 317 0 305 0;#P fasten 98 0 101 0 311 459 313 459;#P connect 295 0 389 0;#P connect 479 0 482 0;#P connect 473 0 474 0;#P connect 480 1 474 0;#P connect 301 0 302 0;#P connect 304 0 317 0;#P connect 483 0 481 0;#P connect 136 0 137 0;#P connect 481 0 472 1;#P connect 296 3 314 0;#P fasten 100 0 98 1 278 456 328 456;#P fasten 41 0 39 0 266 1117 328 1117;#P fasten 39 0 40 0 328 1184 328 1184;#P fasten 41 0 15 0 266 1116 328 1116;#P fasten 41 0 27 0 266 1117 329 1117;#P fasten 27 0 28 0 329 1129 329 1129;#P fasten 15 0 16 0 328 1200 329 1200;#P connect 434 0 432 0;#P connect 357 0 419 0;#P connect 375 0 420 0;#P connect 484 0 485 0;#P connect 1 0 295 0;#P connect 131 0 138 0;#P connect 474 0 483 1;#P connect 314 0 302 1;#P fasten 46 0 68 1 208 -45 339 -45;#P connect 623 0 619 1;#P fasten 65 0 66 1 209 -45 339 -45;#P fasten 477 0 471 0 279 456 339 456;#P connect 50 0 423 0;#P fasten 55 0 50 1 208 -46 346 -46;#P connect 619 0 621 0;#P fasten 51 0 62 1 209 -46 347 -46;#P connect 62 0 424 0;#P connect 389 0 375 0;#P connect 68 0 422 0;#P connect 66 0 421 0;#P connect 98 0 471 1;#P connect 411 0 296 0;#P connect 313 0 310 0;#P connect 316 0 311 0;#P connect 312 0 309 0;#P fasten 138 0 483 2 335 765 397 765;#P fasten 77 0 129 0 411 608 406 608;#P connect 129 1 120 0;#P connect 125 0 120 0;#P connect 120 0 123 0;#P fasten 122 0 123 0 451 661 407 661;#P connect 258 0 259 0;#P connect 119 0 130 0;#P connect 251 0 252 0;#P connect 253 0 254 0;#P fasten 469 0 468 0 461 301 410 301;#P connect 94 0 92 0;#P fasten 259 0 250 0 409 16 411 16;#P connect 250 0 251 0;#P connect 252 0 253 0;#P connect 254 0 255 0;#P connect 255 0 249 0;#P connect 249 0 262 0;#P connect 90 0 88 0;#P connect 88 0 77 0;#P connect 80 0 81 0;#P fasten 79 0 128 0 446 459 413 459;#P fasten 79 0 75 0 446 459 415 459;#P fasten 93 0 92 1 412 578 427 578;#P connect 89 0 88 1;#P connect 92 0 77 1;#P connect 296 1 312 0;#P connect 296 3 316 0;#P fasten 88 0 87 0 411 561 437 561;#P connect 92 0 91 0;#P fasten 77 0 78 0 411 596 437 596;#P connect 296 2 313 0;#P connect 119 0 121 0;#P connect 261 0 260 0;#P connect 436 0 80 0;#P fasten 25 0 26 0 446 1133 445 1133;#P fasten 41 0 37 0 266 1116 445 1116;#P fasten 37 0 38 0 445 1188 445 1188;#P fasten 470 0 79 0 473 441 446 441;#P fasten 41 0 25 0 266 1116 446 1116;#P fasten 41 0 11 0 266 1118 446 1118;#P fasten 11 0 12 0 446 1217 446 1217;#P connect 260 0 258 0;#P connect 79 0 82 0;#P connect 121 0 122 0;#P connect 130 0 129 1;#P connect 124 0 125 0;#P connect 248 0 266 0;#P connect 435 0 436 0;#P fasten 259 0 246 0 409 16 463 16;#P fasten 81 0 79 1 413 455 463 455;#P connect 264 0 265 0;#P connect 256 0 247 0;#P fasten 245 0 248 0 488 120 465 120;#P fasten 249 0 248 0 411 136 465 136;#P connect 265 0 247 1;#P fasten 468 0 470 0 410 457 473 457;#P connect 263 0 260 2;#P fasten 259 0 243 0 409 17 483 17;#P fasten 246 0 256 0 463 73 484 73;#P fasten 247 0 257 0 465 107 484 107;#P connect 267 0 261 0;#P connect 244 0 245 0;#P fasten 259 0 245 0 409 15 488 15;#P connect 297 1 307 0;#P connect 320 0 321 0;#P connect 412 0 297 0;#P connect 307 0 318 0;#P connect 325 0 323 0;#P fasten 256 0 248 1 484 120 495 120;#P fasten 123 0 470 1 407 457 498 457;#P connect 243 0 244 0;#P connect 308 0 318 1;#P connect 318 0 319 0;#P connect 297 2 308 0;#P connect 321 0 322 0;#P connect 323 0 324 0;#P fasten 257 0 248 2 484 122 525 122;#P connect 319 0 320 0;#P connect 322 0 325 0;#P connect 297 3 315 0;#P fasten 13 0 14 0 564 1190 563 1190;#P fasten 23 0 24 0 566 1133 564 1133;#P fasten 35 0 36 0 565 1190 564 1190;#P fasten 41 0 13 0 266 1119 564 1119;#P fasten 41 0 35 0 266 1118 565 1118;#P fasten 41 0 23 0 266 1118 566 1118;#P connect 315 0 320 1;#P connect 205 0 206 0;#P connect 198 0 199 0;#P connect 200 0 201 0;#P fasten 206 0 197 0 589 14 591 14;#P connect 197 0 198 0;#P connect 199 0 200 0;#P connect 201 0 202 0;#P connect 202 0 196 0;#P connect 196 0 209 0;#P connect 527 0 526 0;#P connect 528 0 529 0;#P connect 530 0 374 0;#P connect 372 0 373 0;#P connect 668 0 372 0;#P fasten 374 0 372 0 606 380 607 380;#P fasten 373 0 390 0 606 502 609 502;#P connect 373 0 392 0;#P connect 373 0 666 0;#P connect 208 0 207 0;#P connect 207 0 205 0;#P connect 195 0 213 0;#P fasten 206 0 193 0 589 14 643 14;#P connect 211 0 212 0;#P connect 203 0 194 0;#P fasten 192 0 195 0 667 118 645 118;#P fasten 196 0 195 0 591 134 645 134;#P connect 529 0 530 0;#P connect 212 0 194 1;#P connect 210 0 207 2;#P connect 526 0 528 0;#P fasten 206 0 190 0 589 15 663 15;#P fasten 193 0 203 0 643 71 664 71;#P fasten 194 0 204 0 645 105 664 105;#P connect 240 0 208 0;#P connect 191 0 192 0;#P fasten 206 0 192 0 589 27 667 27;#P connect 525 0 527 0;#P connect 677 0 372 1;#P connect 392 2 410 0;#P fasten 21 0 22 0 675 1134 674 1134;#P fasten 41 0 33 0 266 1120 674 1120;#P fasten 203 0 195 1 664 118 675 118;#P connect 392 0 408 0;#P connect 392 1 409 0;#P fasten 41 0 21 0 266 1119 675 1119;#P fasten 33 0 34 0 674 1191 675 1191;#P connect 190 0 191 0;#P fasten 204 0 195 2 664 120 705 120;#P connect 655 0 654 0;#P connect 674 0 651 0;#P fasten 652 0 651 0 727 396 723 396;#P connect 656 0 657 0;#P fasten 361 0 362 0 765 564 725 564;#P connect 658 0 652 0;#P connect 651 0 659 0;#P fasten 359 0 360 0 728 587 728 587;#P fasten 400 0 378 0 795 586 728 586;#P fasten 400 1 401 0 810 585 730 585;#P fasten 362 0 358 0 725 585 731 585;#P connect 659 0 660 0;#P connect 659 0 679 0;#P fasten 360 0 361 0 728 586 765 586;#P connect 657 0 658 0;#P connect 230 0 231 0;#P connect 223 0 224 0;#P connect 225 0 226 0;#P fasten 231 0 222 0 771 14 773 14;#P connect 222 0 223 0;#P connect 224 0 225 0;#P connect 226 0 227 0;#P connect 227 0 221 0;#P connect 221 0 234 0;#P connect 654 0 656 0;#P fasten 19 0 20 0 790 1133 787 1133;#P fasten 41 0 31 0 266 1120 788 1120;#P fasten 31 0 32 0 788 1190 788 1190;#P connect 676 0 651 1;#P fasten 41 0 19 0 266 1119 790 1119;#P connect 653 0 655 0;#P fasten 361 0 400 0 765 564 795 564;#P connect 233 0 232 0;#P connect 232 0 230 0;#P connect 220 0 238 0;#P fasten 231 0 218 0 771 14 825 14;#P connect 236 0 237 0;#P connect 228 0 219 0;#P fasten 217 0 220 0 849 118 827 118;#P fasten 221 0 220 0 773 134 827 134;#P connect 237 0 219 1;#P connect 235 0 232 2;#P fasten 231 0 215 0 771 15 845 15;#P fasten 218 0 228 0 825 71 846 71;#P fasten 219 0 229 0 827 105 846 105;#P connect 239 0 233 0;#P connect 216 0 217 0;#P fasten 231 0 217 0 771 13 849 13;#P fasten 228 0 220 1 846 118 857 118;#P connect 215 0 216 0;#P fasten 229 0 220 2 846 120 887 120;#P fasten 17 0 18 0 903 1134 902 1134;#P fasten 29 0 30 0 903 1184 902 1184;#P fasten 41 0 17 0 266 1119 903 1119;#P fasten 41 0 29 0 266 1119 903 1119;#P connect 364 0 369 0;#P fasten 368 0 364 0 1013 495 921 495;#P connect 364 0 667 0;#P connect 489 0 490 0;#P fasten 382 0 376 0 1065 425 923 425;#P connect 396 0 384 0;#P fasten 382 0 379 0 1065 461 923 461;#P connect 418 0 533 0;#P connect 418 0 366 0;#P connect 617 0 427 0;#P connect 534 0 617 0;#P connect 427 0 405 0;#P connect 173 0 174 0;#P connect 175 0 176 0;#P fasten 181 0 172 0 942 13 940 13;#P connect 172 0 173 0;#P connect 174 0 175 0;#P connect 176 0 177 0;#P connect 177 0 171 0;#P connect 171 0 184 0;#P connect 180 0 181 0;#P connect 394 0 490 2;#P connect 489 0 491 0;#P connect 662 0 661 0;#P connect 534 0 662 0;#P connect 661 0 406 0;#P connect 183 0 182 0;#P connect 182 0 180 0;#P fasten 381 0 366 1 999 459 978 459;#P fasten 376 0 377 0 923 422 981 422;#P connect 384 0 492 0;#P connect 491 0 418 0;#P connect 170 0 188 0;#P fasten 366 0 367 0 924 462 989 462;#P fasten 181 0 168 0 942 13 992 13;#P connect 186 0 187 0;#P connect 178 0 169 0;#P fasten 167 0 170 0 1016 117 994 117;#P fasten 171 0 170 0 940 133 994 133;#P connect 396 0 491 2;#P fasten 380 0 381 0 1024 478 999 478;#P connect 187 0 169 1;#P connect 185 0 182 2;#P fasten 363 0 371 0 1016 493 1005 493;#P connect 488 0 489 0;#P fasten 181 0 165 0 942 11 1011 11;#P fasten 169 0 179 0 993 104 1012 104;#P fasten 168 0 178 0 992 70 1013 70;#P connect 363 0 368 0;#P fasten 407 0 368 0 1020 348 1013 348;#P fasten 406 0 368 0 972 349 1013 349;#P fasten 405 0 368 0 928 368 1013 368;#P connect 371 0 672 0;#P connect 241 0 183 0;#P connect 166 0 167 0;#P fasten 181 0 167 0 942 11 1016 11;#P fasten 377 0 370 0 981 440 1016 440;#P connect 533 0 363 0;#P connect 365 0 363 0;#P fasten 379 0 363 0 923 497 1016 497;#P fasten 370 0 363 0 1016 493 1016 493;#P connect 492 0 385 0;#P connect 426 0 407 0;#P connect 618 0 426 0;#P fasten 178 0 170 1 1013 117 1024 117;#P fasten 382 0 380 0 1065 457 1024 457;#P fasten 363 1 380 0 1072 495 1024 495;#P connect 425 0 618 0;#P connect 165 0 166 0;#P fasten 367 0 365 0 989 457 1035 457;#P fasten 385 0 391 0 1018 464 1048 464;#P fasten 179 0 170 2 1012 119 1054 119;#P connect 490 0 382 0;#P fasten 363 1 383 0 1072 495 1080 495;#P connect 391 0 386 0;#P connect 331 0 335 0;#P connect 440 0 342 0;#P connect 339 0 342 0;#P connect 335 0 339 0;#P connect 336 0 341 0;#P connect 338 0 340 0;#P connect 341 0 340 0;#P connect 346 0 347 0;#P connect 331 0 350 0;#P connect 351 0 346 0;#P connect 326 0 354 0;#P fasten 329 0 332 0 1109 25 1108 25;#P connect 346 0 326 0;#P fasten 328 0 329 0 1121 9 1109 9;#P connect 437 0 328 0;#P connect 330 0 326 1;#P connect 333 0 330 0;#P connect 333 0 346 1;#P fasten 332 0 331 0 1108 27 1138 27;#P connect 339 0 336 0;#P connect 340 0 333 0;#P connect 333 0 334 0;#P connect 438 0 437 0;#P connect 352 0 356 0;#P connect 467 0 330 1;#P fasten 331 0 338 0 1138 43 1167 43;#P connect 344 0 345 0;#P connect 326 0 349 0;#P connect 612 0 402 0;#P connect 517 0 518 0;#P connect 333 1 337 0;#P fasten 507 0 502 0 1320 424 1179 424;#P connect 514 0 509 0;#P connect 350 0 351 0;#P connect 515 0 496 0;#P connect 499 0 671 0;#P fasten 507 0 504 0 1320 460 1181 460;#P connect 663 0 493 0;#P fasten 500 0 493 0 1272 491 1181 491;#P fasten 504 0 493 0 1181 495 1181 495;#P connect 495 0 493 0;#P connect 494 0 499 0;#P connect 355 0 437 2;#P connect 515 0 663 0;#P fasten 498 0 494 0 1273 494 1182 494;#P fasten 440 0 466 0 1228 48 1184 48;#P connect 343 0 335 1;#P connect 535 0 612 0;#P fasten 440 0 350 1 1228 47 1189 47;#P connect 439 0 438 0;#P connect 342 0 343 0;#P connect 330 0 348 0;#P connect 397 0 425 0;#P connect 513 0 518 2;#P connect 328 0 344 0;#P connect 517 0 519 0;#P connect 345 0 336 1;#P connect 466 0 467 0;#P connect 353 0 440 0;#P connect 356 0 344 1;#P fasten 506 0 496 1 1255 458 1234 458;#P fasten 502 0 503 0 1179 421 1237 421;#P connect 509 0 520 0;#P connect 519 0 515 0;#P fasten 496 0 497 0 1180 461 1245 461;#P connect 398 0 534 0;#P fasten 493 1 508 0 1237 491 1248 491;#P connect 514 0 519 2;#P connect 534 0 614 0;#P connect 613 0 403 0;#P fasten 493 0 501 0 1181 491 1254 491;#P fasten 505 0 506 0 1280 477 1255 477;#P connect 501 0 673 0;#P connect 516 0 517 0;#P fasten 503 0 500 0 1237 439 1272 439;#P connect 402 0 498 0;#P connect 404 0 498 0;#P connect 403 0 498 0;#P fasten 493 0 498 0 1181 506 1273 506;#P connect 520 0 510 0;#P fasten 493 1 505 0 1237 493 1280 493;#P fasten 507 0 505 0 1320 456 1280 456;#P connect 614 0 613 0;#P connect 399 0 535 0;#P fasten 497 0 495 0 1245 456 1291 456;#P connect 289 0 277 0;#P connect 277 0 291 0;#P connect 290 0 291 0;#P connect 291 0 293 0;#P connect 271 0 278 0;#P connect 443 0 442 0;#P connect 273 0 272 0;#P connect 272 0 271 0;#P connect 293 0 273 0;#P fasten 510 0 512 0 1274 463 1304 463;#P connect 615 0 404 0;#P connect 518 0 507 0;#P connect 535 0 616 0;#P connect 271 0 279 0;#P connect 512 0 511 0;#P connect 291 1 292 0;#P connect 441 0 2 0;#P fasten 442 0 441 0 1302 8 1353 8;#P connect 276 0 289 0;#P connect 2 0 290 0;#P connect 616 0 615 0;#P fasten 277 0 441 2 1300 9 1383 9;#P connect 647 0 648 0;#P fasten 637 0 632 0 1558 429 1417 429;#P connect 644 0 639 0;#P connect 645 0 627 0;#P fasten 637 0 634 0 1558 465 1419 465;#P fasten 387 0 625 0 1508 501 1419 501;#P connect 625 0 629 0;#P connect 625 0 675 0;#P connect 664 0 624 0;#P connect 626 0 624 0;#P fasten 634 0 624 0 1419 500 1421 500;#P fasten 630 0 624 0 1510 496 1421 496;#P connect 645 0 664 0;#P connect 280 0 282 0;#P connect 451 0 281 0;#P connect 269 0 280 0;#P connect 447 0 446 0;#P connect 446 0 449 0;#P connect 448 0 449 0;#P connect 281 0 269 0;#P connect 449 0 451 0;#P connect 454 0 453 0;#P connect 643 0 648 2;#P connect 280 0 283 0;#P connect 647 0 649 0;#P connect 449 1 450 0;#P fasten 636 0 627 1 1493 463 1472 463;#P fasten 632 0 633 0 1417 426 1475 426;#P connect 639 0 650 0;#P connect 452 0 444 0;#P fasten 453 0 452 0 1432 7 1483 7;#P fasten 627 0 628 0 1418 466 1483 466;#P connect 649 0 645 0;#P connect 445 0 447 0;#P connect 444 0 448 0;#P fasten 624 1 638 0 1477 517 1487 517;#P connect 644 0 649 2;#P fasten 624 0 631 0 1421 517 1492 517;#P fasten 635 0 636 0 1518 482 1493 482;#P connect 631 0 678 0;#P connect 646 0 647 0;#P fasten 388 0 387 0 1557 350 1508 350;#P connect 624 0 387 0;#P fasten 633 0 630 0 1475 444 1510 444;#P connect 650 0 640 0;#P fasten 446 0 452 2 1430 8 1513 8;#P fasten 624 1 635 0 1477 498 1518 498;#P fasten 637 0 635 0 1558 461 1518 461;#P fasten 628 0 626 0 1483 461 1529 461;#P fasten 640 0 642 0 1512 468 1542 468;#P connect 524 0 388 0;#P connect 648 0 637 0;#P connect 534 0 524 0;#P connect 458 0 457 0;#P connect 457 0 460 0;#P connect 459 0 460 0;#P connect 460 0 462 0;#P connect 286 0 285 0;#P connect 284 0 287 0;#P connect 465 0 464 0;#P connect 462 0 286 0;#P connect 285 0 284 0;#P connect 642 0 641 0;#P connect 284 0 288 0;#P connect 460 1 461 0;#P connect 463 0 455 0;#P fasten 464 0 463 0 1574 6 1625 6;#P connect 456 0 458 0;#P connect 455 0 459 0;#P fasten 457 0 463 2 1572 7 1655 7;#P pop;