max v2;#N vpatcher 21 44 983 712;#P origin -48 -121;#P window setfont "Sans Serif" 9.;#P window linecount 1;#P message 229 199 35 196617 write;#P message 232 218 29 196617 stop;#P newex 1048 640 63 196617 s videoOut4;#P user jit.fpsgui 1763 739 60 196617 0;#P newex 965 512 63 196617 r videoOut4;#P newex 1079 516 63 196617 r videoOut3;#P newex 1678 779 63 196617 s videoOut3;#P newex 1030 517 63 196617 r videoOut2;#P user jit.fpsgui 1522 727 60 196617 0;#P user jit.fpsgui 1275 719 60 196617 0;#P newex 1444 773 63 196617 s videoOut2;#P newex 164 197 38 196617 r final;#P user jit.pwindow 168 95 113 87 0 1 0 0 1 0;#P newex 906 510 63 196617 r videoOut1;#P newex 1202 743 63 196617 s videoOut1;#P newex 931 694 38 196617 s final;#P newex 162 216 82 196617 jit.vcr 640 480;#P newex 1686 648 57 196617 qmetro 30;#P newex 1444 657 57 196617 qmetro 30;#P newex 1241 447 35 196617 * 15.;#P flonum 1240 464 35 9 0 0 0 3 0 0 0 221 221 221 222 222 222 0 0 0;#P user jit.fpsgui 1043 612 60 196617 0;#P user jit.pwindow 1036 557 72 53 0 1 0 0 1 0;#P flonum 1075 479 35 9 0 0 0 3 0 0 0 221 221 221 222 222 222 0 0 0;#P newex 1033 479 40 196617 / 100.;#P number 1092 460 35 9 0 0 0 3 0 0 0 221 221 221 222 222 222 0 0 0;#P button 1104 444 15 0;#P newex 1031 462 58 196617 random 25;#P newex 1033 443 60 196617 r bangeight;#P message 1036 497 45 196617 xfade \$1;#P newex 1032 538 77 196617 jit.xfade;#P number 1738 591 35 9 0 0 0 3 0 0 0 221 221 221 222 222 222 0 0 0;#P user gswitch 1722 521 41 32 1 0;#P user gswitch 1678 523 41 32 1 0;#P toggle 1766 519 54 0;#P newex 1677 500 44 196617 r bang0;#P button 1746 648 17 0;#P newex 1679 555 60 196617 r bangeight;#P newex 1724 500 44 196617 r bang1;#P number 1804 592 35 9 0 0 0 3 0 0 0 221 221 221 222 222 222 0 0 0;#P message 1838 592 44 196617 rate \$1;#P newex 1774 591 30 196617 - 15;#P newex 1679 592 58 196617 random 30;#P newex 1749 665 63 196617 print ameba;#P button 1820 520 53 0;#P number 1755 628 35 9 0 0 0 3 0 0 0 221 221 221 222 222 222 0 0 0;#P newex 1780 612 88 196617 route framecount;#P message 1681 629 75 196617 getframecount;#P number 1737 574 35 9 0 0 0 3 0 0 0 221 221 221 222 222 222 0 0 0;#P newex 1679 573 58 196617 random 14;#P user jit.pwindow 1753 681 76 58 0 1 0 0 1 0;#P message 1772 575 67 196617 read \$1.mov;#P user jit.fpsgui 1687 738 60 196617 0;#P number 1745 612 32 9 0 0 0 3 0 0 0 221 221 221 222 222 222 0 0 0;#P newex 1680 611 64 196617 random 100;#P message 1791 629 57 196617 frame \$1;#P user jit.pwindow 1680 683 72 53 0 1 0 0 1 0;#P newex 1683 666 66 196617 jit.qt.movie;#P number 384 180 35 9 0 0 0 3 0 0 0 221 221 221 222 222 222 0 0 0;#P newex 349 180 27 196617 / 8;#P button 520 230 15 0;#P newex 460 229 60 196617 s bangeight;#P newex 460 213 63 196617 qmetro 250;#P newex 1297 444 27 196617 / 5.;#P newex 1196 445 35 196617 * 15.;#P newex 1590 449 35 196617 * 3.5;#P flonum 1623 449 35 9 0 0 0 3 0 0 0 221 221 221 222 222 222 0 0 0;#P newex 1515 450 29 196617 * 5.;#P flonum 1549 452 35 9 0 0 0 3 0 0 0 221 221 221 222 222 222 0 0 0;#P flonum 1449 450 35 9 0 0 0 3 0 0 0 221 221 221 222 222 222 0 0 0;#P flonum 282 1328 35 9 0 0 0 3 0 0 0 221 221 221 222 222 222 0 0 0;#P newex 250 1328 31 196617 bline;#P newex 274 1344 45 196617 s bright;#P flonum 214 1327 35 9 0 0 0 3 0 0 0 221 221 221 222 222 222 0 0 0;#P newex 181 1326 31 196617 bline;#P newex 229 1345 40 196617 s pitch;#P flonum 145 1327 35 9 0 0 0 3 0 0 0 221 221 221 222 222 222 0 0 0;#P newex 114 1325 31 196617 bline;#P button 171 1345 15 0;#P newex 124 1347 44 196617 r bang1;#P flonum 146 1309 35 9 0 0 0 3 0 0 0 221 221 221 222 222 222 0 0 0;#P flonum 273 1310 35 9 0 0 0 3 0 0 0 221 221 221 222 222 222 0 0 0;#P flonum 211 1310 35 9 0 0 0 3 0 0 0 221 221 221 222 222 222 0 0 0;#P newex 182 1309 27 196617 / 3.;#P flonum 127 1292 35 9 0 0 0 3 0 0 0 221 221 221 222 222 222 0 0 0;#P newex 100 1292 27 196617 + 0.;#P flonum 126 1202 35 9 0 0 0 3 0 0 0 221 221 221 222 222 222 0 0 0;#P newex 99 1201 27 196617 + 0.;#P newex 119 1308 27 196617 / 3.;#P flonum 228 1290 35 9 0 0 0 3 0 0 0 221 221 221 222 222 222 0 0 0;#P newex 199 1289 27 196617 + 0.;#P flonum 225 1202 35 9 0 0 0 3 0 0 0 221 221 221 222 222 222 0 0 0;#P newex 197 1202 27 196617 + 0.;#P newex 246 1309 27 196617 / 3.;#P flonum 324 1290 35 9 0 0 0 3 0 0 0 221 221 221 222 222 222 0 0 0;#P newex 297 1289 27 196617 + 0.;#P flonum 326 1202 35 9 0 0 0 3 0 0 0 221 221 221 222 222 222 0 0 0;#P newex 298 1202 27 196617 + 0.;#P flonum 263 1290 35 9 0 0 0 3 0 0 0 221 221 221 222 222 222 0 0 0;#P newex 305 1273 34 196617 / 10.;#P flonum 269 1273 35 9 0 0 0 3 0 0 0 221 221 221 222 222 222 0 0 0;#P newex 292 1256 40 196617 / 500.;#P number 257 1256 35 9 0 0 0 3 0 0 0 221 221 221 222 222 222 0 0 0;#P flonum 162 1291 35 9 0 0 0 3 0 0 0 221 221 221 222 222 222 0 0 0;#P newex 228 1272 40 196617 / 200.;#P newex 124 1275 34 196617 / 10.;#P flonum 65 1291 35 9 0 0 0 3 0 0 0 221 221 221 222 222 222 0 0 0;#P newex 90 1273 37 196617 abs 1.;#P flonum 194 1274 35 9 0 0 0 3 0 0 0 221 221 221 222 222 222 0 0 0;#P newex 229 1256 27 196617 +;#P number 159 1274 35 9 0 0 0 3 0 0 0 221 221 221 222 222 222 0 0 0;#P newex 158 1256 70 196617 unpack 0 0 0;#P flonum 211 1241 35 9 0 0 0 3 0 0 0 221 221 221 222 222 222 0 0 0;#P flonum 106 1259 52 9 0 0 0 3 0 0 0 221 221 221 222 222 222 0 0 0;#P newex 247 1239 63 196617 brightness~;#P newex 103 1240 54 196617 loudness~;#P newex 158 1239 53 196617 pitch~;#P newex 159 1220 91 196617 receive~ synthsig;#P comment 155 1006 70 196617 analyze audio;#P flonum 261 1202 35 9 0 0 0 3 0 0 0 221 221 221 222 222 222 0 0 0;#P newex 282 1185 34 196617 / 10.;#P flonum 246 1185 35 9 0 0 0 3 0 0 0 221 221 221 222 222 222 0 0 0;#P newex 282 1168 40 196617 / 500.;#P number 246 1167 35 9 0 0 0 3 0 0 0 221 221 221 222 222 222 0 0 0;#P flonum 161 1201 35 9 0 0 0 3 0 0 0 221 221 221 222 222 222 0 0 0;#P newex 210 1183 40 196617 / 200.;#P newex 105 1182 34 196617 / 10.;#P flonum 62 1203 35 9 0 0 0 3 0 0 0 221 221 221 222 222 222 0 0 0;#P newex 68 1184 37 196617 abs 1.;#P flonum 175 1184 35 9 0 0 0 3 0 0 0 221 221 221 222 222 222 0 0 0;#P newex 211 1166 27 196617 +;#P newex 187 1345 36 196617 s loud;#P number 142 1184 35 9 0 0 0 3 0 0 0 221 221 221 222 222 222 0 0 0;#P newex 140 1166 70 196617 unpack 0 0 0;#P flonum 208 1149 35 9 0 0 0 3 0 0 0 221 221 221 222 222 222 0 0 0;#P flonum 89 1167 52 9 0 0 0 3 0 0 0 221 221 221 222 222 222 0 0 0;#P newex 245 1150 63 196617 brightness~;#P newex 86 1150 54 196617 loudness~;#P newex 141 1149 65 196617 pitch~;#P newex 142 1132 101 196617 receive~ drumkitsig;#P flonum 263 1116 35 9 0 0 0 3 0 0 0 221 221 221 222 222 222 0 0 0;#P newex 283 1100 34 196617 / 10.;#P flonum 247 1099 35 9 0 0 0 3 0 0 0 221 221 221 222 222 222 0 0 0;#P newex 283 1082 40 196617 / 500.;#P number 247 1081 35 9 0 0 0 3 0 0 0 221 221 221 222 222 222 0 0 0;#P flonum 86 1114 35 9 0 0 0 3 0 0 0 221 221 221 222 222 222 0 0 0;#P flonum 1552 423 35 9 0 0 0 3 0 0 0 221 221 221 222 222 222 0 0 0;#P flonum 1509 424 35 9 0 0 0 3 0 0 0 221 221 221 222 222 222 0 0 0;#P newex 1185 642 57 196617 qmetro 30;#P flonum 160 1115 35 9 0 0 0 3 0 0 0 221 221 221 222 222 222 0 0 0;#P newex 210 1097 40 196617 / 200.;#P flonum 954 479 35 9 0 0 0 3 0 0 0 221 221 221 222 222 222 0 0 0;#P newex 915 478 40 196617 / 100.;#P number 971 461 35 9 0 0 0 3 0 0 0 221 221 221 222 222 222 0 0 0;#P button 983 445 15 0;#P newex 910 463 64 196617 random 120;#P newex 912 444 60 196617 r bangeight;#P flonum 1829 487 35 9 0 0 0 3 0 0 0 221 221 221 222 222 222 0 0 0;#P newex 67 1094 34 196617 / 10.;#P newex 104 1095 37 196617 abs 1.;#P flonum 176 1098 35 9 0 0 0 3 0 0 0 221 221 221 222 222 222 0 0 0;#P number 1500 586 35 9 0 0 0 3 0 0 0 221 221 221 222 222 222 0 0 0;#P user gswitch 1484 516 41 32 1 0;#P user gswitch 1440 518 41 32 1 0;#P toggle 1528 514 54 0;#P newex 1439 495 44 196617 r bang0;#P button 1503 657 15 0;#P newex 1441 550 60 196617 r bangeight;#P newex 1486 495 44 196617 r bang1;#P number 1566 587 35 9 0 0 0 3 0 0 0 221 221 221 222 222 222 0 0 0;#P message 1600 587 44 196617 rate \$1;#P newex 1536 586 30 196617 - 15;#P newex 1441 587 58 196617 random 30;#P newex 1510 639 63 196617 print ameba;#P button 1582 515 53 0;#P number 1517 623 35 9 0 0 0 3 0 0 0 221 221 221 222 222 222 0 0 0;#P newex 1542 607 88 196617 route framecount;#P message 1443 624 75 196617 getframecount;#P number 1499 569 35 9 0 0 0 3 0 0 0 221 221 221 222 222 222 0 0 0;#P newex 1441 568 58 196617 random 11;#P user jit.pwindow 1515 673 72 50 0 1 0 0 1 0;#P message 1534 570 67 196617 read \$1.mov;#P user jit.fpsgui 1443 729 60 196617 0;#P newex 1535 492 54 196617 jit.brcosa;#P number 1507 607 32 9 0 0 0 3 0 0 0 221 221 221 222 222 222 0 0 0;#P newex 1442 606 64 196617 random 100;#P message 1553 624 57 196617 frame \$1;#P user jit.pwindow 1443 673 72 53 0 1 0 0 1 0;#P newex 1443 639 66 196617 jit.qt.movie;#P number 1251 588 35 9 0 0 0 3 0 0 0 221 221 221 222 222 222 0 0 0;#P user gswitch 1235 518 41 32 1 0;#P user gswitch 1191 520 41 32 1 0;#P toggle 1279 516 54 0;#P newex 1190 497 44 196617 r bang0;#P newex 97 218 44 196617 r bang0;#P newex 389 589 35 196617 gate~;#P button 507 825 15 0;#P newex 451 825 55 196617 r banghalf;#P newex 449 898 132 196617 if $i1==0 then $i2 else $i3;#P number 490 843 35 9 0 0 0 3 0 0 0 221 221 221 222 222 222 0 0 0;#P number 494 863 55 9 0 0 0 3 0 0 0 221 221 221 222 222 222 0 0 0;#P newex 452 861 41 196617 sel 0 1;#P newex 451 843 38 196617 decide;#P newex 504 447 44 196617 r bang0;#P toggle 453 446 51 0;#P newex 372 445 44 196617 r bang0;#P toggle 321 445 51 0;#P number 492 882 52 9 0 0 0 3 0 0 0 221 221 221 222 222 222 0 0 0;#P newex 449 880 42 196617 - 3000;#P newex 452 751 56 196617 freqshift~;#P newex 513 583 35 196617 gate~;#P newex 647 582 35 196617 gate~;#P newex 635 444 44 196617 r bang0;#P toggle 584 443 51 0;#P flonum 1399 313 35 9 0 0 0 3 0 0 0 221 221 221 222 222 222 0 0 0;#P newex 1358 311 40 196617 / 100.;#P newex 1755 78 44 196617 r bang0;#P toggle 1748 97 51 0;#P user gswitch 1799 117 41 32 1 0;#P button 1747 202 39 0;#P button 1785 202 39 0;#P newex 1746 185 55 196617 select 0 1;#P newex 1803 185 38 196617 decide;#P number 1803 150 35 9 0 0 0 3 0 0 0 221 221 221 222 222 222 0 0 0;#P newex 1746 167 103 196617 if $i1>100 then bang;#P newex 1746 148 59 196617 r bluemean;#P button 1799 76 39 0;#P newex 1613 79 44 196617 r bang0;#P toggle 1606 98 51 0;#P user gswitch 1657 118 41 32 1 0;#P button 1605 203 39 0;#P button 1643 203 39 0;#P newex 1604 186 55 196617 select 0 1;#P newex 1661 186 38 196617 decide;#P number 1661 151 35 9 0 0 0 3 0 0 0 221 221 221 222 222 222 0 0 0;#P newex 1604 168 103 196617 if $i1>100 then bang;#P newex 1604 149 66 196617 r greenmean;#P button 1657 77 39 0;#P newex 1483 80 44 196617 r bang0;#P toggle 1476 99 51 0;#P user gswitch 1527 119 41 32 1 0;#P flonum 1402 171 35 9 0 0 0 3 0 0 0 221 221 221 222 222 222 0 0 0;#P newex 1308 83 44 196617 r bang0;#P toggle 1366 99 51 0;#P user gswitch 1326 101 41 32 1 0;#P message 636 479 31 196617 0.85;#P newex 636 460 48 196617 loadbang;#P newex 505 464 48 196617 loadbang;#P newex 373 462 48 196617 loadbang;#P message 505 482 31 196617 0.75;#P message 373 480 31 196617 0.35;#P toggle 140 218 15 0;#P newex 346 291 48 196617 loadbang;#P message 395 292 26 196617 120;#P flonum 1195 463 35 9 0 0 0 3 0 0 0 221 221 221 222 222 222 0 0 0;#P flonum 1292 463 35 9 0 0 0 3 0 0 0 221 221 221 222 222 222 0 0 0;#P flonum 1469 424 35 9 0 0 0 3 0 0 0 221 221 221 222 222 222 0 0 0;#P button 526 129 15 0;#P button 517 164 15 0;#P button 532 198 15 0;#P button 532 264 15 0;#P button 507 339 15 0;#P button 507 323 15 0;#P button 1244 643 15 0;#P button 774 444 15 0;#P button 771 698 15 0;#P newex 54 199 85 196617 receive~ master;#P newex 61 610 85 196617 receive~ master;#P newex 62 463 71 196617 send~ master;#P newex 62 445 100 196617 receive~ submaster;#P newex 195 534 86 196617 send~ submaster;#P newex 664 1052 38 196617 r 3m3;#P newex 549 1036 38 196617 r 3m2;#P newex 983 677 38 196617 s 3m3;#P newex 984 661 38 196617 s 3m2;#P newex 984 643 38 196617 s 3m1;#P message 1289 482 43 196617 gain \$1;#P message 1241 480 31 196617 y \$1;#P message 1197 480 31 196617 x \$1;#P message 1580 469 71 196617 saturation \$1;#P message 1515 470 63 196617 contrast \$1;#P message 1440 469 72 196617 brightness \$1;#P window linecount 2;#P message 925 819 95 196617 \; max hidemenubar;#P window linecount 1;#P newex 990 766 41 196617 sel 0 1;#P newex 1549 405 40 196617 r pitch;#P newex 1502 406 45 196617 r bright;#P newex 1465 406 36 196617 r loud;#P newex 1192 552 72 196617 r bangquarter;#P newex 461 338 44 196617 s bang2;#P newex 1237 497 44 196617 r bang1;#P newex 461 321 44 196617 s bang1;#P newex 922 675 53 196617 jit.3m;#P number 1317 589 35 9 0 0 0 3 0 0 0 221 221 221 222 222 222 0 0 0;#P user jit.fpsgui 918 642 60 196617 0;#P number 490 301 35 9 0 0 0 3 0 0 0 221 221 221 222 222 222 0 0 0;#P message 1819 501 54 196617 thresh \$1;#P newex 1770 500 47 196617 jit.sobel;#B color 5;#P message 1351 589 44 196617 rate \$1;#P newex 1287 588 30 196617 - 15;#P newex 1192 589 58 196617 random 30;#P newex 1342 643 63 196617 print ameba;#P button 1334 516 53 0;#P number 1268 625 35 9 0 0 0 3 0 0 0 221 221 221 222 222 222 0 0 0;#P newex 1293 609 88 196617 route framecount;#P message 1192 625 75 196617 getframecount;#P window linecount 2;#P message 923 789 100 196617 \; max showmenubar;#P number 1250 571 35 9 0 0 0 3 0 0 0 221 221 221 222 222 222 0 0 0;#P window linecount 1;#P newex 1192 570 58 196617 random 11;#P newex 526 300 28 196617 sel 2;#P message 915 496 45 196617 xfade \$1;#P user jit.pwindow 914 555 113 87 0 1 0 0 1 0;#P newex 916 531 77 196617 jit.xfade;#P user jit.pwindow 1266 659 77 58 0 1 0 0 1 0;#P message 1285 572 67 196617 read \$1.mov;#P user jit.fpsgui 1194 714 60 196617 0;#P newex 1282 496 58 196617 jit.ameba;#P number 1258 609 32 9 0 0 0 3 0 0 0 221 221 221 222 222 222 0 0 0;#P newex 1193 608 64 196617 random 100;#P message 1304 626 57 196617 frame \$1;#P user jit.pwindow 1182 660 84 55 0 1 0 0 1 0;#P newex 1278 643 66 196617 jit.qt.movie;#P message 920 766 68 196617 fullscreen \$1;#P toggle 960 729 33 0;#P newex 923 729 35 196617 sel 27;#P newex 923 746 30 196617 key;#P newex 926 849 94 196617 jit.window whodat;#P newex 461 301 28 196617 sel 1;#P number 1328 135 35 9 0 0 0 3 0 0 0 221 221 221 222 222 222 0 0 0;#P newex 1353 82 64 196617 r bangwhole;#P newex 1280 346 92 196617 send~ subsynthsig;#P newex 1342 170 56 196617 r rgbmean;#P newex 1283 134 44 196617 r whole;#P flonum 1354 276 35 9 0 0 0 3 0 0 0 221 221 221 222 222 222 0 0 0;#P newex 1280 258 93 196617 if $i1==1 then $i2;#P user number~ 1351 330 1390 345 9 3 3 2 0. 0. 0 0. 250 1318926976. 0 0 0 221 221 221 222 222 222 0 0 0;#P user number~ 1373 346 1412 361 9 3 3 2 0. 0. 0 0. 250 1318926976. 0 0 0 221 221 221 222 222 222 0 0 0;#P user number~ 1279 313 1318 328 9 3 3 2 0. 0. 0 0. 250 0. 0 0 0 221 221 221 222 222 222 0 0 0;#P newex 1280 296 40 196617 cycle~;#P flonum 1349 152 37 9 0 0 0 3 0 0 0 221 221 221 222 222 222 0 0 0;#P newex 1387 151 30 196617 * 1.5;#P flonum 1372 207 35 9 0 0 0 3 0 0 0 221 221 221 222 222 222 0 0 0;#P newex 1278 190 134 196617 if $i1 < 80 then 80 else $i1;#P newex 1279 239 62 196617 prepend set;#P message 1279 277 75 196617 80 \, 80 0;#P flonum 1278 224 35 9 0 0 0 3 0 0 0 221 221 221 222 222 222 0 0 0;#P newex 1341 240 32 196617 sel 1;#P button 1353 291 21 0;#P newex 1313 223 96 196617 sprintf %i\\\, 80 %i;#P newex 1277 206 93 196617 if $i1==1 then $i2;#P user number~ 1320 312 1358 327 9 3 3 2 0. 0. 0 0. 250 0. 0 0 0 221 221 221 222 222 222 0 0 0;#P newex 1319 295 32 196617 line~;#P newex 1282 171 27 196617 + 1;#P number 1312 171 27 9 0 0 0 3 0 0 0 221 221 221 222 222 222 0 0 0;#P newex 1308 328 41 196617 phasor~;#N counter 1;#X flags 0 0;#P newobj 1283 151 66 196617 counter 1;#P button 1295 101 32 0;#P comment 1309 60 37 196617 synth;#P newex 1282 328 27 196617 *~;#P number 758 772 35 9 0 0 0 3 0 0 0 221 221 221 222 222 222 0 0 0;#P newex 705 771 52 196617 random 3;#P newex 706 697 64 196617 r bangwhole;#P number 757 754 35 9 0 0 0 3 0 0 0 221 221 221 222 222 222 0 0 0;#P number 755 734 35 9 0 0 0 3 0 0 0 221 221 221 222 222 222 0 0 0;#P newex 705 753 52 196617 r ameba2;#P newex 705 733 52 196617 r ameba1;#P newex 709 846 48 196617 s video3;#P newex 711 822 69 196617 pack 0 0 0 0.;#P newex 710 443 64 196617 r bangwhole;#P newex 706 666 48 196617 s video2;#P newex 708 551 48 196617 s video4;#P number 742 476 35 9 0 0 0 3 0 0 0 221 221 221 222 222 222 0 0 0;#P newex 710 476 31 196617 + 25;#P newex 707 600 66 196617 r edgedetect;#P newex 707 616 46 196617 r slideit;#P newex 725 1121 27 196617 + 3;#P newex 698 1137 68 196617 s rgbmaxavg;#P number 663 1137 35 9 0 0 0 3 0 0 0 221 221 221 222 222 222 0 0 0;#P newex 697 1121 27 196617 / 3;#P number 662 1120 35 9 0 0 0 3 0 0 0 221 221 221 222 222 222 0 0 0;#P newex 725 1103 27 196617 +;#P number 690 1104 35 9 0 0 0 3 0 0 0 221 221 221 222 222 222 0 0 0;#P newex 663 1103 27 196617 +;#P newex 493 1122 27 196617 + 3;#P flonum 754 618 35 9 0 0 0 3 0 0 0 221 221 221 222 222 222 0 0 0;#P flonum 750 494 35 9 0 0 0 3 0 0 0 221 221 221 222 222 222 0 0 0;#P newex 706 649 78 196617 pack 0. 0. 0. 0.;#P newex 709 495 40 196617 / 100.;#P flonum 768 460 35 9 0 0 0 3 0 0 0 221 221 221 222 222 222 0 0 0;#P newex 710 458 58 196617 random 75;#P number 608 1089 35 9 0 0 0 3 0 0 0 221 221 221 222 222 222 0 0 0;#P number 734 1086 35 9 0 0 0 3 0 0 0 221 221 221 222 222 222 0 0 0;#P flonum 498 1089 35 9 0 0 0 3 0 0 0 221 221 221 222 222 222 0 0 0;#P flonum 758 714 35 9 0 0 0 3 0 0 0 221 221 221 222 222 222 0 0 0;#P newex 705 714 52 196617 r avgamp;#P number 613 1120 35 9 0 0 0 3 0 0 0 221 221 221 222 222 222 0 0 0;#P number 605 1104 35 9 0 0 0 3 0 0 0 221 221 221 222 222 222 0 0 0;#P newex 549 1088 59 196617 s bluemean;#P newex 548 1119 66 196617 s greenmean;#P newex 549 1103 56 196617 s redmean;#P number 697 1087 35 9 0 0 0 3 0 0 0 221 221 221 222 222 222 0 0 0;#P number 662 1087 35 9 0 0 0 3 0 0 0 221 221 221 222 222 222 0 0 0;#P newex 429 1139 56 196617 s rgbmean;#P number 485 1138 35 9 0 0 0 3 0 0 0 221 221 221 222 222 222 0 0 0;#P newex 465 1121 27 196617 / 3;#P number 430 1123 35 9 0 0 0 3 0 0 0 221 221 221 222 222 222 0 0 0;#P newex 493 1104 27 196617 +;#P number 457 1105 35 9 0 0 0 3 0 0 0 221 221 221 222 222 222 0 0 0;#P newex 430 1105 27 196617 +;#P flonum 464 1089 35 9 0 0 0 3 0 0 0 221 221 221 222 222 222 0 0 0;#P flonum 429 1089 35 9 0 0 0 3 0 0 0 221 221 221 222 222 222 0 0 0;#P newex 663 1069 88 196617 unpack 0. 0. 0. 0.;#P newex 548 1053 76 196617 unpack 0 0 0 0;#P newex 707 532 62 196617 pack 0. 0. 0.;#P newex 509 281 27 196617 + 1;#P comment 721 406 39 196617 video;#P button 1475 202 39 0;#P button 1513 202 39 0;#P newex 1474 185 55 196617 select 0 1;#P newex 1531 185 38 196617 decide;#P number 1531 152 35 9 0 0 0 3 0 0 0 221 221 221 222 222 222 0 0 0;#P user number~ 1777 258 1816 273 9 3 3 2 0. 0. 0 0. 250 0. 0 0 0 221 221 221 222 222 222 0 0 0;#P newex 1747 291 64 196617 send~ snare;#P message 1748 241 81 196617 0 \, 1000 1000;#P newex 1747 258 27 196617 line~;#P newex 1748 274 81 196617 play~ snare001;#P user number~ 1632 259 1671 274 9 3 3 2 0. 0. 0 0. 250 0. 0 0 0 221 221 221 222 222 222 0 0 0;#P newex 1602 292 57 196617 send~ kick;#P message 1603 242 81 196617 0 \, 1000 1000;#P newex 1603 275 74 196617 play~ kick001;#P user number~ 1505 259 1544 274 9 3 3 2 0. 0. 0 0. 250 0. 0 0 0 221 221 221 222 222 222 0 0 0;#P newex 1475 292 49 196617 send~ hh;#P newex 1474 167 103 196617 if $i1>100 then bang;#P newex 1474 150 56 196617 r redmean;#P comment 1763 47 54 196617 snare;#P comment 1625 48 54 196617 kick;#P message 1478 243 81 196617 0 \, 1000 1000;#P newex 1476 258 27 196617 line~;#P newex 1476 275 73 196617 play~ hh001;#P comment 1480 46 54 196617 highhat;#P newex 1604 259 27 196617 line~;#P comment 1597 22 51 196617 drum kit;#P newex 574 101 44 196617 r bang0;#P newex 633 281 76 196617 send~ sample1;#P newex 639 232 27 196617 * 8;#P newex 666 231 44 196617 r whole;#P newex 631 87 73 196617 r samplecount;#P user number~ 585 274 624 289 9 3 3 2 0. 0. 0 0. 250 0. 0 0 0 221 221 221 222 222 222 0 0 0;#P toggle 659 105 51 0;#P user gswitch 619 105 41 32 1 0;#P button 583 120 33 0;#P newex 621 138 32 196617 sel 1;#P flonum 658 249 51 9 0 0 0 3 0 0 0 221 221 221 222 222 222 0 0 0;#P flonum 658 215 51 9 0 0 0 3 0 0 0 221 221 221 222 222 222 0 0 0;#P flonum 585 242 35 9 0 0 0 3 0 0 0 221 221 221 222 222 222 0 0 0;#P newex 584 224 27 196617 - 1.;#P flonum 585 208 35 9 0 0 0 3 0 0 0 221 221 221 222 222 222 0 0 0;#P newex 584 192 46 196617 / 100.;#P flonum 585 176 35 9 0 0 0 3 0 0 0 221 221 221 222 222 222 0 0 0;#P newex 585 157 64 196617 random 200;#P newex 585 258 25 196617 sig~;#P newex 639 265 70 196617 groove~ 5buf;#P newex 639 249 18 196617 +;#P newex 637 199 72 196617 random 50000;#P message 662 186 48 196617 set \$1buf;#P number 675 171 35 9 0 0 0 3 0 0 0 221 221 221 222 222 222 0 0 0;#P newex 657 156 53 196617 random 12;#P comment 585 89 45 196617 sample1;#P newex 1107 100 44 196617 r bang0;#P newex 755 102 44 196617 r bang0;#P newex 936 100 44 196617 r bang0;#P newex 995 279 76 196617 send~ sample3;#P newex 1000 231 27 196617 * 8;#P newex 1027 230 44 196617 r whole;#P newex 997 84 73 196617 r samplecount;#P user number~ 947 272 986 287 9 3 3 2 0. 0. 0 0. 250 0. 0 0 0 221 221 221 222 222 222 0 0 0;#P toggle 1021 103 51 0;#P user gswitch 981 103 41 32 1 0;#P button 945 118 33 0;#P newex 983 136 32 196617 sel 3;#P flonum 1020 247 51 9 0 0 0 3 0 0 0 221 221 221 222 222 222 0 0 0;#P flonum 1020 213 51 9 0 0 0 3 0 0 0 221 221 221 222 222 222 0 0 0;#P flonum 947 240 35 9 0 0 0 3 0 0 0 221 221 221 222 222 222 0 0 0;#P newex 946 222 27 196617 - 1.;#P flonum 947 206 35 9 0 0 0 3 0 0 0 221 221 221 222 222 222 0 0 0;#P newex 946 190 46 196617 / 100.;#P flonum 947 174 35 9 0 0 0 3 0 0 0 221 221 221 222 222 222 0 0 0;#P newex 947 155 64 196617 random 200;#P newex 947 256 25 196617 sig~;#P newex 1001 263 70 196617 groove~ 7buf;#P newex 1001 247 18 196617 +;#P newex 999 197 72 196617 random 50000;#P message 1023 184 48 196617 set \$1buf;#P number 1037 169 35 9 0 0 0 3 0 0 0 221 221 221 222 222 222 0 0 0;#P newex 1019 154 53 196617 random 12;#P comment 940 89 45 196617 sample3;#P newex 813 279 76 196617 send~ sample2;#P newex 817 231 27 196617 * 8;#P newex 845 229 44 196617 r whole;#P newex 815 84 73 196617 r samplecount;#P user number~ 765 272 804 287 9 3 3 2 0. 0. 0 0. 250 0. 0 0 0 221 221 221 222 222 222 0 0 0;#P toggle 839 103 51 0;#P user gswitch 799 103 41 32 1 0;#P button 763 118 33 0;#P newex 801 136 32 196617 sel 2;#P flonum 838 247 51 9 0 0 0 3 0 0 0 221 221 221 222 222 222 0 0 0;#P flonum 838 213 51 9 0 0 0 3 0 0 0 221 221 221 222 222 222 0 0 0;#P flonum 765 240 35 9 0 0 0 3 0 0 0 221 221 221 222 222 222 0 0 0;#P newex 764 222 27 196617 - 1.;#P flonum 765 206 35 9 0 0 0 3 0 0 0 221 221 221 222 222 222 0 0 0;#P newex 764 190 46 196617 / 100.;#P flonum 765 174 35 9 0 0 0 3 0 0 0 221 221 221 222 222 222 0 0 0;#P newex 765 155 64 196617 random 200;#P newex 765 256 25 196617 sig~;#P newex 819 263 70 196617 groove~ 6buf;#P newex 819 248 18 196617 +;#P newex 817 197 72 196617 random 50000;#P message 841 182 48 196617 set \$1buf;#P number 855 169 35 9 0 0 0 3 0 0 0 221 221 221 222 222 222 0 0 0;#P newex 837 154 53 196617 random 12;#P comment 758 89 45 196617 sample2;#P newex 1162 278 76 196617 send~ sample4;#P newex 1166 226 27 196617 * 2;#P newex 1194 226 44 196617 r whole;#P newex 1164 82 73 196617 r samplecount;#P user number~ 1114 271 1153 286 9 3 3 2 0. 0. 0 0. 250 0. 0 0 0 221 221 221 222 222 222 0 0 0;#P toggle 1189 100 51 0;#P user gswitch 1149 100 41 32 1 0;#P button 1116 117 33 0;#P newex 1150 135 32 196617 sel 4;#P flonum 1186 243 51 9 0 0 0 3 0 0 0 221 221 221 222 222 222 0 0 0;#P flonum 1187 212 51 9 0 0 0 3 0 0 0 221 221 221 222 222 222 0 0 0;#P flonum 1114 239 35 9 0 0 0 3 0 0 0 221 221 221 222 222 222 0 0 0;#P newex 1113 221 27 196617 - 1.;#P flonum 1114 205 35 9 0 0 0 3 0 0 0 221 221 221 222 222 222 0 0 0;#P newex 1113 189 46 196617 / 100.;#P flonum 1114 173 35 9 0 0 0 3 0 0 0 221 221 221 222 222 222 0 0 0;#P newex 1114 154 64 196617 random 200;#P newex 1114 255 25 196617 sig~;#P newex 1168 262 70 196617 groove~ 8buf;#P newex 1167 245 18 196617 +;#P newex 1166 196 72 196617 random 50000;#P message 1190 182 48 196617 set \$1buf;#P number 1204 168 24 9 0 0 0 3 0 0 0 221 221 221 222 222 222 0 0 0;#P newex 1185 152 53 196617 random 12;#P comment 1107 88 45 196617 sample4;#P comment 893 50 52 196617 samples;#P newex 214 1080 27 196617 +;#P number 141 1098 35 9 0 0 0 3 0 0 0 221 221 221 222 222 222 0 0 0;#P newex 143 1080 70 196617 unpack 0 0 0;#P flonum 210 1063 35 9 0 0 0 3 0 0 0 221 221 221 222 222 222 0 0 0;#P flonum 88 1078 52 9 0 0 0 3 0 0 0 221 221 221 222 222 222 0 0 0;#P newex 246 1064 63 196617 brightness~;#P newex 88 1061 54 196617 loudness~;#P newex 144 1062 65 196617 pitch~;#P newex 143 1044 101 196617 receive~ drumkitsig;#P button 151 627 15 0;#P newex 62 627 55 196617 r banghalf;#P newex 194 447 97 196617 receive~ samplesig;#P newex 194 463 101 196617 receive~ drumkitsig;#P newex 195 479 91 196617 receive~ synthsig;#P newex 318 639 106 196617 receive~ subsynthsig;#P newex 318 674 56 196617 freqshift~;#P number 387 657 35 9 0 0 0 3 0 0 0 221 221 221 222 222 222 0 0 0;#P number 363 711 43 9 0 0 0 3 0 0 0 221 221 221 222 222 222 0 0 0;#P newex 318 711 44 196617 r whole;#P newex 317 746 44 196617 tapout~;#P number 351 693 35 9 0 0 0 3 0 0 0 221 221 221 222 222 222 0 0 0;#P newex 318 692 32 196617 * 10;#P newex 321 728 65 196617 tapin~ 5000;#P newex 319 656 68 196617 r rgbmaxavg;#P number 509 736 35 9 0 0 0 3 0 0 0 221 221 221 222 222 222 0 0 0;#P number 495 719 35 9 0 0 0 3 0 0 0 221 221 221 222 222 222 0 0 0;#P newex 452 719 44 196617 r whole;#P newex 452 806 44 196617 tapout~;#P number 484 788 41 9 0 0 0 3 0 0 0 221 221 221 222 222 222 0 0 0;#P newex 452 788 32 196617 * 10;#P newex 452 770 65 196617 tapin~ 5000;#P newex 452 734 56 196617 r rgbmean;#P number 583 786 35 9 0 0 0 3 0 0 0 221 221 221 222 222 222 0 0 0;#P newex 580 838 56 196617 freqshift~;#P newex 587 617 83 196617 send~ samplesig;#P newex 453 616 87 196617 send~ drumkitsig;#P newex 319 622 77 196617 send~ synthsig;#P number 627 754 35 9 0 0 0 3 0 0 0 221 221 221 222 222 222 0 0 0;#P newex 583 754 44 196617 r whole;#P newex 581 821 44 196617 tapout~;#P number 625 823 35 9 0 0 0 3 0 0 0 221 221 221 222 222 222 0 0 0;#P newex 614 784 32 196617 * 20;#P newex 581 805 65 196617 tapin~ 5000;#P newex 583 769 56 196617 r rgbmean;#P user number~ 93 501 132 516 9 3 3 2 0. 0. 0 0. 250 0. 0 0 0 221 221 221 222 222 222 0 0 0;#P user multiSlider 94 517 47 85 0. 1. 1 2681 15 0 0 2 0 0 0;#M frgb 0 0 0;#M brgb 255 255 255;#M rgb2 127 127 127;#M rgb3 0 0 0;#M rgb4 37 52 91;#M rgb5 74 105 182;#M rgb6 112 158 18;#M rgb7 149 211 110;#M rgb8 187 9 201;#M rgb9 224 62 37;#M rgb10 7 114 128;#P newex 94 483 27 196617 *~;#P flonum 60 586 35 9 0 0 0 3 0 0 0 221 221 221 222 222 222 0 0 0;#P newex 62 644 52 196617 s avgamp;#P flonum 114 645 35 9 0 0 0 3 0 0 0 221 221 221 222 222 222 0 0 0;#P user meter~ 62 481 92 586 50 0 168 0 103 103 103 255 153 0 255 0 0 217 217 0 153 186 0 12 3 3 3 3;#P user number~ 221 517 260 532 9 3 3 2 0. 0. 0 0. 250 0. 0 0 0 221 221 221 222 222 222 0 0 0;#P user number~ 219 498 258 513 9 3 3 2 0. 0. 0 0. 250 0. 0 0 0 221 221 221 222 222 222 0 0 0;#P newex 194 516 27 196617 +~;#P newex 194 497 27 196617 +~;#P newex 118 627 32 196617 avg~;#P newex 452 634 63 196617 receive~ hh;#P newex 452 650 71 196617 receive~ kick;#P newex 453 687 27 196617 +~;#P user number~ 480 688 519 703 9 3 3 2 0. 0. 0 0. 250 0. 0 0 0 221 221 221 222 222 222 0 0 0;#P newex 452 668 78 196617 receive~ snare;#P user number~ 487 601 526 616 9 3 3 2 0. 0. 0 0. 250 0. 0 0 0 221 221 221 222 222 222 0 0 0;#P flonum 452 601 35 9 0 0 0 3 0 0 0 221 221 221 222 222 222 0 0 0;#P user multiSlider 484 497 47 85 0. 5. 1 2681 15 0 0 2 0 0 0;#M frgb 0 0 0;#M brgb 255 255 255;#M rgb2 127 127 127;#M rgb3 0 0 0;#M rgb4 37 52 91;#M rgb5 74 105 182;#M rgb6 112 158 18;#M rgb7 149 211 110;#M rgb8 187 9 201;#M rgb9 224 62 37;#M rgb10 7 114 128;#P newex 485 582 27 196617 *~;#P user number~ 478 704 517 719 9 3 3 2 0. 0. 0 0. 250 0. 0 0 0 221 221 221 222 222 222 0 0 0;#P newex 452 703 27 196617 +~;#P user meter~ 453 497 483 602 50 0 168 0 103 103 103 255 153 0 255 0 0 217 217 0 153 186 0 12 3 3 3 3;#P newex 586 634 90 196617 receive~ sample3;#P newex 586 651 90 196617 receive~ sample4;#P newex 584 719 27 196617 +~;#P user number~ 611 718 650 733 9 3 3 2 0. 0. 0 0. 250 0. 0 0 0 221 221 221 222 222 222 0 0 0;#P newex 586 666 90 196617 receive~ sample1;#P newex 586 684 90 196617 receive~ sample2;#P newex 585 702 27 196617 +~;#P user number~ 611 701 650 716 9 3 3 2 0. 0. 0 0. 250 0. 0 0 0 221 221 221 222 222 222 0 0 0;#P user number~ 361 605 400 620 9 3 3 2 0. 0. 0 0. 250 0. 0 0 0 221 221 221 222 222 222 0 0 0;#P flonum 319 605 41 9 0 0 0 3 0 0 0 221 221 221 222 222 222 0 0 0;#P user multiSlider 363 497 48 92 0. 1. 1 2681 15 0 0 2 0 0 0;#M frgb 0 0 0;#M brgb 255 255 255;#M rgb2 127 127 127;#M rgb3 0 0 0;#M rgb4 37 52 91;#M rgb5 74 105 182;#M rgb6 112 158 18;#M rgb7 149 211 110;#M rgb8 187 9 201;#M rgb9 224 62 37;#M rgb10 7 114 128;#P newex 361 590 27 196617 *~;#P user number~ 623 600 662 615 9 3 3 2 0. 0. 0 0. 250 0. 0 0 0 221 221 221 222 222 222 0 0 0;#P flonum 587 601 35 9 0 0 0 3 0 0 0 221 221 221 222 222 222 0 0 0;#P user multiSlider 619 496 47 85 0. 2. 1 2681 15 0 0 2 0 0 0;#M frgb 0 0 0;#M brgb 255 255 255;#M rgb2 127 127 127;#M rgb3 0 0 0;#M rgb4 37 52 91;#M rgb5 74 105 182;#M rgb6 112 158 18;#M rgb7 149 211 110;#M rgb8 187 9 201;#M rgb9 224 62 37;#M rgb10 7 114 128;#P newex 620 583 27 196617 *~;#P user number~ 611 737 650 752 9 3 3 2 0. 0. 0 0. 250 0. 0 0 0 221 221 221 222 222 222 0 0 0;#P newex 585 737 27 196617 +~;#P user meter~ 321 496 361 601 50 0 168 0 103 103 103 255 153 0 255 0 0 217 217 0 153 186 0 12 3 3 3 3;#P user meter~ 589 496 619 601 50 0 168 0 103 103 103 255 153 0 255 0 0 217 217 0 153 186 0 12 3 3 3 3;#P comment 85 420 41 196617 master;#P comment 346 412 34 196617 synth;#P comment 469 407 46 196617 drumkit;#P comment 606 409 48 196617 samples;#P comment 195 418 61 196617 submaster;#P newex 460 197 72 196617 s bangquarter;#P newex 460 180 63 196617 qmetro 500;#P newex 460 264 71 196617 s bangsixteen;#P newex 460 245 63 196617 qmetro 125;#P number 383 198 35 9 0 0 0 3 0 0 0 221 221 221 222 222 222 0 0 0;#P newex 348 198 31 196617 / 16;#P newex 460 128 64 196617 s bangwhole;#P newex 462 111 69 196617 qmetro 2000;#P newex 460 162 55 196617 s banghalf;#P newex 347 100 44 196617 r bang0;#P number 349 260 35 9 0 0 0 3 0 0 0 221 221 221 222 222 222 0 0 0;#P newex 384 245 27 196617 + 1;#P newex 350 213 44 196617 s whole;#P newex 349 275 73 196617 s samplecount;#P flonum 382 163 43 9 0 0 0 3 0 0 0 221 221 221 222 222 222 0 0 0;#P newex 347 164 27 196617 / 2;#P number 349 246 35 9 0 0 0 3 0 0 0 221 221 221 222 222 222 0 0 0;#N counter 3;#X flags 0 0;#P newobj 349 229 66 196617 counter 3;#P flonum 383 148 39 9 0 0 0 3 0 0 0 221 221 221 222 222 222 0 0 0;#P newex 461 145 69 196617 qmetro 1000;#P newex 347 148 27 196617 * 4.;#P slider 292 99 47 256 50 1;#P message 346 117 36 196617 60000;#P flonum 382 132 35 9 0 0 0 3 0 0 0 221 221 221 222 222 222 0 0 0;#P newex 347 132 27 196617 / 1.;#P window setfont "Arial Black" 36.;#P number 347 308 98 36 0 0 0 12077 0 0 0 221 221 221 222 222 222 0 0 0;#P window setfont "Sans Serif" 9.;#P comment 295 81 38 196617 BPM;#P newex 440 1279 48 196617 loadbang;#P button 440 1296 41 0;#P newex 502 1311 108 196617 buffer~ 6buf 60000;#P message 502 1296 68 196617 read 6.wav;#P newex 619 1311 108 196617 buffer~ 7buf 60000;#P message 619 1297 68 196617 read 7.wav;#P newex 738 1312 108 196617 buffer~ 8buf 60000;#P message 739 1295 68 196617 read 8.wav;#P newex 849 1314 108 196617 buffer~ 9buf 60000;#P message 848 1298 68 196617 read 9.wav;#P newex 962 1311 113 196617 buffer~ 10buf 60000;#P message 962 1296 73 196617 read 10.wav;#P newex 1076 1311 113 196617 buffer~ 11buf 60000;#P message 1077 1295 73 196617 read 11.wav;#P newex 503 1279 100 196617 buffer~ 0buf 60000;#P message 503 1264 68 196617 read 0.wav;#P newex 619 1281 100 196617 buffer~ 1buf 60000;#P message 620 1264 68 196617 read 1.wav;#P newex 738 1278 100 196617 buffer~ 2buf 60000;#P message 740 1263 68 196617 read 2.wav;#P newex 848 1278 108 196617 buffer~ 3buf 60000;#P message 849 1261 68 196617 read 3.wav;#P newex 961 1277 108 196617 buffer~ 4buf 60000;#P message 964 1260 68 196617 read 4.wav;#P newex 1076 1279 108 196617 buffer~ 5buf 60000;#P message 1077 1263 68 196617 read 5.wav;#P newex 503 1344 81 196617 buffer~ hh001;#P message 502 1328 91 196617 read hh.001.wav;#P newex 737 1344 94 196617 buffer~ snare001;#P message 738 1329 109 196617 read snare.001.wav;#P newex 620 1344 88 196617 buffer~ kick001;#P message 620 1329 98 196617 read kick.001.wav;#P newex 83 159 44 196617 s bang0;#P button 77 105 55 0;#P user scope~ 54 238 283 361 256 3 128 -1. 1. 0 0. 0 0. 102 255 51 135 135 135 0;#P newex 53 218 43 196617 dac~;#P comment 1 22 25 196617 fjp;#P comment 547 1012 100 196617 analyze video;#P comment 472 74 39 196617 sync;#P comment 52 93 109 196617 hit me (twice 2 reload);#P button 1527 78 39 0;#N counter 1;#X flags 0 0;#P newobj 458 282 51 196617 counter 1;#P window linecount 2;#P comment 28 22 160 196617 * PERPETUAL MACHINE * BitForms - Columbia GSAPP 2006;#P connect 442 0 7 0;#P connect 457 0 7 0;#P connect 442 0 8 0;#P connect 117 0 115 0;#P fasten 116 0 440 0 99 479 67 479;#P fasten 116 0 112 0 99 479 67 479;#P connect 113 0 114 0;#P connect 582 0 581 0;#P connect 603 0 602 0;#P connect 549 0 550 0;#P connect 573 0 580 0;#P connect 9 0 10 0;#P fasten 442 0 7 1 59 217 91 217;#P connect 550 0 563 0;#P connect 569 0 571 0;#P connect 154 0 156 0;#P connect 156 0 158 0;#P connect 571 0 573 0;#P connect 595 0 601 0;#P fasten 116 0 118 0 99 497 98 497;#P fasten 439 0 116 0 67 479 99 479;#P connect 116 0 117 0;#P connect 563 0 621 0;#P connect 622 0 623 0;#P connect 591 0 593 0;#P connect 158 0 549 0;#P connect 580 0 582 0;#P connect 593 0 595 0;#P fasten 115 0 116 1 65 483 116 483;#P connect 107 0 113 0;#P connect 630 0 631 0;#P connect 628 0 631 0;#P connect 581 0 621 1;#P connect 602 0 623 1;#P connect 152 0 107 0;#P connect 441 0 107 0;#P connect 624 0 620 0;#P connect 601 0 603 0;#P connect 621 0 622 0;#P connect 623 0 624 0;#P connect 514 0 457 0;#P connect 570 1 575 0;#P connect 160 0 161 0;#P connect 569 0 570 0;#P connect 575 0 576 0;#P connect 155 1 160 0;#P connect 154 0 155 0;#P connect 631 0 632 0;#P connect 620 0 628 0;#P connect 152 0 153 0;#P connect 591 0 592 0;#P connect 592 1 597 0;#P connect 597 0 598 0;#P connect 558 0 559 0;#P connect 583 0 584 0;#P connect 442 0 692 0;#P connect 708 0 692 0;#P connect 707 0 692 0;#P connect 604 0 605 0;#P connect 697 0 696 0;#P connect 629 0 630 0;#P connect 578 0 579 0;#P connect 162 0 548 0;#P connect 630 0 634 0;#P connect 626 0 634 0;#P connect 619 0 625 0;#P connect 632 0 577 0;#P connect 149 0 108 0;#P connect 108 0 109 0;#P connect 599 0 600 0;#P connect 109 0 438 0;#P connect 559 0 616 0;#P connect 442 0 692 1;#P connect 617 0 618 0;#P connect 570 3 574 0;#P connect 155 3 159 0;#P connect 548 0 558 0;#P connect 579 0 583 0;#P fasten 150 0 108 1 199 495 216 495;#P fasten 151 0 109 1 199 515 216 515;#P connect 576 0 578 0;#P connect 592 3 596 0;#P connect 625 0 626 0;#P connect 161 0 162 0;#P connect 584 0 616 1;#P connect 634 0 635 0;#P connect 605 0 618 1;#P fasten 108 0 110 0 199 495 224 495;#P connect 109 0 111 0;#P connect 616 0 617 0;#P connect 574 0 578 1;#P connect 600 0 604 0;#P connect 618 0 619 0;#P connect 598 0 599 0;#P connect 635 0 633 0;#P connect 159 0 162 1;#P connect 697 0 692 2;#P connect 569 0 572 0;#P connect 154 0 157 0;#P connect 572 0 585 0;#P connect 586 0 587 0;#P connect 596 0 599 1;#P connect 613 0 615 0;#P connect 157 0 564 0;#P connect 565 0 566 0;#P connect 591 0 594 0;#P connect 627 0 637 0;#P connect 630 0 637 0;#P connect 594 0 606 0;#P connect 588 0 589 0;#P connect 567 0 568 0;#P connect 609 0 610 0;#P connect 607 0 608 0;#P connect 615 0 627 0;#P connect 638 0 636 0;#P connect 585 0 586 0;#P connect 587 0 588 0;#P connect 637 0 638 0;#P connect 564 0 565 0;#P connect 566 0 567 0;#P connect 606 0 607 0;#P connect 611 0 613 0;#P connect 568 0 611 0;#P connect 608 0 609 0;#P connect 610 0 613 1;#P connect 589 0 611 1;#P connect 140 0 143 0;#P fasten 142 0 143 0 356 710 322 710;#P connect 148 0 147 0;#P connect 146 0 141 0;#P connect 84 0 85 0;#P fasten 513 0 126 0 394 621 324 621;#P fasten 503 0 502 0 377 494 326 494;#P fasten 513 0 76 0 394 495 326 495;#P fasten 147 1 140 0 369 710 326 710;#P connect 145 0 140 0;#P connect 613 0 614 0;#P connect 611 0 612 0;#P connect 60 0 47 0;#P fasten 47 0 45 0 351 131 352 131;#P connect 46 0 49 0;#P fasten 51 0 54 0 388 175 352 175;#P connect 455 0 44 0;#P fasten 48 0 44 0 297 359 352 359;#P connect 51 0 64 0;#P connect 51 0 649 0;#P fasten 50 0 52 0 466 208 354 208;#P connect 52 0 53 0;#P connect 58 0 59 0;#P connect 59 0 56 0;#P connect 51 0 57 0;#P connect 141 0 142 0;#P fasten 143 0 83 0 322 604 366 604;#P fasten 513 0 86 0 394 589 366 589;#P connect 458 0 84 0;#P connect 144 0 145 0;#P fasten 44 0 45 1 352 129 369 129;#P connect 146 0 147 1;#P connect 460 0 458 0;#P fasten 85 0 83 1 324 616 383 616;#P fasten 45 0 46 0 352 144 387 144;#P connect 54 0 55 0;#P connect 49 0 51 0;#P connect 64 0 65 0;#P connect 649 0 650 0;#P connect 53 0 58 0;#P connect 139 0 146 0;#P fasten 502 0 513 0 326 495 394 495;#P connect 456 0 455 0;#P fasten 83 0 513 1 366 589 419 589;#P connect 297 1 299 0;#P connect 306 0 307 0;#P connect 299 0 301 0;#P connect 303 0 304 0;#P connect 42 0 41 0;#P connect 300 0 301 1;#P connect 138 0 500 0;#P connect 509 0 510 0;#P connect 512 0 506 0;#P connect 99 0 100 0;#P connect 102 0 96 0;#P connect 96 0 499 0;#P connect 499 0 132 0;#P connect 137 0 132 0;#P connect 138 0 133 0;#P connect 132 0 135 0;#P fasten 134 0 135 0 489 813 457 813;#P connect 506 0 507 0;#P connect 509 0 507 0;#P fasten 505 0 504 0 509 445 458 445;#P fasten 98 0 95 0 490 599 458 599;#P connect 498 0 127 0;#P connect 106 0 104 0;#P connect 301 0 302 0;#P connect 62 0 1 0;#P connect 62 0 63 0;#P connect 50 0 61 0;#P fasten 60 0 68 0 352 97 465 97;#P connect 68 0 69 0;#P fasten 60 0 646 0 352 97 465 97;#P connect 646 0 647 0;#P fasten 60 0 66 0 352 97 465 97;#P connect 66 0 67 0;#P fasten 60 0 50 0 352 97 466 97;#P connect 414 0 382 0;#P connect 382 0 418 0;#P connect 400 0 420 0;#P fasten 60 0 62 0 352 96 467 96;#P connect 297 2 300 0;#P connect 304 0 305 0;#P connect 104 0 96 1;#P fasten 105 0 104 1 457 686 475 686;#P fasten 96 0 97 0 457 704 483 704;#P connect 104 0 103 0;#P connect 459 0 99 0;#P fasten 133 0 134 0 457 788 489 788;#P fasten 135 0 98 0 457 601 490 601;#P connect 326 0 306 0;#P fasten 98 0 101 0 490 600 492 600;#P connect 295 0 414 0;#P connect 506 0 509 0;#P connect 500 0 501 0;#P connect 507 1 501 0;#P connect 302 0 303 0;#P connect 305 0 326 0;#P connect 510 0 508 0;#P connect 136 0 137 0;#P connect 508 0 499 1;#P connect 297 3 317 0;#P fasten 100 0 98 1 457 597 507 597;#P fasten 41 0 39 0 445 1258 507 1258;#P fasten 39 0 40 0 507 1325 507 1325;#P fasten 41 0 15 0 445 1257 507 1257;#P fasten 41 0 27 0 445 1258 508 1258;#P fasten 27 0 28 0 508 1270 508 1270;#P fasten 15 0 16 0 507 1341 508 1341;#P connect 461 0 459 0;#P connect 382 0 446 0;#P connect 400 0 447 0;#P connect 511 0 512 0;#P connect 1 0 295 0;#P connect 131 0 138 0;#P connect 501 0 510 1;#P connect 317 0 303 1;#P fasten 46 0 68 1 387 96 518 96;#P connect 650 0 646 1;#P fasten 65 0 66 1 388 96 518 96;#P fasten 504 0 498 0 458 597 518 597;#P connect 50 0 450 0;#P fasten 55 0 50 1 387 95 525 95;#P connect 646 0 648 0;#P fasten 51 0 62 1 388 95 526 95;#P connect 62 0 451 0;#P connect 414 0 400 0;#P connect 68 0 449 0;#P connect 66 0 448 0;#P connect 98 0 498 1;#P connect 436 0 297 0;#P connect 314 0 311 0;#P connect 319 0 312 0;#P connect 313 0 310 0;#P fasten 138 0 510 2 514 906 576 906;#P fasten 77 0 129 0 590 749 585 749;#P connect 129 1 120 0;#P connect 125 0 120 0;#P connect 120 0 123 0;#P fasten 122 0 123 0 630 802 586 802;#P connect 258 0 259 0;#P connect 119 0 130 0;#P connect 251 0 252 0;#P connect 253 0 254 0;#P fasten 496 0 495 0 640 442 589 442;#P connect 94 0 92 0;#P fasten 259 0 250 0 588 157 590 157;#P connect 250 0 251 0;#P connect 252 0 253 0;#P connect 254 0 255 0;#P connect 255 0 249 0;#P connect 249 0 262 0;#P connect 90 0 88 0;#P connect 88 0 77 0;#P connect 80 0 81 0;#P fasten 79 0 128 0 625 600 592 600;#P fasten 79 0 75 0 625 600 594 600;#P fasten 93 0 92 1 591 719 606 719;#P connect 89 0 88 1;#P connect 92 0 77 1;#P connect 297 1 313 0;#P connect 297 3 319 0;#P fasten 88 0 87 0 590 702 616 702;#P connect 92 0 91 0;#P fasten 77 0 78 0 590 737 616 737;#P connect 297 2 314 0;#P connect 119 0 121 0;#P connect 261 0 260 0;#P connect 463 0 80 0;#P fasten 25 0 26 0 625 1274 624 1274;#P fasten 41 0 37 0 445 1257 624 1257;#P fasten 37 0 38 0 624 1329 624 1329;#P fasten 497 0 79 0 652 582 625 582;#P fasten 41 0 25 0 445 1257 625 1257;#P fasten 41 0 11 0 445 1259 625 1259;#P fasten 11 0 12 0 625 1358 625 1358;#P connect 260 0 258 0;#P connect 79 0 82 0;#P connect 121 0 122 0;#P connect 130 0 129 1;#P connect 124 0 125 0;#P connect 248 0 266 0;#P connect 462 0 463 0;#P fasten 259 0 246 0 588 157 642 157;#P fasten 81 0 79 1 592 596 642 596;#P connect 264 0 265 0;#P connect 256 0 247 0;#P fasten 245 0 248 0 667 261 644 261;#P fasten 249 0 248 0 590 277 644 277;#P connect 265 0 247 1;#P fasten 495 0 497 0 589 598 652 598;#P connect 263 0 260 2;#P fasten 259 0 243 0 588 158 662 158;#P fasten 246 0 256 0 642 214 663 214;#P fasten 247 0 257 0 644 248 663 248;#P connect 267 0 261 0;#P connect 244 0 245 0;#P fasten 259 0 245 0 588 156 667 156;#P connect 298 1 308 0;#P connect 329 0 330 0;#P connect 437 0 298 0;#P connect 308 0 327 0;#P connect 334 0 332 0;#P fasten 256 0 248 1 663 261 674 261;#P fasten 123 0 497 1 586 598 677 598;#P connect 243 0 244 0;#P connect 309 0 327 1;#P connect 327 0 328 0;#P connect 298 2 309 0;#P connect 330 0 331 0;#P connect 332 0 333 0;#P fasten 257 0 248 2 663 263 704 263;#P connect 348 0 349 0;#P connect 323 0 340 0;#P connect 324 0 296 0;#P connect 296 0 339 0;#P connect 338 0 322 0;#P connect 342 0 343 0;#P connect 341 0 320 0;#P connect 321 0 337 0;#P connect 328 0 329 0;#P connect 331 0 334 0;#P connect 324 0 296 1;#P connect 298 3 318 0;#P fasten 13 0 14 0 743 1331 742 1331;#P fasten 23 0 24 0 745 1274 743 1274;#P fasten 35 0 36 0 744 1331 743 1331;#P fasten 41 0 13 0 445 1260 743 1260;#P fasten 41 0 35 0 445 1259 744 1259;#P fasten 41 0 23 0 445 1259 745 1259;#P connect 337 0 338 0;#P connect 318 0 329 1;#P connect 322 0 324 0;#P connect 324 0 323 2;#P connect 335 0 325 0;#P connect 344 0 346 0;#P connect 345 0 347 0;#P connect 315 0 316 0;#P connect 349 0 350 0;#P connect 324 0 296 2;#P connect 205 0 206 0;#P connect 198 0 199 0;#P connect 200 0 201 0;#P fasten 206 0 197 0 768 155 770 155;#P connect 197 0 198 0;#P connect 199 0 200 0;#P connect 201 0 202 0;#P connect 202 0 196 0;#P connect 196 0 209 0;#P connect 320 0 321 0;#P fasten 316 0 342 3 763 804 773 804;#P connect 348 0 443 0;#P connect 341 0 444 0;#P connect 208 0 207 0;#P connect 207 0 205 0;#P connect 195 0 213 0;#P fasten 206 0 193 0 768 155 822 155;#P connect 211 0 212 0;#P connect 203 0 194 0;#P fasten 192 0 195 0 846 259 824 259;#P fasten 196 0 195 0 770 275 824 275;#P connect 212 0 194 1;#P connect 210 0 207 2;#P fasten 206 0 190 0 768 156 842 156;#P fasten 193 0 203 0 822 212 843 212;#P fasten 194 0 204 0 824 246 843 246;#P connect 240 0 208 0;#P connect 191 0 192 0;#P fasten 206 0 192 0 768 168 846 168;#P fasten 21 0 22 0 854 1275 853 1275;#P fasten 41 0 33 0 445 1261 853 1261;#P fasten 203 0 195 1 843 259 854 259;#P fasten 41 0 21 0 445 1260 854 1260;#P fasten 33 0 34 0 853 1332 854 1332;#P connect 190 0 191 0;#P fasten 204 0 195 2 843 261 884 261;#P connect 554 0 553 0;#P connect 555 0 556 0;#P connect 557 0 399 0;#P connect 397 0 398 0;#P connect 695 0 397 0;#P fasten 399 0 397 0 920 524 921 524;#P fasten 398 0 415 0 920 646 923 646;#P fasten 386 0 387 0 965 764 925 764;#P connect 398 0 417 0;#P fasten 384 0 385 0 928 787 928 787;#P fasten 425 0 403 0 995 786 928 786;#P fasten 425 1 426 0 1010 785 930 785;#P fasten 387 0 383 0 925 785 931 785;#P connect 398 0 693 0;#P connect 230 0 231 0;#P connect 223 0 224 0;#P connect 225 0 226 0;#P fasten 231 0 222 0 950 155 952 155;#P connect 222 0 223 0;#P connect 224 0 225 0;#P connect 226 0 227 0;#P connect 227 0 221 0;#P connect 221 0 234 0;#P connect 556 0 557 0;#P fasten 385 0 386 0 928 786 965 786;#P fasten 19 0 20 0 969 1274 966 1274;#P fasten 41 0 31 0 445 1261 967 1261;#P fasten 31 0 32 0 967 1331 967 1331;#P fasten 41 0 19 0 445 1260 969 1260;#P connect 553 0 555 0;#P connect 233 0 232 0;#P connect 232 0 230 0;#P connect 552 0 554 0;#P connect 704 0 397 1;#P connect 417 2 435 0;#P connect 417 0 433 0;#P connect 417 1 434 0;#P fasten 386 0 425 0 965 764 995 764;#P connect 220 0 238 0;#P fasten 231 0 218 0 950 155 1004 155;#P connect 236 0 237 0;#P connect 228 0 219 0;#P fasten 217 0 220 0 1028 259 1006 259;#P fasten 221 0 220 0 952 275 1006 275;#P connect 237 0 219 1;#P connect 235 0 232 2;#P fasten 231 0 215 0 950 156 1024 156;#P fasten 218 0 228 0 1004 212 1025 212;#P fasten 219 0 229 0 1006 246 1025 246;#P connect 239 0 233 0;#P connect 216 0 217 0;#P fasten 231 0 217 0 950 154 1028 154;#P fasten 228 0 220 1 1025 259 1036 259;#P connect 682 0 681 0;#P connect 701 0 678 0;#P fasten 679 0 678 0 1041 540 1037 540;#P connect 683 0 684 0;#P connect 685 0 679 0;#P connect 215 0 216 0;#P connect 678 0 686 0;#P connect 686 0 687 0;#P connect 686 0 706 0;#P fasten 229 0 220 2 1025 261 1066 261;#P connect 684 0 685 0;#P fasten 17 0 18 0 1082 1275 1081 1275;#P fasten 29 0 30 0 1082 1325 1081 1325;#P fasten 41 0 17 0 445 1260 1082 1260;#P fasten 41 0 29 0 445 1260 1082 1260;#P connect 681 0 683 0;#P connect 703 0 678 1;#P connect 680 0 682 0;#P connect 173 0 174 0;#P connect 175 0 176 0;#P fasten 181 0 172 0 1121 154 1119 154;#P connect 172 0 173 0;#P connect 174 0 175 0;#P connect 176 0 177 0;#P connect 177 0 171 0;#P connect 171 0 184 0;#P connect 180 0 181 0;#P connect 183 0 182 0;#P connect 182 0 180 0;#P connect 170 0 188 0;#P fasten 181 0 168 0 1121 154 1171 154;#P connect 186 0 187 0;#P connect 178 0 169 0;#P fasten 167 0 170 0 1195 258 1173 258;#P fasten 171 0 170 0 1119 274 1173 274;#P connect 187 0 169 1;#P connect 185 0 182 2;#P fasten 393 0 389 0 1287 641 1188 641;#P fasten 181 0 165 0 1121 152 1190 152;#P connect 445 0 560 0;#P fasten 169 0 179 0 1172 245 1191 245;#P fasten 168 0 178 0 1171 211 1192 211;#P connect 241 0 183 0;#P connect 166 0 167 0;#P fasten 181 0 167 0 1121 152 1195 152;#P connect 516 0 517 0;#P fasten 407 0 401 0 1339 572 1197 572;#P connect 421 0 409 0;#P fasten 407 0 404 0 1339 608 1197 608;#P connect 445 0 391 0;#P connect 389 0 394 0;#P connect 644 0 454 0;#P connect 561 0 644 0;#P connect 454 0 430 0;#P fasten 178 0 170 1 1192 258 1203 258;#P connect 389 0 694 0;#P connect 165 0 166 0;#P connect 419 0 517 2;#P fasten 179 0 170 2 1191 260 1233 260;#P connect 516 0 518 0;#P connect 689 0 688 0;#P connect 561 0 689 0;#P connect 688 0 431 0;#P connect 518 0 445 0;#P fasten 406 0 391 1 1273 606 1252 606;#P fasten 401 0 402 0 1197 569 1255 569;#P connect 409 0 519 0;#P fasten 391 0 392 0 1198 609 1263 609;#P connect 421 0 518 2;#P fasten 388 0 396 0 1283 639 1272 639;#P fasten 405 0 406 0 1298 625 1273 625;#P connect 396 0 699 0;#P connect 356 0 360 0;#P connect 467 0 367 0;#P connect 364 0 367 0;#P connect 360 0 364 0;#P connect 560 0 388 0;#P connect 390 0 388 0;#P fasten 404 0 388 0 1197 643 1283 643;#P fasten 395 0 388 0 1290 639 1283 639;#P connect 361 0 366 0;#P connect 363 0 365 0;#P connect 366 0 365 0;#P connect 371 0 372 0;#P connect 515 0 516 0;#P connect 356 0 375 0;#P connect 376 0 371 0;#P connect 351 0 379 0;#P fasten 354 0 357 0 1288 166 1287 166;#P connect 371 0 351 0;#P fasten 432 0 393 0 1294 495 1287 495;#P fasten 431 0 393 0 1246 496 1287 496;#P fasten 430 0 393 0 1202 515 1287 515;#P connect 388 0 393 0;#P fasten 353 0 354 0 1300 150 1288 150;#P fasten 402 0 395 0 1255 587 1290 587;#P connect 519 0 410 0;#P connect 453 0 432 0;#P connect 645 0 453 0;#P fasten 388 1 405 0 1339 641 1298 641;#P fasten 407 0 405 0 1339 604 1298 604;#P connect 464 0 353 0;#P connect 452 0 645 0;#P connect 355 0 351 1;#P fasten 392 0 390 0 1263 604 1309 604;#P connect 358 0 355 0;#P connect 358 0 371 1;#P fasten 357 0 356 0 1287 168 1317 168;#P connect 364 0 361 0;#P fasten 410 0 416 0 1292 611 1322 611;#P connect 365 0 358 0;#P connect 358 0 359 0;#P connect 465 0 464 0;#P connect 377 0 381 0;#P connect 517 0 407 0;#P connect 494 0 355 1;#P fasten 356 0 363 0 1317 184 1346 184;#P fasten 388 1 408 0 1339 641 1347 641;#P connect 369 0 370 0;#P connect 351 0 374 0;#P connect 416 0 411 0;#P connect 358 1 362 0;#P connect 375 0 376 0;#P connect 380 0 464 2;#P fasten 467 0 493 0 1407 189 1363 189;#P connect 368 0 360 1;#P fasten 467 0 375 1 1407 188 1368 188;#P connect 466 0 465 0;#P connect 367 0 368 0;#P connect 355 0 373 0;#P connect 353 0 369 0;#P connect 370 0 361 1;#P connect 493 0 494 0;#P connect 378 0 467 0;#P connect 381 0 369 1;#P connect 639 0 427 0;#P connect 544 0 545 0;#P fasten 534 0 529 0 1587 570 1446 570;#P connect 541 0 536 0;#P connect 542 0 523 0;#P fasten 534 0 531 0 1587 606 1448 606;#P connect 690 0 520 0;#P fasten 527 0 520 0 1539 637 1448 637;#P fasten 531 0 520 0 1448 641 1448 641;#P connect 522 0 520 0;#P connect 521 0 526 0;#P connect 542 0 690 0;#P fasten 525 0 521 0 1540 640 1449 640;#P connect 526 0 698 0;#P connect 562 0 639 0;#P connect 422 0 452 0;#P connect 540 0 545 2;#P connect 289 0 277 0;#P connect 277 0 291 0;#P connect 290 0 291 0;#P connect 291 0 293 0;#P connect 271 0 278 0;#P connect 470 0 469 0;#P connect 273 0 272 0;#P connect 272 0 271 0;#P connect 293 0 273 0;#P connect 544 0 546 0;#P fasten 533 0 523 1 1522 604 1501 604;#P fasten 529 0 530 0 1446 567 1504 567;#P connect 536 0 547 0;#P connect 546 0 542 0;#P connect 271 0 279 0;#P fasten 523 0 524 0 1447 607 1512 607;#P connect 423 0 561 0;#P fasten 520 1 535 0 1504 637 1515 637;#P connect 291 1 292 0;#P connect 541 0 546 2;#P connect 561 0 641 0;#P connect 640 0 428 0;#P fasten 520 0 528 0 1448 637 1521 637;#P fasten 532 0 533 0 1547 623 1522 623;#P connect 528 0 700 0;#P connect 468 0 2 0;#P fasten 469 0 468 0 1481 149 1532 149;#P connect 543 0 544 0;#P connect 276 0 289 0;#P connect 2 0 290 0;#P fasten 530 0 527 0 1504 585 1539 585;#P connect 427 0 525 0;#P connect 429 0 525 0;#P connect 428 0 525 0;#P fasten 520 0 525 0 1448 652 1540 652;#P connect 547 0 537 0;#P fasten 520 1 532 0 1504 639 1547 639;#P fasten 534 0 532 0 1587 602 1547 602;#P connect 641 0 640 0;#P connect 424 0 562 0;#P fasten 524 0 522 0 1512 602 1558 602;#P fasten 277 0 468 2 1479 150 1562 150;#P fasten 537 0 539 0 1541 609 1571 609;#P connect 642 0 429 0;#P connect 545 0 534 0;#P connect 562 0 643 0;#P connect 539 0 538 0;#P connect 280 0 282 0;#P connect 478 0 281 0;#P connect 269 0 280 0;#P connect 474 0 473 0;#P connect 473 0 476 0;#P connect 475 0 476 0;#P connect 281 0 269 0;#P connect 476 0 478 0;#P connect 481 0 480 0;#P connect 643 0 642 0;#P connect 280 0 283 0;#P connect 476 1 477 0;#P connect 479 0 471 0;#P fasten 480 0 479 0 1611 148 1662 148;#P connect 472 0 474 0;#P connect 471 0 475 0;#P connect 674 0 675 0;#P connect 652 0 702 0;#P fasten 664 0 659 0 1825 575 1684 575;#P connect 671 0 666 0;#P connect 672 0 654 0;#P fasten 664 0 661 0 1825 611 1686 611;#P fasten 412 0 652 0 1775 647 1686 647;#P connect 691 0 651 0;#P connect 653 0 651 0;#P fasten 661 0 651 0 1686 646 1688 646;#P fasten 657 0 651 0 1777 642 1688 642;#P connect 672 0 691 0;#P fasten 473 0 479 2 1609 149 1692 149;#P connect 652 0 656 0;#P connect 670 0 675 2;#P connect 674 0 676 0;#P fasten 663 0 654 1 1760 609 1739 609;#P fasten 659 0 660 0 1684 572 1742 572;#P connect 666 0 677 0;#P fasten 654 0 655 0 1685 612 1750 612;#P connect 485 0 484 0;#P connect 484 0 487 0;#P connect 486 0 487 0;#P connect 676 0 672 0;#P connect 487 0 489 0;#P connect 286 0 285 0;#P connect 284 0 287 0;#P connect 492 0 491 0;#P connect 489 0 286 0;#P connect 285 0 284 0;#P fasten 651 1 665 0 1744 663 1754 663;#P connect 671 0 676 2;#P fasten 651 0 658 0 1688 663 1759 663;#P fasten 662 0 663 0 1785 628 1760 628;#P connect 658 0 705 0;#P connect 673 0 674 0;#P fasten 413 0 412 0 1824 496 1775 496;#P connect 651 0 412 0;#P fasten 660 0 657 0 1742 590 1777 590;#P connect 677 0 667 0;#P connect 284 0 288 0;#P fasten 651 1 662 0 1744 644 1785 644;#P fasten 664 0 662 0 1825 607 1785 607;#P connect 487 1 488 0;#P fasten 655 0 653 0 1750 607 1796 607;#P connect 490 0 482 0;#P fasten 491 0 490 0 1753 147 1804 147;#P connect 483 0 485 0;#P connect 482 0 486 0;#P fasten 667 0 669 0 1779 614 1809 614;#P connect 551 0 413 0;#P connect 675 0 664 0;#P fasten 484 0 490 2 1751 148 1834 148;#P connect 561 0 551 0;#P connect 669 0 668 0;#P pop;