max v2;#N vpatcher 4 44 1024 768;#P origin 796 121;#P window setfont "Sans Serif" 9.;#P window linecount 1;#P newex 888 243 45 196617 r bright;#P flonum 347 231 35 9 0 0 0 3 0 0 0 221 221 221 222 222 222 0 0 0;#P flonum 433 231 35 9 0 0 0 3 0 0 0 221 221 221 222 222 222 0 0 0;#P newex 297 230 45 196617 r bright;#P newex 396 231 36 196617 r loud;#P comment -774 -157 40 196617 hit me;#P flonum 207 230 35 9 0 0 0 3 0 0 0 221 221 221 222 222 222 0 0 0;#P newex 172 230 31 196617 + 20;#P flonum 97 247 35 9 0 0 0 3 0 0 0 221 221 221 222 222 222 0 0 0;#P newex 57 246 40 196617 / 100.;#P message -653 -110 29 196617 stop;#P message -689 -110 35 196617 write;#P newex -652 -21 82 196617 jit.vcr 320 240;#P newex -690 -21 38 196617 r vid5;#P user jit.pwindow -691 -96 123 76 0 1 0 0 1 0;#P newex -86 192 38 196617 r vid5;#P newex 174 401 38 196617 s vid5;#P user jit.fpsgui 55 374 60 196617 0;#P newex 215 283 38 196617 r vid4;#P newex 174 284 38 196617 r vid1;#P newex 95 277 38 196617 r vid3;#P newex 56 278 38 196617 r vid2;#P newex 56 403 38 196617 s vid4;#P newex 807 529 38 196617 s vid3;#P newex 564 548 38 196617 s vid2;#P newex 303 550 38 196617 s vid1;#P user jit.fpsgui 866 497 60 196617 0;#P user jit.fpsgui 627 517 60 196617 0;#P user jit.fpsgui 379 523 60 196617 0;#P newex 795 408 57 196617 qmetro 30;#P newex 553 445 57 196617 qmetro 30;#P newex 346 252 35 196617 * 15.;#P flonum 344 270 35 9 0 0 0 3 0 0 0 221 221 221 222 222 222 0 0 0;#P user jit.fpsgui 173 372 60 196617 0;#P user jit.pwindow 172 318 72 53 0 1 0 0 1 0;#P flonum 215 249 35 9 0 0 0 3 0 0 0 221 221 221 222 222 222 0 0 0;#P newex 173 249 40 196617 / 100.;#P number 231 211 35 9 0 0 0 3 0 0 0 221 221 221 222 222 222 0 0 0;#P button 237 193 15 0;#P newex 172 211 58 196617 random 80;#P newex 174 193 60 196617 r bangeight;#P message 174 267 45 196617 xfade \$1;#P newex 173 301 77 196617 jit.xfade;#P number 847 351 35 9 0 0 0 3 0 0 0 221 221 221 222 222 222 0 0 0;#P user gswitch 831 281 41 32 1 0;#P user gswitch 787 283 41 32 1 0;#P toggle 875 279 54 0;#P newex 786 260 44 196617 r bang0;#P button 855 408 17 0;#P newex 788 315 60 196617 r bangeight;#P newex 833 260 44 196617 r bang1;#P number 913 352 35 9 0 0 0 3 0 0 0 221 221 221 222 222 222 0 0 0;#P message 947 352 44 196617 rate \$1;#P newex 883 351 30 196617 - 15;#P newex 788 352 58 196617 random 30;#P newex 858 425 63 196617 print ameba;#P button 929 280 53 0;#P number 864 388 35 9 0 0 0 3 0 0 0 221 221 221 222 222 222 0 0 0;#P newex 889 372 88 196617 route framecount;#P message 790 389 75 196617 getframecount;#P number 846 334 35 9 0 0 0 3 0 0 0 221 221 221 222 222 222 0 0 0;#P newex 788 333 58 196617 random 14;#P user jit.pwindow 863 442 72 50 0 1 0 0 1 0;#P message 881 335 67 196617 read \$1.mov;#P user jit.fpsgui 796 498 60 196617 0;#P number 854 372 32 9 0 0 0 3 0 0 0 221 221 221 222 222 222 0 0 0;#P newex 789 371 64 196617 random 100;#P message 900 389 57 196617 frame \$1;#P user jit.pwindow 789 443 72 53 0 1 0 0 1 0;#P newex 792 426 66 196617 jit.qt.movie;#P number -460 -62 35 9 0 0 0 3 0 0 0 221 221 221 222 222 222 0 0 0;#P newex -495 -62 27 196617 / 8;#P button -324 -12 15 0;#P newex -384 -13 60 196617 s bangeight;#P newex -384 -29 63 196617 qmetro 250;#P newex 397 249 27 196617 / 5.;#P newex 296 249 35 196617 * 15.;#P newex 700 240 35 196617 * 3.5;#P flonum 733 240 35 9 0 0 0 3 0 0 0 221 221 221 222 222 222 0 0 0;#P newex 625 245 29 196617 * 5.;#P flonum 659 247 35 9 0 0 0 3 0 0 0 221 221 221 222 222 222 0 0 0;#P flonum -566 1091 35 9 0 0 0 3 0 0 0 221 221 221 222 222 222 0 0 0;#P newex -598 1091 31 196617 bline;#P newex -574 1107 45 196617 s bright;#P flonum -634 1090 35 9 0 0 0 3 0 0 0 221 221 221 222 222 222 0 0 0;#P newex -667 1089 31 196617 bline;#P newex -619 1108 40 196617 s pitch;#P flonum -703 1090 35 9 0 0 0 3 0 0 0 221 221 221 222 222 222 0 0 0;#P newex -734 1088 31 196617 bline;#P button -677 1108 15 0;#P newex -724 1110 44 196617 r bang1;#P flonum -702 1072 35 9 0 0 0 3 0 0 0 221 221 221 222 222 222 0 0 0;#P flonum -575 1073 35 9 0 0 0 3 0 0 0 221 221 221 222 222 222 0 0 0;#P flonum -637 1073 35 9 0 0 0 3 0 0 0 221 221 221 222 222 222 0 0 0;#P newex -666 1072 27 196617 / 3.;#P flonum -721 1055 35 9 0 0 0 3 0 0 0 221 221 221 222 222 222 0 0 0;#P newex -748 1055 27 196617 + 0.;#P flonum -722 965 35 9 0 0 0 3 0 0 0 221 221 221 222 222 222 0 0 0;#P newex -749 964 27 196617 + 0.;#P newex -729 1071 27 196617 / 3.;#P flonum -620 1053 35 9 0 0 0 3 0 0 0 221 221 221 222 222 222 0 0 0;#P newex -649 1052 27 196617 + 0.;#P flonum -623 965 35 9 0 0 0 3 0 0 0 221 221 221 222 222 222 0 0 0;#P newex -651 965 27 196617 + 0.;#P newex -602 1072 27 196617 / 3.;#P flonum -524 1053 35 9 0 0 0 3 0 0 0 221 221 221 222 222 222 0 0 0;#P newex -551 1052 27 196617 + 0.;#P flonum -522 965 35 9 0 0 0 3 0 0 0 221 221 221 222 222 222 0 0 0;#P newex -550 965 27 196617 + 0.;#P flonum -585 1053 35 9 0 0 0 3 0 0 0 221 221 221 222 222 222 0 0 0;#P newex -543 1036 34 196617 / 10.;#P flonum -579 1036 35 9 0 0 0 3 0 0 0 221 221 221 222 222 222 0 0 0;#P newex -556 1019 40 196617 / 500.;#P number -591 1019 35 9 0 0 0 3 0 0 0 221 221 221 222 222 222 0 0 0;#P flonum -686 1054 35 9 0 0 0 3 0 0 0 221 221 221 222 222 222 0 0 0;#P newex -620 1035 40 196617 / 200.;#P newex -724 1038 34 196617 / 10.;#P flonum -783 1054 35 9 0 0 0 3 0 0 0 221 221 221 222 222 222 0 0 0;#P newex -758 1036 37 196617 abs 1.;#P flonum -654 1037 35 9 0 0 0 3 0 0 0 221 221 221 222 222 222 0 0 0;#P newex -619 1019 27 196617 +;#P number -689 1037 35 9 0 0 0 3 0 0 0 221 221 221 222 222 222 0 0 0;#P newex -690 1019 70 196617 unpack 0 0 0;#P flonum -637 1004 35 9 0 0 0 3 0 0 0 221 221 221 222 222 222 0 0 0;#P flonum -742 1022 52 9 0 0 0 3 0 0 0 221 221 221 222 222 222 0 0 0;#P newex -601 1002 63 196617 brightness~;#P newex -745 1003 54 196617 loudness~;#P newex -690 1002 53 196617 pitch~;#P newex -689 983 91 196617 receive~ synthsig;#P comment -693 769 70 196617 analyze audio;#P flonum -587 965 35 9 0 0 0 3 0 0 0 221 221 221 222 222 222 0 0 0;#P newex -566 948 34 196617 / 10.;#P flonum -602 948 35 9 0 0 0 3 0 0 0 221 221 221 222 222 222 0 0 0;#P newex -566 931 40 196617 / 500.;#P number -602 930 35 9 0 0 0 3 0 0 0 221 221 221 222 222 222 0 0 0;#P flonum -687 964 35 9 0 0 0 3 0 0 0 221 221 221 222 222 222 0 0 0;#P newex -638 946 40 196617 / 200.;#P newex -743 945 34 196617 / 10.;#P flonum -786 966 35 9 0 0 0 3 0 0 0 221 221 221 222 222 222 0 0 0;#P newex -780 947 37 196617 abs 1.;#P flonum -673 947 35 9 0 0 0 3 0 0 0 221 221 221 222 222 222 0 0 0;#P newex -637 929 27 196617 +;#P newex -661 1108 36 196617 s loud;#P number -706 947 35 9 0 0 0 3 0 0 0 221 221 221 222 222 222 0 0 0;#P newex -708 929 70 196617 unpack 0 0 0;#P flonum -640 912 35 9 0 0 0 3 0 0 0 221 221 221 222 222 222 0 0 0;#P flonum -759 930 52 9 0 0 0 3 0 0 0 221 221 221 222 222 222 0 0 0;#P newex -603 913 63 196617 brightness~;#P newex -762 913 54 196617 loudness~;#P newex -707 912 65 196617 pitch~;#P newex -706 895 101 196617 receive~ drumkitsig;#P flonum -585 879 35 9 0 0 0 3 0 0 0 221 221 221 222 222 222 0 0 0;#P newex -565 863 34 196617 / 10.;#P flonum -601 862 35 9 0 0 0 3 0 0 0 221 221 221 222 222 222 0 0 0;#P newex -565 845 40 196617 / 500.;#P number -601 844 35 9 0 0 0 3 0 0 0 221 221 221 222 222 222 0 0 0;#P flonum -762 877 35 9 0 0 0 3 0 0 0 221 221 221 222 222 222 0 0 0;#P flonum 551 251 35 9 0 0 0 3 0 0 0 221 221 221 222 222 222 0 0 0;#P flonum 673 226 35 9 0 0 0 3 0 0 0 221 221 221 222 222 222 0 0 0;#P newex 295 446 57 196617 qmetro 30;#P flonum -688 878 35 9 0 0 0 3 0 0 0 221 221 221 222 222 222 0 0 0;#P newex -638 860 40 196617 / 200.;#P flonum 85 229 35 9 0 0 0 3 0 0 0 221 221 221 222 222 222 0 0 0;#P newex 58 227 27 196617 + 0.;#P number 117 211 35 9 0 0 0 3 0 0 0 221 221 221 222 222 222 0 0 0;#P button 119 194 15 0;#P newex 57 210 58 196617 random 50;#P newex 57 193 60 196617 r bangeight;#P flonum 938 247 35 9 0 0 0 3 0 0 0 221 221 221 222 222 222 0 0 0;#P newex -781 857 34 196617 / 10.;#P newex -744 858 37 196617 abs 1.;#P flonum -672 861 35 9 0 0 0 3 0 0 0 221 221 221 222 222 222 0 0 0;#P number 610 373 35 9 0 0 0 3 0 0 0 221 221 221 222 222 222 0 0 0;#P user gswitch 594 303 41 32 1 0;#P user gswitch 550 305 41 32 1 0;#P toggle 638 301 54 0;#P newex 549 282 44 196617 r bang0;#P button 611 444 15 0;#P newex 551 337 60 196617 r bangeight;#P newex 596 282 44 196617 r bang1;#P number 676 374 35 9 0 0 0 3 0 0 0 221 221 221 222 222 222 0 0 0;#P message 710 374 44 196617 rate \$1;#P newex 646 373 30 196617 - 15;#P newex 551 374 58 196617 random 30;#P newex 620 426 63 196617 print ameba;#P button 692 302 53 0;#P number 627 410 35 9 0 0 0 3 0 0 0 221 221 221 222 222 222 0 0 0;#P newex 652 394 88 196617 route framecount;#P message 553 411 75 196617 getframecount;#P number 609 356 35 9 0 0 0 3 0 0 0 221 221 221 222 222 222 0 0 0;#P newex 551 355 58 196617 random 11;#P user jit.pwindow 621 461 72 50 0 1 0 0 1 0;#P message 644 357 67 196617 read \$1.mov;#P user jit.fpsgui 558 517 60 196617 0;#P newex 643 282 54 196617 jit.brcosa;#P number 617 394 32 9 0 0 0 3 0 0 0 221 221 221 222 222 222 0 0 0;#P newex 552 393 64 196617 random 100;#P message 663 411 57 196617 frame \$1;#P user jit.pwindow 549 461 72 53 0 1 0 0 1 0;#P newex 553 426 66 196617 jit.qt.movie;#P number 357 393 35 9 0 0 0 3 0 0 0 221 221 221 222 222 222 0 0 0;#P user gswitch 341 323 41 32 1 0;#P user gswitch 297 325 41 32 1 0;#P toggle 385 321 54 0;#P newex 296 302 44 196617 r bang0;#P newex -734 -21 44 196617 r bang0;#P newex -455 347 35 196617 gate~;#P button -337 583 15 0;#P newex -393 583 55 196617 r banghalf;#P newex -395 656 132 196617 if $i1==0 then $i2 else $i3;#P number -354 601 35 9 0 0 0 3 0 0 0 221 221 221 222 222 222 0 0 0;#P number -350 621 55 9 0 0 0 3 0 0 0 221 221 221 222 222 222 0 0 0;#P newex -392 619 41 196617 sel 0 1;#P newex -393 601 38 196617 decide;#P newex -340 205 44 196617 r bang0;#P toggle -391 204 51 0;#P newex -472 203 44 196617 r bang0;#P toggle -523 203 51 0;#P number -352 640 52 9 0 0 0 3 0 0 0 221 221 221 222 222 222 0 0 0;#P newex -395 638 42 196617 - 3000;#P newex -392 509 56 196617 freqshift~;#P newex -331 341 35 196617 gate~;#P newex -197 340 35 196617 gate~;#P newex -209 202 44 196617 r bang0;#P toggle -260 201 51 0;#P flonum 555 71 35 9 0 0 0 3 0 0 0 221 221 221 222 222 222 0 0 0;#P newex 514 69 40 196617 / 100.;#P newex 911 -164 44 196617 r bang0;#P toggle 904 -145 51 0;#P user gswitch 955 -125 41 32 1 0;#P button 903 -40 39 0;#P button 941 -40 39 0;#P newex 902 -57 55 196617 select 0 1;#P newex 959 -57 38 196617 decide;#P number 959 -92 35 9 0 0 0 3 0 0 0 221 221 221 222 222 222 0 0 0;#P newex 902 -75 103 196617 if $i1>100 then bang;#P newex 902 -94 59 196617 r bluemean;#P button 955 -166 39 0;#P newex 769 -163 44 196617 r bang0;#P toggle 762 -144 51 0;#P user gswitch 813 -124 41 32 1 0;#P button 761 -39 39 0;#P button 799 -39 39 0;#P newex 760 -56 55 196617 select 0 1;#P newex 817 -56 38 196617 decide;#P number 817 -91 35 9 0 0 0 3 0 0 0 221 221 221 222 222 222 0 0 0;#P newex 760 -74 103 196617 if $i1>100 then bang;#P newex 760 -93 66 196617 r greenmean;#P button 813 -165 39 0;#P newex 639 -162 44 196617 r bang0;#P toggle 632 -143 51 0;#P user gswitch 683 -123 41 32 1 0;#P flonum 558 -71 35 9 0 0 0 3 0 0 0 221 221 221 222 222 222 0 0 0;#P newex 464 -159 44 196617 r bang0;#P toggle 522 -143 51 0;#P user gswitch 482 -141 41 32 1 0;#P message -208 237 31 196617 0.85;#P newex -208 218 48 196617 loadbang;#P newex -339 222 48 196617 loadbang;#P newex -471 220 48 196617 loadbang;#P message -339 240 31 196617 0.75;#P message -471 238 31 196617 0.35;#P toggle -692 -21 15 0;#P newex -498 49 48 196617 loadbang;#P message -449 50 26 196617 120;#P flonum 296 268 35 9 0 0 0 3 0 0 0 221 221 221 222 222 222 0 0 0;#P flonum 397 268 35 9 0 0 0 3 0 0 0 221 221 221 222 222 222 0 0 0;#P button -318 -113 15 0;#P button -327 -78 15 0;#P button -312 -44 15 0;#P button -312 22 15 0;#P button -337 97 15 0;#P button -337 81 15 0;#P button 358 449 15 0;#P newex -777 -40 85 196617 receive~ master;#P newex -783 368 85 196617 receive~ master;#P newex -782 221 71 196617 send~ master;#P newex -782 203 100 196617 receive~ submaster;#P newex -649 292 86 196617 send~ submaster;#P newex -192 800 38 196617 r 3m3;#P newex -307 784 38 196617 r 3m2;#P newex -16 508 38 196617 s 3m3;#P newex -54 508 38 196617 s 3m2;#P newex -91 508 38 196617 s 3m1;#P message 397 284 43 196617 gain \$1;#P message 342 285 31 196617 y \$1;#P message 296 285 31 196617 x \$1;#P message 688 266 71 196617 saturation \$1;#P message 624 265 63 196617 contrast \$1;#P message 549 266 72 196617 brightness \$1;#P window linecount 2;#P message -88 323 95 196617 \; max hidemenubar;#P window linecount 1;#P newex -87 276 41 196617 sel 0 1;#P newex 548 233 40 196617 r pitch;#P newex 626 226 45 196617 r bright;#P newex 298 357 72 196617 r bangquarter;#P newex -383 96 44 196617 s bang2;#P newex 343 302 44 196617 r bang1;#P newex -383 79 44 196617 s bang1;#P newex -86 489 53 196617 jit.3m;#P number 423 394 35 9 0 0 0 3 0 0 0 221 221 221 222 222 222 0 0 0;#P user jit.fpsgui -84 458 60 196617 0;#P user jit.pwindow 56 315 80 60 0 1 0 0 1 0;#P number -354 59 35 9 0 0 0 3 0 0 0 221 221 221 222 222 222 0 0 0;#P message 928 261 54 196617 thresh \$1;#P newex 879 260 47 196617 jit.sobel;#B color 5;#P message 457 394 44 196617 rate \$1;#P newex 393 393 30 196617 - 15;#P newex 298 394 58 196617 random 30;#P newex 448 448 63 196617 print ameba;#P button 440 321 53 0;#P number 374 430 35 9 0 0 0 3 0 0 0 221 221 221 222 222 222 0 0 0;#P newex 399 414 88 196617 route framecount;#P message 298 430 75 196617 getframecount;#P window linecount 2;#P message -87 294 100 196617 \; max showmenubar;#P number 356 376 35 9 0 0 0 3 0 0 0 221 221 221 222 222 222 0 0 0;#P window linecount 1;#P newex 298 375 58 196617 random 11;#P newex -318 58 28 196617 sel 2;#P message 58 262 45 196617 xfade \$1;#P user jit.pwindow -91 351 113 87 0 1 0 0 1 0;#P newex 56 297 77 196617 jit.xfade;#P user jit.pwindow 372 463 76 58 0 1 0 0 1 0;#P message 391 377 67 196617 read \$1.mov;#P user jit.fpsgui 300 519 60 196617 0;#P newex 388 301 58 196617 jit.ameba;#P number 364 414 32 9 0 0 0 3 0 0 0 221 221 221 222 222 222 0 0 0;#P newex 299 413 64 196617 random 100;#P message 410 431 57 196617 frame \$1;#P user jit.pwindow 288 465 84 55 0 1 0 0 1 0;#P newex 384 448 66 196617 jit.qt.movie;#P message -87 259 68 196617 fullscreen \$1;#P toggle -86 209 33 0;#P newex -57 241 35 196617 sel 27;#P newex -86 241 30 196617 key;#P newex -84 440 94 196617 jit.window whodat;#P newex -383 59 28 196617 sel 1;#P number 484 -107 35 9 0 0 0 3 0 0 0 221 221 221 222 222 222 0 0 0;#P newex 509 -160 64 196617 r bangwhole;#P newex 436 104 92 196617 send~ subsynthsig;#P newex 498 -72 56 196617 r rgbmean;#P newex 439 -108 44 196617 r whole;#P flonum 510 34 35 9 0 0 0 3 0 0 0 221 221 221 222 222 222 0 0 0;#P newex 436 16 93 196617 if $i1==1 then $i2;#P user number~ 507 88 546 103 9 3 3 2 0. 0. 0 0. 250 1318926976. 0 0 0 221 221 221 222 222 222 0 0 0;#P user number~ 529 104 568 119 9 3 3 2 0. 0. 0 0. 250 1318926976. 0 0 0 221 221 221 222 222 222 0 0 0;#P user number~ 435 71 474 86 9 3 3 2 0. 0. 0 0. 250 0. 0 0 0 221 221 221 222 222 222 0 0 0;#P newex 436 54 40 196617 cycle~;#P flonum 505 -90 37 9 0 0 0 3 0 0 0 221 221 221 222 222 222 0 0 0;#P newex 543 -91 30 196617 * 1.5;#P flonum 528 -35 35 9 0 0 0 3 0 0 0 221 221 221 222 222 222 0 0 0;#P newex 434 -52 134 196617 if $i1 < 80 then 80 else $i1;#P newex 435 -3 62 196617 prepend set;#P message 435 35 75 196617 120 \, 80 0;#P flonum 434 -18 35 9 0 0 0 3 0 0 0 221 221 221 222 222 222 0 0 0;#P newex 497 -2 32 196617 sel 1;#P button 509 49 21 0;#P newex 469 -19 96 196617 sprintf %i\\\, 80 %i;#P newex 433 -36 93 196617 if $i1==1 then $i2;#P user number~ 476 70 514 85 9 3 3 2 0. 0. 0 0. 250 0. 0 0 0 221 221 221 222 222 222 0 0 0;#P newex 475 53 32 196617 line~;#P newex 438 -71 27 196617 + 1;#P number 468 -71 27 9 0 0 0 3 0 0 0 221 221 221 222 222 222 0 0 0;#P newex 464 86 41 196617 phasor~;#N counter 1;#X flags 0 0;#P newobj 439 -91 66 196617 counter 1;#P button 451 -141 32 0;#P comment 465 -182 37 196617 synth;#P newex 438 86 27 196617 *~;#P newex -131 869 27 196617 + 3;#P newex -158 885 68 196617 s rgbmaxavg;#P number -193 885 35 9 0 0 0 3 0 0 0 221 221 221 222 222 222 0 0 0;#P newex -159 869 27 196617 / 3;#P number -194 868 35 9 0 0 0 3 0 0 0 221 221 221 222 222 222 0 0 0;#P newex -131 851 27 196617 +;#P number -166 852 35 9 0 0 0 3 0 0 0 221 221 221 222 222 222 0 0 0;#P newex -193 851 27 196617 +;#P newex -363 870 27 196617 + 3;#P number -248 837 35 9 0 0 0 3 0 0 0 221 221 221 222 222 222 0 0 0;#P number -122 834 35 9 0 0 0 3 0 0 0 221 221 221 222 222 222 0 0 0;#P flonum -358 837 35 9 0 0 0 3 0 0 0 221 221 221 222 222 222 0 0 0;#P number -243 868 35 9 0 0 0 3 0 0 0 221 221 221 222 222 222 0 0 0;#P number -251 852 35 9 0 0 0 3 0 0 0 221 221 221 222 222 222 0 0 0;#P newex -307 836 59 196617 s bluemean;#P newex -308 867 66 196617 s greenmean;#P newex -307 851 56 196617 s redmean;#P number -159 835 35 9 0 0 0 3 0 0 0 221 221 221 222 222 222 0 0 0;#P number -194 835 35 9 0 0 0 3 0 0 0 221 221 221 222 222 222 0 0 0;#P newex -427 887 56 196617 s rgbmean;#P number -371 886 35 9 0 0 0 3 0 0 0 221 221 221 222 222 222 0 0 0;#P newex -391 869 27 196617 / 3;#P number -426 871 35 9 0 0 0 3 0 0 0 221 221 221 222 222 222 0 0 0;#P newex -363 852 27 196617 +;#P number -399 853 35 9 0 0 0 3 0 0 0 221 221 221 222 222 222 0 0 0;#P newex -426 853 27 196617 +;#P flonum -392 837 35 9 0 0 0 3 0 0 0 221 221 221 222 222 222 0 0 0;#P flonum -427 837 35 9 0 0 0 3 0 0 0 221 221 221 222 222 222 0 0 0;#P newex -193 817 88 196617 unpack 0. 0. 0. 0.;#P newex -308 801 76 196617 unpack 0 0 0 0;#P newex -335 39 27 196617 + 1;#P comment -86 164 39 196617 video;#P button 631 -40 39 0;#P button 669 -40 39 0;#P newex 630 -57 55 196617 select 0 1;#P newex 687 -57 38 196617 decide;#P number 687 -90 35 9 0 0 0 3 0 0 0 221 221 221 222 222 222 0 0 0;#P user number~ 933 16 972 31 9 3 3 2 0. 0. 0 0. 250 0. 0 0 0 221 221 221 222 222 222 0 0 0;#P newex 903 49 64 196617 send~ snare;#P message 904 -1 81 196617 0 \, 1000 1000;#P newex 903 16 27 196617 line~;#P newex 904 32 81 196617 play~ snare001;#P user number~ 788 17 827 32 9 3 3 2 0. 0. 0 0. 250 0. 0 0 0 221 221 221 222 222 222 0 0 0;#P newex 758 50 57 196617 send~ kick;#P message 759 0 81 196617 0 \, 1000 1000;#P newex 759 33 74 196617 play~ kick001;#P user number~ 661 17 700 32 9 3 3 2 0. 0. 0 0. 250 0. 0 0 0 221 221 221 222 222 222 0 0 0;#P newex 631 50 49 196617 send~ hh;#P newex 630 -75 103 196617 if $i1>100 then bang;#P newex 630 -92 56 196617 r redmean;#P comment 919 -195 54 196617 snare;#P comment 781 -194 54 196617 kick;#P message 634 1 81 196617 0 \, 1000 1000;#P newex 632 16 27 196617 line~;#P newex 632 33 73 196617 play~ hh001;#P comment 636 -196 54 196617 highhat;#P newex 760 17 27 196617 line~;#P comment 753 -220 51 196617 drum kit;#P newex -270 -141 44 196617 r bang0;#P newex -211 39 76 196617 send~ sample1;#P newex -205 -10 27 196617 * 8;#P newex -178 -11 44 196617 r whole;#P newex -213 -155 73 196617 r samplecount;#P user number~ -259 32 -220 47 9 3 3 2 0. 0. 0 0. 250 0. 0 0 0 221 221 221 222 222 222 0 0 0;#P toggle -185 -137 51 0;#P user gswitch -225 -137 41 32 1 0;#P button -261 -122 33 0;#P newex -223 -104 32 196617 sel 1;#P flonum -186 7 51 9 0 0 0 3 0 0 0 221 221 221 222 222 222 0 0 0;#P flonum -186 -27 51 9 0 0 0 3 0 0 0 221 221 221 222 222 222 0 0 0;#P flonum -259 0 35 9 0 0 0 3 0 0 0 221 221 221 222 222 222 0 0 0;#P newex -260 -18 27 196617 - 1.;#P flonum -259 -34 35 9 0 0 0 3 0 0 0 221 221 221 222 222 222 0 0 0;#P newex -260 -50 46 196617 / 100.;#P flonum -259 -66 35 9 0 0 0 3 0 0 0 221 221 221 222 222 222 0 0 0;#P newex -259 -85 64 196617 random 200;#P newex -259 16 25 196617 sig~;#P newex -205 23 70 196617 groove~ 5buf;#P newex -205 7 18 196617 +;#P newex -207 -43 72 196617 random 50000;#P message -182 -56 48 196617 set \$1buf;#P number -169 -71 35 9 0 0 0 3 0 0 0 221 221 221 222 222 222 0 0 0;#P newex -187 -86 53 196617 random 12;#P comment -259 -153 45 196617 sample1;#P newex 263 -142 44 196617 r bang0;#P newex -89 -140 44 196617 r bang0;#P newex 92 -142 44 196617 r bang0;#P newex 151 37 76 196617 send~ sample3;#P newex 156 -11 27 196617 * 8;#P newex 183 -12 44 196617 r whole;#P newex 153 -158 73 196617 r samplecount;#P user number~ 103 30 142 45 9 3 3 2 0. 0. 0 0. 250 0. 0 0 0 221 221 221 222 222 222 0 0 0;#P toggle 177 -139 51 0;#P user gswitch 137 -139 41 32 1 0;#P button 101 -124 33 0;#P newex 139 -106 32 196617 sel 3;#P flonum 176 5 51 9 0 0 0 3 0 0 0 221 221 221 222 222 222 0 0 0;#P flonum 176 -29 51 9 0 0 0 3 0 0 0 221 221 221 222 222 222 0 0 0;#P flonum 103 -2 35 9 0 0 0 3 0 0 0 221 221 221 222 222 222 0 0 0;#P newex 102 -20 27 196617 - 1.;#P flonum 103 -36 35 9 0 0 0 3 0 0 0 221 221 221 222 222 222 0 0 0;#P newex 102 -52 46 196617 / 100.;#P flonum 103 -68 35 9 0 0 0 3 0 0 0 221 221 221 222 222 222 0 0 0;#P newex 103 -87 64 196617 random 200;#P newex 103 14 25 196617 sig~;#P newex 157 21 70 196617 groove~ 7buf;#P newex 157 5 18 196617 +;#P newex 155 -45 72 196617 random 50000;#P message 179 -58 48 196617 set \$1buf;#P number 193 -73 35 9 0 0 0 3 0 0 0 221 221 221 222 222 222 0 0 0;#P newex 175 -88 53 196617 random 12;#P comment 96 -153 45 196617 sample3;#P newex -31 37 76 196617 send~ sample2;#P newex -27 -11 27 196617 * 8;#P newex 1 -13 44 196617 r whole;#P newex -29 -158 73 196617 r samplecount;#P user number~ -79 30 -40 45 9 3 3 2 0. 0. 0 0. 250 0. 0 0 0 221 221 221 222 222 222 0 0 0;#P toggle -5 -139 51 0;#P user gswitch -45 -139 41 32 1 0;#P button -81 -124 33 0;#P newex -43 -106 32 196617 sel 2;#P flonum -6 5 51 9 0 0 0 3 0 0 0 221 221 221 222 222 222 0 0 0;#P flonum -6 -29 51 9 0 0 0 3 0 0 0 221 221 221 222 222 222 0 0 0;#P flonum -79 -2 35 9 0 0 0 3 0 0 0 221 221 221 222 222 222 0 0 0;#P newex -80 -20 27 196617 - 1.;#P flonum -79 -36 35 9 0 0 0 3 0 0 0 221 221 221 222 222 222 0 0 0;#P newex -80 -52 46 196617 / 100.;#P flonum -79 -68 35 9 0 0 0 3 0 0 0 221 221 221 222 222 222 0 0 0;#P newex -79 -87 64 196617 random 200;#P newex -79 14 25 196617 sig~;#P newex -25 21 70 196617 groove~ 6buf;#P newex -25 6 18 196617 +;#P newex -27 -45 72 196617 random 50000;#P message -3 -60 48 196617 set \$1buf;#P number 11 -73 35 9 0 0 0 3 0 0 0 221 221 221 222 222 222 0 0 0;#P newex -7 -88 53 196617 random 12;#P comment -86 -153 45 196617 sample2;#P newex 318 36 76 196617 send~ sample4;#P newex 322 -16 27 196617 * 2;#P newex 350 -16 44 196617 r whole;#P newex 320 -160 73 196617 r samplecount;#P user number~ 270 29 309 44 9 3 3 2 0. 0. 0 0. 250 0. 0 0 0 221 221 221 222 222 222 0 0 0;#P toggle 345 -142 51 0;#P user gswitch 305 -142 41 32 1 0;#P button 272 -125 33 0;#P newex 306 -107 32 196617 sel 4;#P flonum 342 1 51 9 0 0 0 3 0 0 0 221 221 221 222 222 222 0 0 0;#P flonum 343 -30 51 9 0 0 0 3 0 0 0 221 221 221 222 222 222 0 0 0;#P flonum 270 -3 35 9 0 0 0 3 0 0 0 221 221 221 222 222 222 0 0 0;#P newex 269 -21 27 196617 - 1.;#P flonum 270 -37 35 9 0 0 0 3 0 0 0 221 221 221 222 222 222 0 0 0;#P newex 269 -53 46 196617 / 100.;#P flonum 270 -69 35 9 0 0 0 3 0 0 0 221 221 221 222 222 222 0 0 0;#P newex 270 -88 64 196617 random 200;#P newex 270 13 25 196617 sig~;#P newex 324 20 70 196617 groove~ 8buf;#P newex 323 3 18 196617 +;#P newex 322 -46 72 196617 random 50000;#P message 346 -60 48 196617 set \$1buf;#P number 360 -74 24 9 0 0 0 3 0 0 0 221 221 221 222 222 222 0 0 0;#P newex 341 -90 53 196617 random 12;#P comment 263 -154 45 196617 sample4;#P comment 49 -192 52 196617 samples;#P newex -634 843 27 196617 +;#P number -707 861 35 9 0 0 0 3 0 0 0 221 221 221 222 222 222 0 0 0;#P newex -705 843 70 196617 unpack 0 0 0;#P flonum -638 826 35 9 0 0 0 3 0 0 0 221 221 221 222 222 222 0 0 0;#P flonum -760 841 52 9 0 0 0 3 0 0 0 221 221 221 222 222 222 0 0 0;#P newex -602 827 63 196617 brightness~;#P newex -760 824 54 196617 loudness~;#P newex -704 825 65 196617 pitch~;#P newex -705 807 101 196617 receive~ drumkitsig;#P button -693 385 15 0;#P newex -782 385 55 196617 r banghalf;#P newex -650 205 97 196617 receive~ samplesig;#P newex -650 221 101 196617 receive~ drumkitsig;#P newex -649 237 91 196617 receive~ synthsig;#P newex -526 397 106 196617 receive~ subsynthsig;#P newex -526 432 56 196617 freqshift~;#P number -457 415 35 9 0 0 0 3 0 0 0 221 221 221 222 222 222 0 0 0;#P number -481 469 43 9 0 0 0 3 0 0 0 221 221 221 222 222 222 0 0 0;#P newex -526 469 44 196617 r whole;#P newex -527 504 44 196617 tapout~;#P number -493 451 35 9 0 0 0 3 0 0 0 221 221 221 222 222 222 0 0 0;#P newex -526 450 32 196617 * 10;#P newex -523 486 65 196617 tapin~ 5000;#P newex -525 414 68 196617 r rgbmaxavg;#P number -335 494 35 9 0 0 0 3 0 0 0 221 221 221 222 222 222 0 0 0;#P number -349 477 35 9 0 0 0 3 0 0 0 221 221 221 222 222 222 0 0 0;#P newex -392 477 44 196617 r whole;#P newex -392 564 44 196617 tapout~;#P number -360 546 41 9 0 0 0 3 0 0 0 221 221 221 222 222 222 0 0 0;#P newex -392 546 32 196617 * 10;#P newex -392 528 65 196617 tapin~ 5000;#P newex -392 492 56 196617 r rgbmean;#P number -261 544 35 9 0 0 0 3 0 0 0 221 221 221 222 222 222 0 0 0;#P newex -264 596 56 196617 freqshift~;#P newex -257 375 83 196617 send~ samplesig;#P newex -391 374 87 196617 send~ drumkitsig;#P newex -525 380 77 196617 send~ synthsig;#P number -217 512 35 9 0 0 0 3 0 0 0 221 221 221 222 222 222 0 0 0;#P newex -261 512 44 196617 r whole;#P newex -263 579 44 196617 tapout~;#P number -219 581 35 9 0 0 0 3 0 0 0 221 221 221 222 222 222 0 0 0;#P newex -230 542 32 196617 * 20;#P newex -263 563 65 196617 tapin~ 5000;#P newex -261 527 56 196617 r rgbmean;#P user number~ -751 259 -712 274 9 3 3 2 0. 0. 0 0. 250 0. 0 0 0 221 221 221 222 222 222 0 0 0;#P user multiSlider -750 275 47 85 0. 1. 1 2681 15 0 0 2 0 0 0;#M frgb 0 0 0;#M brgb 255 255 255;#M rgb2 127 127 127;#M rgb3 0 0 0;#M rgb4 37 52 91;#M rgb5 74 105 182;#M rgb6 112 158 18;#M rgb7 149 211 110;#M rgb8 187 9 201;#M rgb9 224 62 37;#M rgb10 7 114 128;#P newex -750 241 27 196617 *~;#P flonum -784 344 35 9 0 0 0 3 0 0 0 221 221 221 222 222 222 0 0 0;#P newex -782 402 52 196617 s avgamp;#P flonum -730 403 35 9 0 0 0 3 0 0 0 221 221 221 222 222 222 0 0 0;#P user meter~ -782 239 -752 344 50 0 168 0 103 103 103 255 153 0 255 0 0 217 217 0 153 186 0 12 3 3 3 3;#P user number~ -623 275 -584 290 9 3 3 2 0. 0. 0 0. 250 0. 0 0 0 221 221 221 222 222 222 0 0 0;#P user number~ -625 256 -586 271 9 3 3 2 0. 0. 0 0. 250 0. 0 0 0 221 221 221 222 222 222 0 0 0;#P newex -650 274 27 196617 +~;#P newex -650 255 27 196617 +~;#P newex -726 385 32 196617 avg~;#P newex -392 392 63 196617 receive~ hh;#P newex -392 408 71 196617 receive~ kick;#P newex -391 445 27 196617 +~;#P user number~ -364 446 -325 461 9 3 3 2 0. 0. 0 0. 250 0. 0 0 0 221 221 221 222 222 222 0 0 0;#P newex -392 426 78 196617 receive~ snare;#P user number~ -357 359 -318 374 9 3 3 2 0. 0. 0 0. 250 0. 0 0 0 221 221 221 222 222 222 0 0 0;#P flonum -392 359 35 9 0 0 0 3 0 0 0 221 221 221 222 222 222 0 0 0;#P user multiSlider -360 255 47 85 0. 5. 1 2681 15 0 0 2 0 0 0;#M frgb 0 0 0;#M brgb 255 255 255;#M rgb2 127 127 127;#M rgb3 0 0 0;#M rgb4 37 52 91;#M rgb5 74 105 182;#M rgb6 112 158 18;#M rgb7 149 211 110;#M rgb8 187 9 201;#M rgb9 224 62 37;#M rgb10 7 114 128;#P newex -359 340 27 196617 *~;#P user number~ -366 462 -327 477 9 3 3 2 0. 0. 0 0. 250 0. 0 0 0 221 221 221 222 222 222 0 0 0;#P newex -392 461 27 196617 +~;#P user meter~ -391 255 -361 360 50 0 168 0 103 103 103 255 153 0 255 0 0 217 217 0 153 186 0 12 3 3 3 3;#P newex -258 392 90 196617 receive~ sample3;#P newex -258 409 90 196617 receive~ sample4;#P newex -260 477 27 196617 +~;#P user number~ -233 476 -194 491 9 3 3 2 0. 0. 0 0. 250 0. 0 0 0 221 221 221 222 222 222 0 0 0;#P newex -258 424 90 196617 receive~ sample1;#P newex -258 442 90 196617 receive~ sample2;#P newex -259 460 27 196617 +~;#P user number~ -233 459 -194 474 9 3 3 2 0. 0. 0 0. 250 0. 0 0 0 221 221 221 222 222 222 0 0 0;#P user number~ -483 363 -444 378 9 3 3 2 0. 0. 0 0. 250 0. 0 0 0 221 221 221 222 222 222 0 0 0;#P flonum -525 363 41 9 0 0 0 3 0 0 0 221 221 221 222 222 222 0 0 0;#P user multiSlider -481 255 48 92 0. 1. 1 2681 15 0 0 2 0 0 0;#M frgb 0 0 0;#M brgb 255 255 255;#M rgb2 127 127 127;#M rgb3 0 0 0;#M rgb4 37 52 91;#M rgb5 74 105 182;#M rgb6 112 158 18;#M rgb7 149 211 110;#M rgb8 187 9 201;#M rgb9 224 62 37;#M rgb10 7 114 128;#P newex -483 348 27 196617 *~;#P user number~ -221 358 -182 373 9 3 3 2 0. 0. 0 0. 250 0. 0 0 0 221 221 221 222 222 222 0 0 0;#P flonum -257 359 35 9 0 0 0 3 0 0 0 221 221 221 222 222 222 0 0 0;#P user multiSlider -225 254 47 85 0. 2. 1 2681 15 0 0 2 0 0 0;#M frgb 0 0 0;#M brgb 255 255 255;#M rgb2 127 127 127;#M rgb3 0 0 0;#M rgb4 37 52 91;#M rgb5 74 105 182;#M rgb6 112 158 18;#M rgb7 149 211 110;#M rgb8 187 9 201;#M rgb9 224 62 37;#M rgb10 7 114 128;#P newex -224 341 27 196617 *~;#P user number~ -233 495 -194 510 9 3 3 2 0. 0. 0 0. 250 0. 0 0 0 221 221 221 222 222 222 0 0 0;#P newex -259 495 27 196617 +~;#P user meter~ -523 254 -483 359 50 0 168 0 103 103 103 255 153 0 255 0 0 217 217 0 153 186 0 12 3 3 3 3;#P user meter~ -255 254 -225 359 50 0 168 0 103 103 103 255 153 0 255 0 0 217 217 0 153 186 0 12 3 3 3 3;#P comment -759 178 41 196617 master;#P comment -498 170 34 196617 synth;#P comment -375 165 46 196617 drumkit;#P comment -238 167 48 196617 samples;#P comment -649 176 61 196617 submaster;#P newex -384 -45 72 196617 s bangquarter;#P newex -384 -62 63 196617 qmetro 500;#P newex -384 22 71 196617 s bangsixteen;#P newex -384 3 63 196617 qmetro 125;#P number -461 -44 35 9 0 0 0 3 0 0 0 221 221 221 222 222 222 0 0 0;#P newex -496 -44 31 196617 / 16;#P newex -384 -114 64 196617 s bangwhole;#P newex -382 -131 69 196617 qmetro 2000;#P newex -384 -80 55 196617 s banghalf;#P newex -497 -142 44 196617 r bang0;#P number -495 18 35 9 0 0 0 3 0 0 0 221 221 221 222 222 222 0 0 0;#P newex -460 3 27 196617 + 1;#P newex -494 -29 44 196617 s whole;#P newex -495 33 73 196617 s samplecount;#P flonum -462 -79 43 9 0 0 0 3 0 0 0 221 221 221 222 222 222 0 0 0;#P newex -497 -78 27 196617 / 2;#P number -495 4 35 9 0 0 0 3 0 0 0 221 221 221 222 222 222 0 0 0;#N counter 3;#X flags 0 0;#P newobj -495 -13 66 196617 counter 3;#P flonum -461 -94 39 9 0 0 0 3 0 0 0 221 221 221 222 222 222 0 0 0;#P newex -383 -97 69 196617 qmetro 1000;#P newex -497 -94 27 196617 * 4.;#P slider -552 -143 47 256 50 1;#P message -498 -125 36 196617 60000;#P flonum -462 -110 35 9 0 0 0 3 0 0 0 221 221 221 222 222 222 0 0 0;#P newex -497 -110 27 196617 / 1.;#P window setfont "Arial Black" 36.;#P number -497 66 98 36 0 0 0 12077 0 0 0 221 221 221 222 222 222 0 0 0;#P window setfont "Sans Serif" 9.;#P comment -549 -161 38 196617 BPM;#P newex -415 1038 48 196617 loadbang;#P button -415 1055 41 0;#P newex -353 1070 108 196617 buffer~ 6buf 60000;#P message -353 1055 68 196617 read 6.wav;#P newex -236 1070 108 196617 buffer~ 7buf 60000;#P message -236 1056 68 196617 read 7.wav;#P newex -117 1071 108 196617 buffer~ 8buf 60000;#P message -116 1054 68 196617 read 8.wav;#P newex -6 1073 108 196617 buffer~ 9buf 60000;#P message -7 1057 68 196617 read 9.wav;#P newex 107 1070 113 196617 buffer~ 10buf 60000;#P message 107 1055 73 196617 read 10.wav;#P newex 221 1070 113 196617 buffer~ 11buf 60000;#P message 222 1054 73 196617 read 11.wav;#P newex -352 1038 100 196617 buffer~ 0buf 60000;#P message -352 1023 68 196617 read 0.wav;#P newex -236 1040 100 196617 buffer~ 1buf 60000;#P message -235 1023 68 196617 read 1.wav;#P newex -117 1037 100 196617 buffer~ 2buf 60000;#P message -115 1022 68 196617 read 2.wav;#P newex -7 1037 108 196617 buffer~ 3buf 60000;#P message -6 1020 68 196617 read 3.wav;#P newex 106 1036 108 196617 buffer~ 4buf 60000;#P message 109 1019 68 196617 read 4.wav;#P newex 221 1038 108 196617 buffer~ 5buf 60000;#P message 222 1022 68 196617 read 5.wav;#P newex -352 1103 81 196617 buffer~ hh001;#P message -353 1087 91 196617 read hh.001.wav;#P newex -118 1103 94 196617 buffer~ snare001;#P message -117 1088 109 196617 read snare.001.wav;#P newex -235 1103 88 196617 buffer~ kick001;#P message -235 1088 98 196617 read kick.001.wav;#P newex -779 -76 44 196617 s bang0;#P button -783 -131 55 0;#P user scope~ -791 -3 -554 117 256 3 128 -1. 1. 0 0. 0 0. 102 255 51 135 135 135 0;#P newex -778 -21 43 196617 dac~;#P comment -850 -224 137 196617 Fernando J Pando;#P comment -309 760 100 196617 analyze video;#P comment -372 -168 39 196617 sync;#P comment -794 -143 82 196617 (twice 2 reload);#P button 683 -164 39 0;#N counter 1;#X flags 0 0;#P newobj -386 40 51 196617 counter 1;#P window linecount 2;#P comment -849 -249 160 196617 * PERPETUAL MACHINE * BitForms - Columbia GSAPP 2006;#P fasten 417 0 8 0 -772 -5 -786 -5;#P connect 554 0 553 0;#P connect 117 0 115 0;#P connect 575 0 574 0;#P fasten 116 0 415 0 -745 237 -777 237;#P fasten 116 0 112 0 -745 237 -777 237;#P connect 113 0 114 0;#P connect 521 0 522 0;#P connect 545 0 552 0;#P connect 9 0 10 0;#P connect 417 0 7 0;#P connect 429 0 7 0;#P connect 522 0 535 0;#P connect 541 0 543 0;#P connect 154 0 156 0;#P connect 156 0 158 0;#P connect 543 0 545 0;#P connect 567 0 573 0;#P fasten 116 0 118 0 -745 255 -746 255;#P fasten 414 0 116 0 -777 237 -745 237;#P connect 116 0 117 0;#P connect 535 0 593 0;#P connect 594 0 595 0;#P fasten 417 0 7 1 -772 -22 -740 -22;#P connect 563 0 565 0;#P connect 158 0 521 0;#P connect 552 0 554 0;#P connect 565 0 567 0;#P connect 602 0 603 0;#P connect 600 0 603 0;#P fasten 115 0 116 1 -779 241 -728 241;#P connect 553 0 593 1;#P connect 574 0 595 1;#P connect 107 0 113 0;#P connect 596 0 592 0;#P connect 152 0 107 0;#P connect 416 0 107 0;#P connect 573 0 575 0;#P connect 593 0 594 0;#P connect 595 0 596 0;#P connect 542 1 547 0;#P connect 160 0 161 0;#P connect 541 0 542 0;#P connect 547 0 548 0;#P connect 155 1 160 0;#P connect 154 0 155 0;#P connect 603 0 604 0;#P connect 592 0 600 0;#P connect 152 0 153 0;#P connect 486 0 429 0;#P fasten 678 0 677 0 -685 -21 -685 -21;#P connect 563 0 564 0;#P connect 564 1 569 0;#P connect 569 0 570 0;#P connect 530 0 531 0;#P connect 555 0 556 0;#P connect 576 0 577 0;#P connect 601 0 602 0;#P connect 550 0 551 0;#P connect 162 0 520 0;#P connect 602 0 606 0;#P connect 598 0 606 0;#P connect 591 0 597 0;#P connect 604 0 549 0;#P connect 571 0 572 0;#P connect 417 0 679 0;#P fasten 680 0 679 0 -684 -28 -647 -28;#P fasten 681 0 679 0 -648 -28 -647 -28;#P connect 531 0 588 0;#P connect 149 0 108 0;#P connect 108 0 109 0;#P connect 109 0 413 0;#P connect 589 0 590 0;#P connect 542 3 546 0;#P connect 155 3 159 0;#P connect 520 0 530 0;#P connect 551 0 555 0;#P connect 548 0 550 0;#P connect 564 3 568 0;#P connect 597 0 598 0;#P connect 161 0 162 0;#P connect 556 0 588 1;#P connect 606 0 607 0;#P fasten 150 0 108 1 -645 253 -628 253;#P fasten 151 0 109 1 -645 273 -628 273;#P connect 577 0 590 1;#P fasten 108 0 110 0 -645 253 -620 253;#P connect 109 0 111 0;#P connect 588 0 589 0;#P connect 546 0 550 1;#P connect 572 0 576 0;#P connect 590 0 591 0;#P connect 570 0 571 0;#P connect 607 0 605 0;#P connect 159 0 162 1;#P connect 417 0 679 1;#P connect 541 0 544 0;#P connect 154 0 157 0;#P connect 544 0 557 0;#P connect 558 0 559 0;#P connect 568 0 571 1;#P connect 585 0 587 0;#P connect 157 0 536 0;#P connect 537 0 538 0;#P connect 563 0 566 0;#P connect 599 0 609 0;#P connect 602 0 609 0;#P connect 566 0 578 0;#P connect 560 0 561 0;#P connect 539 0 540 0;#P connect 581 0 582 0;#P fasten 677 0 679 2 -685 -24 -575 -24;#P connect 579 0 580 0;#P connect 587 0 599 0;#P connect 610 0 608 0;#P connect 557 0 558 0;#P connect 559 0 560 0;#P connect 609 0 610 0;#P connect 536 0 537 0;#P connect 538 0 539 0;#P connect 578 0 579 0;#P connect 583 0 585 0;#P connect 540 0 583 0;#P connect 580 0 581 0;#P connect 582 0 585 1;#P connect 561 0 583 1;#P fasten 142 0 143 0 -488 468 -522 468;#P connect 140 0 143 0;#P connect 148 0 147 0;#P connect 146 0 141 0;#P connect 84 0 85 0;#P fasten 485 0 126 0 -450 379 -520 379;#P connect 585 0 586 0;#P fasten 475 0 474 0 -467 252 -518 252;#P fasten 485 0 76 0 -450 253 -518 253;#P connect 145 0 140 0;#P fasten 147 1 140 0 -475 468 -518 468;#P connect 583 0 584 0;#P connect 60 0 47 0;#P fasten 47 0 45 0 -493 -111 -492 -111;#P connect 46 0 49 0;#P fasten 51 0 54 0 -456 -67 -492 -67;#P fasten 48 0 44 0 -547 117 -492 117;#P connect 427 0 44 0;#P connect 51 0 64 0;#P connect 51 0 620 0;#P fasten 50 0 52 0 -378 -34 -490 -34;#P connect 52 0 53 0;#P connect 58 0 59 0;#P connect 59 0 56 0;#P connect 51 0 57 0;#P connect 141 0 142 0;#P fasten 143 0 83 0 -522 362 -478 362;#P fasten 485 0 86 0 -450 347 -478 347;#P connect 430 0 84 0;#P connect 144 0 145 0;#P fasten 44 0 45 1 -492 -113 -475 -113;#P connect 146 0 147 1;#P connect 432 0 430 0;#P fasten 85 0 83 1 -520 374 -461 374;#P fasten 45 0 46 0 -492 -98 -457 -98;#P connect 54 0 55 0;#P connect 49 0 51 0;#P connect 64 0 65 0;#P connect 620 0 621 0;#P connect 53 0 58 0;#P connect 139 0 146 0;#P fasten 474 0 485 0 -518 253 -450 253;#P connect 428 0 427 0;#P fasten 83 0 485 1 -478 347 -425 347;#P connect 296 1 298 0;#P connect 305 0 306 0;#P connect 298 0 300 0;#P connect 302 0 303 0;#P connect 42 0 41 0;#P connect 299 0 300 1;#P connect 300 0 301 0;#P connect 138 0 472 0;#P connect 481 0 482 0;#P connect 484 0 478 0;#P connect 99 0 100 0;#P connect 102 0 96 0;#P connect 96 0 471 0;#P connect 137 0 132 0;#P connect 471 0 132 0;#P connect 138 0 133 0;#P fasten 134 0 135 0 -355 571 -387 571;#P connect 132 0 135 0;#P connect 478 0 479 0;#P connect 481 0 479 0;#P connect 296 2 299 0;#P fasten 477 0 476 0 -335 203 -386 203;#P fasten 98 0 95 0 -354 357 -386 357;#P connect 470 0 127 0;#P connect 106 0 104 0;#P connect 303 0 304 0;#P connect 62 0 1 0;#P connect 62 0 63 0;#P connect 50 0 61 0;#P fasten 60 0 68 0 -492 -145 -379 -145;#P connect 68 0 69 0;#P fasten 60 0 617 0 -492 -145 -379 -145;#P connect 617 0 618 0;#P fasten 60 0 66 0 -492 -145 -379 -145;#P connect 66 0 67 0;#P fasten 60 0 50 0 -492 -145 -378 -145;#P connect 389 0 357 0;#P connect 357 0 394 0;#P connect 375 0 396 0;#P fasten 60 0 62 0 -492 -146 -377 -146;#P connect 104 0 96 1;#P fasten 105 0 104 1 -387 444 -369 444;#P connect 317 0 305 0;#P fasten 96 0 97 0 -387 462 -361 462;#P connect 104 0 103 0;#P connect 301 0 302 0;#P connect 304 0 317 0;#P connect 431 0 99 0;#P fasten 133 0 134 0 -387 546 -355 546;#P fasten 135 0 98 0 -387 359 -354 359;#P connect 296 3 314 0;#P fasten 98 0 101 0 -354 358 -352 358;#P connect 295 0 389 0;#P connect 478 0 481 0;#P fasten 41 0 39 0 -410 1017 -348 1017;#P fasten 39 0 40 0 -348 1084 -348 1084;#P fasten 41 0 15 0 -410 1016 -348 1016;#P connect 479 1 473 0;#P connect 472 0 473 0;#P fasten 41 0 27 0 -410 1017 -347 1017;#P fasten 27 0 28 0 -347 1029 -347 1029;#P fasten 15 0 16 0 -348 1100 -347 1100;#P connect 482 0 480 0;#P connect 136 0 137 0;#P connect 480 0 471 1;#P connect 314 0 302 1;#P fasten 100 0 98 1 -387 355 -337 355;#P connect 433 0 431 0;#P connect 357 0 419 0;#P connect 375 0 420 0;#P connect 483 0 484 0;#P connect 1 0 295 0;#P connect 131 0 138 0;#P connect 473 0 482 1;#P fasten 46 0 68 1 -457 -146 -326 -146;#P connect 621 0 617 1;#P fasten 65 0 66 1 -456 -146 -326 -146;#P fasten 476 0 470 0 -386 355 -326 355;#P connect 50 0 423 0;#P fasten 55 0 50 1 -457 -147 -319 -147;#P connect 617 0 619 0;#P fasten 51 0 62 1 -456 -147 -318 -147;#P connect 62 0 424 0;#P connect 389 0 375 0;#P connect 68 0 422 0;#P connect 66 0 421 0;#P connect 411 0 296 0;#P connect 313 0 310 0;#P connect 316 0 311 0;#P connect 312 0 309 0;#P connect 98 0 470 1;#P fasten 138 0 482 2 -330 664 -268 664;#P fasten 77 0 129 0 -254 507 -259 507;#P connect 125 0 120 0;#P connect 129 1 120 0;#P fasten 122 0 123 0 -214 560 -258 560;#P connect 120 0 123 0;#P connect 258 0 259 0;#P connect 119 0 130 0;#P connect 251 0 252 0;#P connect 253 0 254 0;#P fasten 468 0 467 0 -204 200 -255 200;#P connect 94 0 92 0;#P fasten 259 0 250 0 -256 -85 -254 -85;#P connect 250 0 251 0;#P connect 252 0 253 0;#P connect 254 0 255 0;#P connect 255 0 249 0;#P connect 249 0 262 0;#P connect 90 0 88 0;#P connect 88 0 77 0;#P connect 80 0 81 0;#P fasten 79 0 128 0 -219 358 -252 358;#P fasten 79 0 75 0 -219 358 -250 358;#P connect 296 1 312 0;#P connect 296 3 316 0;#P fasten 93 0 92 1 -253 477 -238 477;#P connect 296 2 313 0;#P connect 89 0 88 1;#P connect 92 0 77 1;#P fasten 25 0 26 0 -230 1033 -231 1033;#P fasten 41 0 37 0 -410 1016 -231 1016;#P fasten 37 0 38 0 -231 1088 -231 1088;#P fasten 41 0 25 0 -410 1016 -230 1016;#P fasten 41 0 11 0 -410 1018 -230 1018;#P fasten 11 0 12 0 -230 1117 -230 1117;#P fasten 88 0 87 0 -254 460 -228 460;#P connect 92 0 91 0;#P fasten 77 0 78 0 -254 495 -228 495;#P connect 119 0 121 0;#P connect 261 0 260 0;#P connect 435 0 80 0;#P fasten 469 0 79 0 -192 340 -219 340;#P connect 260 0 258 0;#P connect 79 0 82 0;#P connect 121 0 122 0;#P connect 130 0 129 1;#P connect 124 0 125 0;#P connect 248 0 266 0;#P connect 434 0 435 0;#P fasten 259 0 246 0 -256 -85 -202 -85;#P fasten 81 0 79 1 -252 354 -202 354;#P connect 264 0 265 0;#P connect 256 0 247 0;#P fasten 249 0 248 0 -254 35 -200 35;#P fasten 245 0 248 0 -177 19 -200 19;#P connect 265 0 247 1;#P fasten 467 0 469 0 -255 356 -192 356;#P connect 263 0 260 2;#P connect 297 1 307 0;#P connect 320 0 321 0;#P connect 412 0 297 0;#P connect 307 0 318 0;#P connect 325 0 323 0;#P fasten 259 0 243 0 -256 -84 -182 -84;#P fasten 246 0 256 0 -202 -28 -181 -28;#P fasten 247 0 257 0 -200 6 -181 6;#P connect 267 0 261 0;#P fasten 259 0 245 0 -256 -86 -177 -86;#P connect 244 0 245 0;#P connect 308 0 318 1;#P fasten 256 0 248 1 -181 19 -170 19;#P fasten 123 0 469 1 -258 356 -167 356;#P connect 243 0 244 0;#P connect 318 0 319 0;#P connect 297 2 308 0;#P connect 321 0 322 0;#P connect 323 0 324 0;#P fasten 257 0 248 2 -181 21 -140 21;#P connect 319 0 320 0;#P connect 322 0 325 0;#P connect 297 3 315 0;#P fasten 13 0 14 0 -112 1090 -113 1090;#P fasten 23 0 24 0 -110 1033 -112 1033;#P fasten 35 0 36 0 -111 1090 -112 1090;#P fasten 41 0 13 0 -410 1019 -112 1019;#P fasten 41 0 35 0 -410 1018 -111 1018;#P fasten 41 0 23 0 -410 1018 -110 1018;#P connect 315 0 320 1;#P connect 393 0 408 0;#P connect 676 0 373 0;#P fasten 400 1 401 0 -67 295 -83 295;#P fasten 361 0 362 0 -81 272 -82 272;#P fasten 361 0 400 0 -81 275 -82 275;#P connect 400 0 378 0;#P fasten 360 0 361 0 -52 258 -81 258;#P connect 373 0 393 0;#P fasten 373 0 358 0 -85 441 -79 441;#P fasten 362 0 358 0 -82 453 -79 453;#P fasten 373 0 391 0 -85 438 -79 438;#P connect 205 0 206 0;#P connect 198 0 199 0;#P connect 200 0 201 0;#P fasten 206 0 197 0 -76 -87 -74 -87;#P connect 197 0 198 0;#P connect 199 0 200 0;#P connect 201 0 202 0;#P connect 202 0 196 0;#P connect 196 0 209 0;#P fasten 359 0 360 0 -81 256 -52 256;#P connect 393 1 409 0;#P connect 208 0 207 0;#P connect 207 0 205 0;#P connect 195 0 213 0;#P fasten 206 0 193 0 -76 -87 -22 -87;#P connect 211 0 212 0;#P connect 203 0 194 0;#P fasten 196 0 195 0 -74 33 -20 33;#P fasten 192 0 195 0 2 17 -20 17;#P connect 212 0 194 1;#P connect 393 2 410 0;#P connect 210 0 207 2;#P fasten 206 0 190 0 -76 -86 -2 -86;#P fasten 21 0 22 0 -1 1034 -2 1034;#P fasten 41 0 33 0 -410 1020 -2 1020;#P fasten 193 0 203 0 -22 -30 -1 -30;#P fasten 194 0 204 0 -20 4 -1 4;#P fasten 41 0 21 0 -410 1019 -1 1019;#P fasten 33 0 34 0 -2 1091 -1 1091;#P connect 240 0 208 0;#P fasten 206 0 192 0 -76 -74 2 -74;#P connect 191 0 192 0;#P fasten 203 0 195 1 -1 17 10 17;#P connect 190 0 191 0;#P fasten 204 0 195 2 -1 19 40 19;#P fasten 374 0 372 0 63 292 61 292;#P connect 670 0 372 0;#P connect 390 0 669 0;#P connect 526 0 525 0;#P connect 529 0 682 0;#P fasten 372 0 390 0 61 319 62 319;#P connect 527 0 528 0;#P connect 683 0 374 0;#P connect 528 0 529 0;#P connect 682 0 683 0;#P connect 230 0 231 0;#P connect 223 0 224 0;#P connect 225 0 226 0;#P fasten 231 0 222 0 106 -87 108 -87;#P connect 222 0 223 0;#P connect 224 0 225 0;#P connect 226 0 227 0;#P connect 227 0 221 0;#P connect 221 0 234 0;#P fasten 19 0 20 0 114 1033 111 1033;#P fasten 41 0 31 0 -410 1020 112 1020;#P fasten 31 0 32 0 112 1090 112 1090;#P fasten 41 0 19 0 -410 1019 114 1019;#P connect 525 0 527 0;#P connect 524 0 526 0;#P connect 671 0 372 1;#P connect 233 0 232 0;#P connect 232 0 230 0;#P connect 220 0 238 0;#P fasten 231 0 218 0 106 -87 160 -87;#P connect 236 0 237 0;#P connect 228 0 219 0;#P fasten 221 0 220 0 108 33 162 33;#P fasten 217 0 220 0 184 17 162 17;#P connect 237 0 219 1;#P connect 235 0 232 2;#P connect 653 0 652 0;#P connect 654 0 684 0;#P connect 685 0 655 0;#P fasten 650 0 649 0 179 301 178 301;#P connect 672 0 649 0;#P connect 649 0 657 0;#P connect 657 0 658 0;#P connect 656 0 650 0;#P connect 657 0 675 0;#P fasten 231 0 215 0 106 -86 180 -86;#P fasten 218 0 228 0 160 -30 181 -30;#P fasten 219 0 229 0 162 4 181 4;#P connect 239 0 233 0;#P fasten 231 0 217 0 106 -88 184 -88;#P connect 216 0 217 0;#P fasten 228 0 220 1 181 17 192 17;#P connect 215 0 216 0;#P connect 684 0 685 0;#P connect 655 0 656 0;#P fasten 229 0 220 2 181 19 222 19;#P fasten 17 0 18 0 227 1034 226 1034;#P fasten 29 0 30 0 227 1084 226 1084;#P fasten 41 0 17 0 -410 1019 227 1019;#P fasten 41 0 29 0 -410 1019 227 1019;#P connect 652 0 654 0;#P connect 651 0 653 0;#P connect 673 0 649 1;#P connect 173 0 174 0;#P connect 175 0 176 0;#P fasten 181 0 172 0 277 -88 275 -88;#P connect 172 0 173 0;#P connect 174 0 175 0;#P connect 176 0 177 0;#P connect 177 0 171 0;#P connect 171 0 184 0;#P connect 180 0 181 0;#P fasten 368 0 364 0 393 320 294 320;#P connect 418 0 532 0;#P connect 690 0 615 0;#P connect 615 0 426 0;#P connect 426 0 405 0;#P connect 488 0 489 0;#P fasten 382 0 376 0 445 377 303 377;#P connect 397 0 384 0;#P fasten 382 0 379 0 445 413 303 413;#P connect 418 0 366 0;#P connect 364 0 369 0;#P connect 364 0 666 0;#P connect 183 0 182 0;#P connect 182 0 180 0;#P connect 170 0 188 0;#P fasten 181 0 168 0 277 -88 327 -88;#P connect 186 0 187 0;#P connect 178 0 169 0;#P fasten 171 0 170 0 275 32 329 32;#P fasten 167 0 170 0 351 16 329 16;#P connect 395 0 489 2;#P connect 187 0 169 1;#P connect 185 0 182 2;#P fasten 181 0 165 0 277 -90 346 -90;#P connect 488 0 490 0;#P fasten 169 0 179 0 328 3 347 3;#P connect 659 0 406 0;#P fasten 168 0 178 0 327 -31 348 -31;#P connect 660 0 659 0;#P connect 241 0 183 0;#P fasten 181 0 167 0 277 -90 351 -90;#P connect 166 0 167 0;#P connect 690 0 660 0;#P connect 688 0 690 0;#P fasten 381 0 366 1 379 411 358 411;#P fasten 178 0 170 1 348 16 359 16;#P fasten 376 0 377 0 303 374 361 374;#P connect 384 0 491 0;#P connect 490 0 418 0;#P connect 165 0 166 0;#P fasten 366 0 367 0 304 414 369 414;#P connect 397 0 490 2;#P fasten 363 0 371 0 389 444 378 444;#P fasten 380 0 381 0 404 430 379 430;#P connect 371 0 663 0;#P fasten 179 0 170 2 347 18 389 18;#P fasten 370 0 363 0 396 444 389 444;#P fasten 379 0 363 0 303 448 389 448;#P connect 365 0 363 0;#P connect 532 0 363 0;#P connect 487 0 488 0;#P connect 363 0 368 0;#P fasten 405 0 368 0 301 320 393 320;#P fasten 406 0 368 0 347 301 393 301;#P fasten 407 0 368 0 402 300 393 300;#P fasten 377 0 370 0 361 392 396 392;#P connect 491 0 385 0;#P connect 689 0 616 0;#P connect 616 0 425 0;#P connect 425 0 407 0;#P fasten 363 1 380 0 445 446 404 446;#P fasten 382 0 380 0 445 409 404 409;#P fasten 367 0 365 0 369 409 415 409;#P fasten 385 0 392 0 398 416 428 416;#P connect 331 0 335 0;#P connect 687 0 689 0;#P connect 439 0 342 0;#P connect 339 0 342 0;#P connect 335 0 339 0;#P connect 336 0 341 0;#P connect 341 0 340 0;#P connect 338 0 340 0;#P connect 346 0 347 0;#P connect 331 0 350 0;#P connect 351 0 346 0;#P connect 326 0 354 0;#P fasten 329 0 332 0 444 -76 443 -76;#P connect 346 0 326 0;#P fasten 328 0 329 0 456 -92 444 -92;#P connect 489 0 382 0;#P fasten 363 1 383 0 445 446 453 446;#P connect 436 0 328 0;#P connect 330 0 326 1;#P connect 392 0 386 0;#P connect 333 0 330 0;#P connect 333 0 346 1;#P fasten 332 0 331 0 443 -74 473 -74;#P connect 339 0 336 0;#P connect 340 0 333 0;#P connect 333 0 334 0;#P connect 437 0 436 0;#P connect 352 0 356 0;#P connect 466 0 330 1;#P fasten 331 0 338 0 473 -58 502 -58;#P connect 344 0 345 0;#P connect 326 0 349 0;#P connect 333 1 337 0;#P connect 350 0 351 0;#P connect 355 0 436 2;#P fasten 439 0 465 0 563 -53 519 -53;#P connect 343 0 335 1;#P fasten 439 0 350 1 563 -54 524 -54;#P connect 438 0 437 0;#P connect 342 0 343 0;#P connect 330 0 348 0;#P connect 328 0 344 0;#P connect 534 0 402 0;#P connect 516 0 517 0;#P fasten 497 0 493 0 648 442 555 442;#P connect 399 0 534 0;#P fasten 506 0 501 0 697 357 556 357;#P connect 513 0 508 0;#P connect 514 0 495 0;#P fasten 506 0 503 0 697 393 558 393;#P connect 494 0 492 0;#P fasten 503 0 492 0 558 428 558 428;#P fasten 499 0 492 0 649 424 558 424;#P connect 661 0 492 0;#P connect 514 0 661 0;#P connect 345 0 336 1;#P connect 465 0 466 0;#P connect 353 0 439 0;#P connect 493 0 498 0;#P connect 356 0 344 1;#P connect 493 0 667 0;#P connect 512 0 517 2;#P connect 516 0 518 0;#P fasten 505 0 495 1 632 391 611 391;#P fasten 501 0 502 0 556 354 614 354;#P connect 508 0 519 0;#P connect 518 0 514 0;#P fasten 495 0 496 0 557 394 622 394;#P fasten 492 1 507 0 614 424 625 424;#P fasten 492 0 500 0 558 442 627 442;#P connect 611 0 403 0;#P connect 513 0 518 2;#P connect 533 0 612 0;#P fasten 504 0 505 0 657 410 632 410;#P connect 500 0 664 0;#P connect 289 0 277 0;#P connect 277 0 291 0;#P connect 290 0 291 0;#P connect 291 0 293 0;#P connect 271 0 278 0;#P connect 442 0 441 0;#P connect 273 0 272 0;#P connect 272 0 271 0;#P connect 293 0 273 0;#P connect 515 0 516 0;#P fasten 492 0 497 0 558 439 648 439;#P connect 403 0 497 0;#P connect 404 0 497 0;#P connect 402 0 497 0;#P fasten 502 0 499 0 614 372 649 372;#P connect 519 0 509 0;#P fasten 506 0 504 0 697 389 657 389;#P fasten 492 1 504 0 614 426 657 426;#P connect 612 0 611 0;#P connect 271 0 279 0;#P fasten 496 0 494 0 622 389 668 389;#P connect 291 1 292 0;#P connect 398 0 533 0;#P fasten 509 0 511 0 651 396 681 396;#P connect 440 0 2 0;#P fasten 441 0 440 0 637 -93 688 -93;#P connect 276 0 289 0;#P connect 2 0 290 0;#P connect 613 0 404 0;#P connect 517 0 506 0;#P connect 534 0 614 0;#P connect 511 0 510 0;#P fasten 277 0 440 2 635 -92 718 -92;#P connect 614 0 613 0;#P connect 280 0 282 0;#P connect 450 0 281 0;#P connect 269 0 280 0;#P connect 446 0 445 0;#P connect 445 0 448 0;#P connect 447 0 448 0;#P connect 281 0 269 0;#P connect 448 0 450 0;#P connect 453 0 452 0;#P connect 645 0 646 0;#P connect 280 0 283 0;#P fasten 635 0 630 0 934 335 793 335;#P connect 642 0 637 0;#P connect 643 0 625 0;#P fasten 635 0 632 0 934 371 795 371;#P fasten 387 0 623 0 884 407 795 407;#P fasten 628 0 622 0 886 402 797 402;#P fasten 632 0 622 0 795 406 797 406;#P connect 624 0 622 0;#P connect 662 0 622 0;#P connect 643 0 662 0;#P connect 623 0 627 0;#P connect 448 1 449 0;#P connect 623 0 668 0;#P connect 451 0 443 0;#P fasten 452 0 451 0 767 -94 818 -94;#P connect 444 0 446 0;#P connect 443 0 447 0;#P connect 641 0 646 2;#P connect 645 0 647 0;#P fasten 445 0 451 2 765 -93 848 -93;#P fasten 634 0 625 1 869 369 848 369;#P fasten 630 0 631 0 793 332 851 332;#P connect 637 0 648 0;#P fasten 625 0 626 0 794 372 859 372;#P connect 647 0 643 0;#P fasten 622 1 636 0 853 423 863 423;#P connect 642 0 647 2;#P fasten 633 0 634 0 894 388 869 388;#P fasten 622 0 629 0 797 423 869 423;#P connect 629 0 665 0;#P connect 644 0 645 0;#P connect 622 0 387 0;#P fasten 388 0 387 0 933 278 884 278;#P fasten 631 0 628 0 851 350 886 350;#P connect 648 0 638 0;#P fasten 635 0 633 0 934 367 894 367;#P fasten 622 1 633 0 853 404 894 404;#P fasten 626 0 624 0 859 367 905 367;#P connect 457 0 456 0;#P connect 456 0 459 0;#P connect 458 0 459 0;#P connect 459 0 461 0;#P connect 286 0 285 0;#P connect 284 0 287 0;#P connect 464 0 463 0;#P connect 461 0 286 0;#P connect 285 0 284 0;#P fasten 638 0 640 0 888 374 918 374;#P connect 523 0 388 0;#P connect 646 0 635 0;#P connect 284 0 288 0;#P connect 691 0 523 0;#P connect 459 1 460 0;#P connect 640 0 639 0;#P connect 462 0 454 0;#P fasten 463 0 462 0 909 -95 960 -95;#P connect 455 0 457 0;#P connect 454 0 458 0;#P fasten 456 0 462 2 907 -94 990 -94;#P pop;